<svg width="1079" height="546" viewBox="0 0 1079 546" fill="none" xmlns="http://www.w3.org/2000/svg">
<path d="M1079 532C1040.22 479.155 1048.18 427.295 979.232 395.434C944.246 379.268 840.711 384.789 790.878 328.693C761.628 295.767 801.641 249.244 758.956 203.78C730.917 173.917 628.399 211.569 585.811 160.591C441.954 -11.607 368.413 144.818 284.736 149.42C98.664 159.653 112.293 33.186 0 0H1079C1079 0 1079 531.492 1079 532Z" fill="#C5EEF9"/>
<path d="M941.076 523.932C987.8 523.932 1033.7 523.932 1078.58 523.932V534.485C1033.76 534.548 987.863 534.548 941.076 534.548C440.083 534.548 34 531.306 34 527.238C34 523.233 440.147 523.932 941.076 523.932Z" fill="#D1CDCA"/>
<path d="M237.995 398.637C236.469 397.047 236.597 394.25 239.012 390.817C240.602 388.529 254.778 371.302 260.435 363.927C263.487 359.923 265.839 352.485 265.839 347.336C265.839 339.898 265.457 317.776 265.394 306.842C265.33 298.006 264.885 289.233 272.895 284.72C276.391 282.749 281.731 285.991 283.765 289.615C285.609 292.857 286.69 297.497 286.69 301.248C286.69 310.91 281.922 340.979 280.587 350.959C279.443 359.541 274.993 367.233 269.017 373.463C261.071 381.854 252.171 390.754 244.161 398.382C241.937 400.544 239.203 399.908 237.995 398.637Z" fill="#7FD9EB"/>
<path d="M250.391 387.448C253.951 383.698 260.499 376.069 263.995 371.81C268.445 366.407 272.005 362.275 273.149 355.409C274.294 348.289 275.056 328.646 275.12 325.15C275.184 322.162 275.629 313.072 278.807 312.627C282.176 312.118 284.21 315.17 285.291 317.776C283.765 329.981 281.477 344.602 280.651 351.023C279.506 359.605 275.056 367.297 269.081 373.527C261.135 381.918 252.235 390.818 244.225 398.446C243.462 399.145 242.699 399.527 241.937 399.717C241.746 399.527 241.619 399.272 241.492 398.891C241.047 396.92 247.276 390.69 250.391 387.448Z" fill="#37C0DB"/>
<path d="M336.719 359.732C333.795 359.986 292.602 363.864 287.262 363.61C285.99 363.546 283.892 362.847 283.384 361.004C282.621 358.27 283.765 344.793 282.43 337.101C281.095 329.346 272.45 303.918 270.797 294.446C269.971 289.678 269.844 286.627 273.467 284.72C277.027 282.813 287.707 279.698 291.521 278.871C299.213 277.282 307.858 276.519 315.677 276.901C319.237 277.092 325.276 277.791 327.946 280.397C330.171 282.559 331.951 285.991 332.968 289.043C335.638 296.925 335.066 316.886 335.384 324.006C335.638 330.872 336.782 335.004 337.99 340.153C339.198 345.365 340.024 348.798 341.296 353.82C342.249 357.698 341.105 359.351 336.719 359.732Z" fill="#7FD9EB"/>
<path d="M318.919 342.695C322.225 339.58 327.946 341.932 329.281 338.055C330.68 334.113 327.755 327.121 326.039 322.417C324.704 318.73 319.364 309.067 325.34 309.639C327.819 309.893 331.887 310.466 335.257 311.61C335.384 316.695 335.32 321.336 335.447 324.069C335.702 330.935 336.846 335.067 338.054 340.216C339.262 345.429 340.088 348.862 341.359 353.884C342.313 357.698 341.105 359.351 336.719 359.732C335.702 359.796 329.663 360.368 322.098 361.067C320.954 360.304 320 359.287 319.237 358.016C314.787 351.277 315.677 345.747 318.919 342.695Z" fill="#37C0DB"/>
<path d="M246.641 520.945C246.641 524.377 246.259 526.094 241.873 526.221C239.521 526.285 236.152 525.649 234.181 525.649C230.494 525.712 223.374 527.111 217.653 526.602C213.203 526.221 206.528 525.585 207.673 522.407C208.69 519.61 215.174 519.483 217.844 518.783C221.531 517.766 225.281 516.686 228.46 514.524C232.02 512.172 233.736 510.201 235.453 507.023C237.995 502.255 238.758 498.25 242.636 498.187C246.895 498.123 248.039 501.175 246.259 511.791C245.814 514.778 246.641 518.72 246.641 520.945Z" fill="#1E2859"/>
<path d="M415.291 516.113C413.638 517.703 408.426 520.436 405.819 519.228C403.149 517.957 407.409 510.138 407.218 506.959C407.027 502.954 404.103 492.91 401.751 490.431C399.589 488.206 397.364 486.808 395.203 484.837C393.296 483.121 392.724 480.324 393.868 478.862C395.712 476.573 398.318 475.492 401.814 477.781C402.959 478.544 406.582 480.578 408.998 481.913C411.159 483.121 413.384 483.121 416.372 484.456C419.423 485.854 418.978 489.287 418.787 490.431C418.342 493.165 417.961 497.17 417.961 499.522C417.898 503.336 418.787 505.497 418.533 509.248C418.342 511.536 417.198 514.27 415.291 516.113Z" fill="#1E2859"/>
<path d="M405.311 475.556C401.115 472.25 362.02 440.91 359.286 437.986C356.044 434.553 352.484 428.006 351.849 423.174C350.26 412.177 349.942 388.847 349.306 373.399C349.115 368.504 346.382 363.673 340.851 360.558C337.228 358.46 332.269 357.507 328.964 354.901C325.849 352.485 323.115 347.971 322.162 344.221C320.255 336.592 316.822 320.637 316.059 312.309C315.423 306.079 314.915 295.971 318.03 287.835C319.555 283.83 323.179 280.015 324.387 278.808C325.149 278.045 325.34 277.663 324.641 277.536C323.624 277.282 321.717 277.028 320.763 276.901C319.682 276.773 318.92 277.218 318.093 277.918C315.932 279.952 312.753 284.783 311.482 289.424C309.829 295.526 309.257 302.519 309.893 310.529C304.362 310.91 294.318 311.673 288.915 312.118C285.673 300.103 283.893 289.233 285.101 281.668C285.291 280.46 285.418 279.952 284.719 280.206C283.829 280.524 281.922 281.096 280.714 281.478C279.697 281.795 279.443 283.321 279.316 283.766C277.726 289.487 281.414 307.478 283.575 314.661C283.575 314.661 287.262 337.737 287.516 342.695C287.77 347.082 288.343 351.531 287.008 355.918C286.436 357.825 284.656 360.876 283.384 362.211C281.096 364.563 278.744 365.135 278.553 367.805C278.362 369.776 278.044 378.103 278.044 381.918C274.548 393.996 261.008 419.17 257.384 426.353C252.044 436.778 250.519 447.458 248.929 453.497C245.878 465.194 242.382 478.734 238.504 495.262C237.995 497.487 237.042 502.827 237.868 504.607C238.949 506.896 241.237 508.421 243.272 509.375C246.895 511.028 251.536 511.854 253.697 508.294C254.651 506.705 257.702 497.996 258.592 495.835C263.36 483.438 266.856 475.429 271.814 462.842C274.675 455.595 280.714 446.187 285.99 437.859C290.822 430.231 303.663 411.605 306.206 407.854C309.193 403.468 314.215 403.023 316.885 409.126C319.428 414.847 326.993 436.46 329.663 442.055C332.333 447.585 336.973 453.942 342.758 458.138C350.005 463.414 388.02 489.541 394.123 492.275C397.428 493.737 399.145 492.02 400.48 491.194C402.069 490.177 403.594 488.143 405.057 485.536C405.819 484.201 407.027 481.595 407.281 479.688C407.218 477.336 406.074 476.192 405.311 475.556Z" fill="#3448AD"/>
<path d="M316.059 407.981C313.262 403.023 308.685 403.659 305.888 407.791C303.345 411.541 290.567 430.167 285.672 437.796C280.396 446.123 274.357 455.532 271.497 462.779C268.509 470.343 266.093 476.192 263.614 482.422C263.36 482.04 263.169 481.468 263.169 480.705C263.169 477.845 265.902 472.823 267.11 467.673C268.127 463.478 268.763 456.04 271.115 450.764C272.259 448.158 277.472 443.644 279.443 439.067C281.668 433.854 281.731 427.942 284.783 423.111C286.563 420.25 290.949 418.28 292.856 414.72C295.717 409.189 295.335 398.637 299.022 394.95C300.866 395.268 308.113 396.73 309.384 396.984C310.655 397.238 311.545 398.319 311.927 399.145C313.452 402.26 314.152 404.231 315.677 407.155C315.932 407.282 316.059 407.664 316.059 407.981Z" fill="#1F367A"/>
<path d="M361.893 343.903C358.396 332.969 345.746 297.37 342.631 289.742C340.851 285.292 336.401 280.651 331.316 279.507C328.773 278.935 326.739 278.426 325.594 278.236C325.404 278.172 325.34 278.299 325.213 278.49C322.797 281.224 318.983 284.911 318.983 289.297C318.983 293.81 319.873 299.722 322.988 306.079C327.565 315.36 336.719 333.096 339.453 338.373C343.33 345.937 341.423 348.29 334.939 351.595C327.501 355.409 299.022 368.695 296.416 369.522C293.492 370.475 292.538 373.145 293.237 375.752C293.81 377.913 296.734 378.93 299.594 378.358C312.181 375.752 343.33 366.598 354.01 362.847C363.482 359.541 365.135 353.884 361.893 343.903Z" fill="#7FD9EB"/>
<path d="M283.765 243.844C284.973 238.886 291.139 236.089 296.924 235.708C302.9 235.326 308.303 238.568 310.401 242.827C312.372 246.896 312.944 253.634 307.858 263.805C306.65 266.221 307.35 267.365 307.477 270.035C307.54 270.671 307.54 271.116 307.54 271.497C307.795 272.578 307.985 273.595 308.303 274.739C308.939 277.346 311.037 276.901 311.545 278.236C313.452 283.194 303.853 291.267 295.653 291.585C288.025 291.903 288.279 283.194 288.724 281.16C289.105 279.571 290.504 279.316 291.33 278.808C292.602 277.981 292.792 277.219 292.729 275.693C292.729 275.375 292.665 275.057 292.665 274.676C292.474 272.959 292.284 268.7 291.139 267.747C290.186 266.984 289.741 266.666 288.66 265.903C287.707 265.204 286.245 262.534 285.863 260.818C285.291 258.402 285.418 254.079 285.227 251.664C284.782 248.612 283.002 246.959 283.765 243.844Z" fill="#FEC1B5"/>
<path d="M300.548 261.898C300.929 261.453 303.027 258.338 303.281 258.72C303.726 259.419 302.582 263.551 301.501 265.267C300.484 266.856 297.369 270.416 294.127 270.861C293.11 270.988 292.475 271.052 292.093 270.989C291.902 269.59 291.585 268.319 291.012 267.874C290.059 267.111 289.614 266.793 288.533 266.03C288.215 265.776 287.961 265.522 287.77 265.204C291.648 266.348 297.306 265.903 300.548 261.898Z" fill="#E8988C"/>
<path d="M283.766 243.844C283.956 243.145 284.211 242.446 284.592 241.874C284.973 241.556 285.482 241.238 285.99 240.984C290.822 238.695 299.277 239.776 302.646 244.162C304.68 246.832 301.311 247.341 298.959 247.404C296.034 247.468 291.966 247.214 289.105 247.913C287.898 248.231 286.753 248.612 285.99 249.629C285.291 250.583 285.418 251.854 285.164 252.871C285.164 252.426 285.101 252.045 285.101 251.663C284.783 248.612 283.003 246.959 283.766 243.844Z" fill="#E8988C"/>
<path d="M284.719 238.06C286.944 235.199 291.203 232.529 296.162 232.211C303.218 231.766 310.973 234.563 312.054 239.013C312.435 240.729 312.308 242.382 313.389 243.463C316.44 246.578 313.834 253.126 312.88 255.541C311.545 258.91 308.24 265.903 307.032 265.458C306.269 265.204 305.252 262.788 305.316 261.771C305.443 259.546 305.57 257.258 305.951 255.096C306.206 253.507 306.206 253.507 305.443 252.172C305.188 252.744 304.553 254.461 304.553 254.461L302.328 253.443C300.421 250.646 299.467 246.387 299.849 242.192C299.467 241.683 298.577 241.047 298.069 240.857C294.445 239.331 288.152 240.857 285.673 243.082C284.274 244.353 284.21 245.116 284.21 246.196C284.21 246.896 284.655 248.612 283.956 248.421C283.32 248.294 282.558 246.578 282.43 244.162C282.176 242.064 283.702 239.331 284.719 238.06Z" fill="#1E2859"/>
<path d="M304.553 253.38C303.981 255.605 304.616 257.703 306.078 258.084C307.477 258.465 309.13 256.94 309.702 254.715C310.274 252.49 309.638 250.392 308.176 250.011C306.778 249.629 305.125 251.155 304.553 253.38Z" fill="#FEC1B5"/>
<path d="M314.724 252.299C314.533 253.189 313.707 254.842 312.689 253.698C309.829 250.392 307.35 248.294 303.218 245.815C300.548 244.226 298.068 242.891 295.017 242.319C290.885 241.556 286.88 241.81 283.447 243.336C282.875 243.59 282.367 242.954 282.621 242.064C283.638 238.441 285.482 235.644 290.186 232.783C293.682 230.685 301.12 231.385 305.443 232.72C316.44 236.025 316.504 244.607 314.724 252.299Z" fill="#3448AD"/>
<path d="M301.819 244.671C300.929 244.162 298.005 242.954 296.352 242.128C294.636 241.302 293.174 240.348 291.584 239.14C290.186 238.123 289.042 236.152 286.689 234.945C285.291 234.182 284.464 234.182 284.083 234.118C283.892 234.118 284.147 233.864 285.354 234.245C287.834 235.008 291.648 237.042 293.936 237.805C299.975 239.712 302.137 243.272 302.455 244.798C302.391 244.989 302.2 244.861 301.819 244.671Z" fill="#7AC9EB"/>
<path d="M302.137 244.798C298.704 242.891 293.428 241.429 289.614 237.106C285.927 232.974 280.65 233.101 277.345 235.835C275.882 237.043 273.721 239.776 274.675 242.382C275.565 244.735 279.506 246.006 281.731 246.324C282.812 246.451 283.066 246.324 283.447 245.815C284.147 245.052 285.291 243.781 287.325 242.955C290.313 241.81 294.89 242.382 297.75 243.336C298.64 243.59 300.802 244.607 301.692 245.116C302.264 245.37 302.645 245.052 302.137 244.798Z" fill="#1F367A"/>
<path d="M300.357 371.937C299.594 370.729 297.179 369.14 295.589 369.776C287.198 373.526 283.257 370.602 279.633 371.556C277.79 372.001 274.294 375.434 274.739 377.913C275.12 380.265 281.159 387.003 284.973 387.194C288.978 387.385 290.631 384.842 291.712 383.253C292.919 381.536 295.717 379.883 298.386 379.184C300.739 378.676 301.883 374.48 300.357 371.937Z" fill="#E8988C"/>
<path d="M287.643 259.038C287.707 259.419 288.978 259.991 290.568 259.801C292.157 259.546 293.11 258.338 292.983 257.957C292.856 257.639 291.903 258.466 290.313 258.656C288.724 258.911 287.58 258.656 287.643 259.038Z" fill="white"/>
<path d="M164.509 510.583H195.594C196.039 510.583 196.484 510.329 196.675 509.947L284.401 356.681C285.1 355.409 285.1 353.884 284.401 352.612C283.638 351.341 282.367 350.578 280.905 350.578H259.418C256.049 350.578 252.87 352.421 251.154 355.346L163.428 508.612C163.174 508.994 163.174 509.502 163.428 509.884C163.682 510.329 164.064 510.583 164.509 510.583ZM194.831 508.04H166.733L253.379 356.681C254.587 354.519 256.939 353.184 259.418 353.184H280.905C281.667 353.184 282.049 353.693 282.176 353.947C282.303 354.201 282.557 354.773 282.176 355.473L194.831 508.04Z" fill="#1E2859"/>
<path d="M123.824 491.83H135.966V526.729H123.824C116.132 526.729 109.966 518.91 109.966 509.311C109.966 499.712 116.132 491.83 123.824 491.83Z" fill="#3C3C3B"/>
<path d="M135.966 526.73C128.312 526.73 122.108 518.931 122.108 509.312C122.108 499.692 128.312 491.894 135.966 491.894C143.619 491.894 149.824 499.692 149.824 509.312C149.824 518.931 143.619 526.73 135.966 526.73Z" fill="#706F6F"/>
<path d="M135.966 518.211C132.034 518.211 128.846 514.227 128.846 509.311C128.846 504.396 132.034 500.412 135.966 500.412C139.898 500.412 143.086 504.396 143.086 509.311C143.086 514.227 139.898 518.211 135.966 518.211Z" fill="#C6C6C6"/>
<path d="M259.545 385.986C259.863 385.986 260.181 385.859 260.435 385.605C260.944 385.096 260.944 384.333 260.435 383.825L247.594 370.73H275.056L279.125 374.989C279.633 375.497 280.396 375.497 280.905 375.052C281.413 374.544 281.413 373.781 280.968 373.272L276.518 368.568C276.264 368.314 275.946 368.187 275.628 368.187H244.606C244.098 368.187 243.653 368.505 243.462 368.95C243.271 369.395 243.399 369.967 243.716 370.348L258.655 385.605C258.91 385.859 259.227 385.986 259.545 385.986Z" fill="#1E2859"/>
<path d="M198.773 411.351L235.707 449.62L264.758 398.892L227.824 360.686L198.773 411.351Z" fill="#F0C397"/>
<path d="M177.095 360.686H227.824L198.773 411.351H148.044L177.095 360.686Z" fill="url(#paint0_linear_63_311)"/>
<path d="M184.978 449.62H235.707L198.773 411.351H148.044L184.978 449.62Z" fill="#B37A54"/>
<path d="M168.514 464.305L211.932 509.312L246.069 449.62L202.65 404.613L168.514 464.305Z" fill="url(#paint1_linear_63_311)"/>
<path d="M142.958 404.612H202.65L168.513 464.304H108.822L142.958 404.612Z" fill="#CC9068"/>
<path d="M152.24 509.312H211.932L168.514 464.304H108.822L152.24 509.312Z" fill="#B37A54"/>
<path d="M146.836 446.759H169.086L169.722 445.742H147.409L146.836 446.759Z" fill="#F0C397"/>
<path d="M144.929 450.064H167.242L167.814 448.984H145.565L144.929 450.064Z" fill="#F0C397"/>
<path d="M143.086 453.37H165.335L165.971 452.289H143.721L143.086 453.37Z" fill="#F0C397"/>
<path d="M149.188 456.676H163.492L164.064 455.595H149.761L149.188 456.676Z" fill="#F0C397"/>
<path d="M135.966 510.583H221.403C222.103 510.583 222.675 510.011 222.675 509.311C222.675 508.612 222.103 508.04 221.403 508.04H135.966C135.266 508.04 134.694 508.612 134.694 509.311C134.694 510.011 135.266 510.583 135.966 510.583Z" fill="#1E2859"/>
<path d="M164.509 510.583H195.594C196.103 510.583 196.548 510.265 196.739 509.82C196.929 509.375 196.802 508.803 196.484 508.421L171.628 483.121C168.959 480.387 165.208 478.798 161.33 478.798H143.276C141.496 478.798 139.907 479.815 139.208 481.468C138.509 483.121 138.89 484.964 140.098 486.236L163.555 510.138C163.873 510.456 164.191 510.583 164.509 510.583ZM192.543 508.04H165.081L142.005 484.519C141.433 483.947 141.306 483.184 141.624 482.485C141.941 481.786 142.577 481.341 143.34 481.341H161.394C164.572 481.341 167.624 482.612 169.849 484.901L192.543 508.04Z" fill="#1E2859"/>
<path d="M221.467 491.83H233.609V526.729H221.467C213.775 526.729 207.609 518.91 207.609 509.311C207.609 499.712 213.775 491.83 221.467 491.83Z" fill="#3C3C3B"/>
<path d="M233.609 526.73C225.955 526.73 219.751 518.931 219.751 509.312C219.751 499.692 225.955 491.894 233.609 491.894C241.263 491.894 247.467 499.692 247.467 509.312C247.467 518.931 241.263 526.73 233.609 526.73Z" fill="#706F6F"/>
<path d="M233.609 518.211C229.677 518.211 226.489 514.227 226.489 509.311C226.489 504.396 229.677 500.412 233.609 500.412C237.541 500.412 240.729 504.396 240.729 509.311C240.729 514.227 237.541 518.211 233.609 518.211Z" fill="#C6C6C6"/>
<path d="M912.724 440.338C888.695 440.338 869.242 459.79 869.242 483.82C869.242 507.849 888.695 527.301 912.724 527.301H934.91V440.338H912.724Z" fill="#3C3C3B"/>
<path d="M904.177 514.55C887.196 497.569 887.196 470.038 904.177 453.058C921.157 436.077 948.688 436.077 965.668 453.058C982.649 470.038 982.649 497.569 965.668 514.55C948.688 531.53 921.157 531.53 904.177 514.55Z" fill="#575756"/>
<path d="M915.279 503.447C904.431 492.598 904.431 475.009 915.279 464.161C926.128 453.312 943.717 453.312 954.566 464.161C965.414 475.009 965.414 492.598 954.566 503.447C943.717 514.296 926.128 514.296 915.279 503.447Z" fill="#878787"/>
<path d="M860.406 476.064L830.083 473.903C821.501 473.331 814.89 466.147 814.89 457.566V340.407L828.494 185.678C829.574 173.282 839.936 163.81 852.332 163.81H1078.58V476.064H860.406Z" fill="url(#paint2_linear_63_311)"/>
<path d="M983.986 440.338C959.956 440.338 940.504 459.791 940.504 483.82C940.504 507.849 959.956 527.302 983.986 527.302H1006.17V440.338H983.986Z" fill="#3C3C3B"/>
<path d="M915.584 163.81H1078.58V483.438H1059L923.53 473.903C914.949 473.331 908.337 466.147 908.337 457.566V340.407L903.315 185.869C902.997 173.791 906.176 163.81 915.584 163.81Z" fill="url(#paint3_linear_63_311)"/>
<path d="M953.345 476.001V469.39C953.345 440.211 976.993 416.563 1006.17 416.563C1035.35 416.563 1059 440.211 1059 469.39V483.439L953.345 476.001Z" fill="#1E2859"/>
<path d="M953.345 469.453V476.065L1006.17 479.752V440.338H983.986C973.878 440.338 964.597 443.771 957.223 449.556C957.096 449.937 956.905 450.319 956.778 450.7C956.46 451.463 956.206 452.226 955.951 453.052C955.697 453.815 955.443 454.578 955.252 455.341C955.252 455.404 955.188 455.468 955.188 455.532C955.061 455.913 954.998 456.294 954.871 456.676C954.807 456.994 954.68 457.375 954.616 457.693C954.553 457.82 954.553 457.947 954.553 458.138C954.489 458.329 954.489 458.583 954.426 458.774C954.362 458.964 954.362 459.219 954.299 459.409C954.235 459.6 954.235 459.854 954.171 460.045C954.108 460.299 954.108 460.554 954.044 460.744C953.981 460.935 953.981 461.126 953.981 461.316C953.917 461.571 953.917 461.761 953.854 462.016C953.854 462.206 953.79 462.461 953.79 462.651C953.726 463.096 953.663 463.541 953.663 463.986C953.663 464.177 953.599 464.431 953.599 464.622C953.599 464.813 953.599 464.94 953.536 465.131C953.536 465.258 953.536 465.385 953.536 465.448C953.536 465.83 953.472 466.275 953.472 466.656C953.472 466.911 953.472 467.101 953.472 467.355V467.419C953.472 467.8 953.472 468.182 953.472 468.627C953.345 468.945 953.345 469.199 953.345 469.453Z" fill="#3C3C3B"/>
<path d="M999.037 526.7C975.347 522.769 959.329 500.377 963.26 476.687C967.191 452.997 989.583 436.979 1013.27 440.91C1036.96 444.842 1052.98 467.233 1049.05 490.923C1045.12 514.613 1022.73 530.631 999.037 526.7Z" fill="#575756"/>
<path d="M978.799 488.313C976.307 473.175 986.56 458.883 1001.7 456.391C1016.84 453.9 1031.13 464.152 1033.62 479.29C1036.11 494.429 1025.86 508.721 1010.72 511.212C995.582 513.704 981.291 503.452 978.799 488.313Z" fill="#9D9D9C"/>
<path d="M994.602 468.563C994.093 470.788 993.839 473.077 994.03 475.492C994.792 486.49 1003.57 495.39 1014.56 496.28C1016.79 496.47 1019.01 496.343 1021.05 495.898C1022.83 495.517 1024.1 497.678 1022.83 499.013C1018.69 503.527 1012.72 506.387 1006.11 506.324C993.712 506.26 983.541 496.025 983.668 483.629C983.731 476.891 986.783 470.788 991.55 466.72C992.949 465.512 995.047 466.783 994.602 468.563Z" fill="#DADADA"/>
<path d="M790.861 201.125L801.223 340.407C801.731 347.463 801.986 354.583 801.986 361.639V449.81H760.729V351.023V201.125H790.861Z" fill="#367AD1"/>
<path d="M796.01 201.126L809.995 340.407C810.504 347.463 810.758 354.583 810.758 361.639V449.81H772.171V351.023L769.565 201.126H796.01Z" fill="url(#paint4_linear_63_311)"/>
<path d="M820.611 340.407V449.81H902.68V340.407L898.739 201.125H831.355L820.611 340.407Z" fill="url(#paint5_linear_63_311)"/>
<path d="M827.095 201.761H1078.58V200.427H827.223L827.095 201.761Z" fill="#30358C"/>
<path d="M1064.72 456.676H1078.58V455.341H1065.86C1063.64 442.245 1056.45 430.04 1045.71 420.759C1034.52 411.16 1020.47 405.884 1006.17 405.884C997.272 405.884 987.291 408.744 978.01 413.893C969.301 418.725 962.245 425.082 958.558 431.375H908.338V432.71H959.32L959.511 432.392C963.007 426.162 970 419.869 978.646 415.101C987.736 410.079 997.526 407.282 1006.17 407.282C1034.52 407.282 1060.21 428.769 1064.59 456.167L1064.72 456.676Z" fill="#30358C"/>
<path d="M932.43 201.126L922.069 340.407C921.56 347.463 921.306 354.583 921.306 361.639V449.81H962.562V351.023V201.126H932.43Z" fill="#367AD1"/>
<path d="M927.281 201.125L913.296 340.407C912.788 347.463 912.533 354.583 912.533 361.639V449.81H951.184V351.023L953.79 201.125H927.281Z" fill="url(#paint6_linear_63_311)"/>
<path d="M727.927 352.676H902.68V393.551H727.927V352.676Z" fill="#F0C397"/>
<path d="M727.927 393.551H648.083V352.676H727.927V393.551Z" fill="url(#paint7_linear_63_311)"/>
<path d="M639.946 308.304C644.205 316.568 651.897 333.923 655.139 342.886C657.682 349.879 657.046 356.299 655.902 363.419C654.631 371.238 652.278 384.27 650.689 391.707C650.054 394.568 649.863 397.111 646.303 396.984C643.506 396.92 642.362 393.233 642.298 390.817C642.171 385.668 642.362 368.568 641.98 364.754C641.662 361.893 639.628 353.82 637.53 350.451C633.017 343.14 629.902 338.118 624.626 329.473C617.442 317.712 614.709 309.13 617.569 300.04C618.459 297.116 621.701 294.7 624.244 293.619C626.787 292.602 629.139 292.793 629.965 293.111C633.462 294.764 636.767 302.138 639.946 308.304Z" fill="#7FD9EB"/>
<path d="M686.479 366.661C683.618 366.915 644.46 370.285 639.183 370.094C637.912 370.03 635.878 369.331 635.369 367.551C634.606 364.881 635.75 351.722 634.416 344.221C633.081 336.656 624.499 311.8 622.846 302.583C622.019 297.942 621.892 294.955 625.516 293.047C629.076 291.204 639.628 288.153 643.442 287.39C651.071 285.864 659.653 285.038 667.408 285.483C670.968 285.673 675.418 286.309 678.088 288.915C680.313 291.013 681.902 293.874 682.665 296.925C684.254 303.282 685.081 326.422 685.271 331.952C685.462 338.627 686.67 342.695 687.814 347.717C689.022 352.803 689.848 356.172 691.056 361.067C692.01 364.69 690.865 366.28 686.479 366.661Z" fill="#7FD9EB"/>
<path d="M664.039 260.436C663.848 262.725 663.976 266.793 663.403 269.081C663.022 270.671 661.623 273.214 660.733 273.849C659.716 274.612 659.271 274.866 658.381 275.566C657.364 276.456 657.301 279.253 657.11 280.842C656.792 283.703 657.174 284.465 659.208 285.101C659.907 285.292 661.369 285.546 661.56 286.309C661.751 286.945 661.369 289.106 660.352 290.632C658.127 293.937 655.394 297.815 648.592 297.815C644.523 297.815 638.929 293.365 640.264 288.597C640.518 287.644 642.108 286.118 642.235 285.419C642.553 283.13 642.743 279.952 642.87 277.727C642.998 275.184 643.697 274.167 642.489 271.879C637.658 262.28 638.23 255.923 640.073 252.045C642.044 248.04 647.384 244.162 652.978 244.544C658.445 244.925 664.039 248.358 665.183 252.998C666.01 255.986 664.293 257.512 664.039 260.436Z" fill="#FEC1B5"/>
<path d="M661.496 273.086C661.305 273.404 661.051 273.659 660.733 273.913C659.716 274.676 659.335 274.93 658.381 275.629C657.809 276.074 657.555 277.282 657.364 278.617C656.983 278.681 656.411 278.681 655.457 278.553C652.406 278.109 649.418 274.803 648.528 273.277C647.511 271.688 646.366 267.747 646.811 267.111C647.066 266.73 649.036 269.717 649.418 270.099C652.469 273.849 657.873 274.294 661.496 273.086Z" fill="#E8988C"/>
<path d="M599.579 519.038C599.897 522.47 599.516 523.551 595.193 524.06C592.841 524.314 589.98 523.996 588.073 524.187C584.45 524.568 577.203 527.302 571.545 527.302C567.159 527.302 560.42 527.302 561.31 524.06C562.073 521.199 568.43 520.5 571.037 519.546C574.596 518.211 578.156 516.749 581.144 514.397C584.45 511.727 585.912 509.693 587.374 506.324C589.472 501.365 589.79 497.36 593.667 496.915C597.863 496.407 599.262 499.395 598.499 510.011C598.181 512.998 599.325 516.813 599.579 519.038Z" fill="#1E2859"/>
<path d="M765.878 516.749C764.225 518.338 759.076 521.072 756.469 519.8C753.863 518.593 757.995 510.774 757.868 507.595C757.677 503.59 754.817 493.673 752.464 491.258C750.367 489.096 748.142 487.698 745.98 485.727C744.137 484.074 743.501 481.277 744.709 479.815C746.553 477.59 749.095 476.51 752.592 478.734C753.736 479.497 757.359 481.532 759.711 482.866C761.809 484.074 764.034 484.074 767.022 485.346C770.073 486.681 769.628 490.177 769.438 491.258C768.993 493.991 768.675 497.932 768.611 500.285C768.548 504.035 769.438 506.197 769.183 509.947C768.929 512.236 767.785 514.906 765.878 516.749Z" fill="#1E2859"/>
<path d="M647.066 255.414C648.846 250.519 655.902 247.087 661.051 247.404C663.086 248.867 664.675 250.837 665.183 253.062C665.501 254.461 665.31 255.541 664.993 256.558C664.802 256.241 664.548 255.986 664.293 255.732C663.276 254.969 662.068 254.906 660.861 254.969C657.936 255.16 654.249 256.622 651.452 257.385C649.227 258.084 645.922 258.529 647.066 255.414Z" fill="#E8988C"/>
<path d="M657.237 241.556C653.041 240.539 649.291 240.602 645.222 241.874C642.997 242.573 641.09 243.59 639.755 245.052C639.056 245.815 638.23 247.531 638.166 248.803C638.039 250.265 637.785 250.265 636.831 251.218C635.75 252.236 635.877 254.524 635.941 256.622C636.005 259.101 637.085 261.453 638.039 263.805C639.31 266.984 642.298 273.849 643.442 273.404C644.142 273.15 645.159 270.925 645.095 269.908C644.968 267.81 644.841 265.649 644.523 263.615C644.269 262.089 644.269 262.089 644.968 260.881C645.222 261.453 645.794 263.042 645.794 263.042L647.892 262.089C647.701 259.864 647.829 256.304 648.274 254.778C648.909 252.935 650.054 251.282 651.643 250.392C654.885 248.549 660.415 249.057 663.785 251.028C665.12 251.791 665.31 254.27 665.12 255.287C664.992 255.923 664.611 257.703 665.12 257.385C665.628 257.003 666.327 254.715 666.391 253.253C666.518 251.409 666.264 249.502 665.437 247.913C663.785 244.544 660.67 242.382 657.237 241.556Z" fill="#1E2859"/>
<path d="M645.604 261.962C646.176 264.123 645.54 266.094 644.142 266.475C642.807 266.857 641.218 265.395 640.645 263.233C640.073 261.072 640.709 259.101 642.108 258.72C643.506 258.402 645.095 259.8 645.604 261.962Z" fill="#FEC1B5"/>
<path d="M644.142 240.285C648.274 238.886 655.521 237.932 658.954 239.903C663.594 242.573 665.501 245.179 666.582 248.676C666.836 249.566 666.328 250.138 665.819 249.947C662.45 248.549 658.572 248.421 654.567 249.311C651.643 249.947 649.291 251.282 646.748 252.935C642.807 255.478 640.518 257.575 637.785 260.881C636.831 262.025 636.005 260.436 635.814 259.61C633.78 252.108 633.526 243.781 644.142 240.285Z" fill="#3448AD"/>
<path d="M647.511 251.854C647.765 250.392 649.736 246.832 655.521 244.798C657.746 244.035 661.369 241.937 663.721 241.111C664.866 240.729 665.12 240.92 664.929 240.984C664.548 241.047 663.785 241.111 662.386 241.873C660.161 243.145 659.081 245.052 657.746 246.133C656.22 247.34 654.885 248.294 653.232 249.184C651.643 250.01 648.846 251.345 648.02 251.79C647.638 251.981 647.447 252.108 647.511 251.854Z" fill="#7AC9EB"/>
<path d="M647.702 251.854C650.944 249.883 656.029 248.294 659.653 244.035C663.086 239.903 668.235 239.903 671.477 242.382C672.939 243.526 675.1 246.133 674.274 248.676C673.511 250.964 669.697 252.363 667.599 252.68C666.582 252.871 666.328 252.68 665.883 252.235C665.183 251.536 664.039 250.328 662.005 249.629C659.081 248.612 654.631 249.311 651.961 250.328C651.134 250.646 649.1 251.663 648.21 252.172C647.575 252.426 647.193 252.172 647.702 251.854Z" fill="#1F367A"/>
<path d="M686.797 363.991C687.242 365.008 687.687 365.835 688.132 366.407C691.12 365.771 691.882 364.118 691.056 360.94C689.785 356.045 688.958 352.676 687.814 347.59C686.67 342.568 685.462 338.5 685.271 331.825C685.144 328.011 684.699 315.551 683.936 306.27C682.665 303.028 680.503 302.392 676.689 307.096C671.922 312.945 681.139 354.583 686.797 363.991Z" fill="#37C0DB"/>
<path d="M743.374 388.91C740.831 388.974 738.797 388.529 737.399 384.079C736.572 381.409 728.117 355.473 725.447 347.082C723.604 341.297 718.709 335.258 714.386 332.461C708.156 328.392 689.022 317.712 679.868 311.101C672.939 306.143 666.01 302.392 667.472 292.475C668.044 288.47 672.367 286.182 676.562 286.436C680.313 286.69 684.89 287.39 688.005 289.424C696.078 294.764 718.391 315.297 725.892 321.908C732.377 327.566 736 336.211 737.844 344.666C740.196 355.346 744.518 372.891 746.743 383.825C747.57 387.003 745.599 388.847 743.374 388.91Z" fill="#7FD9EB"/>
<path d="M752.782 398.764C751.447 399.018 749.795 398.891 748.968 398.7C746.553 398.128 741.34 396.857 740.45 395.077C739.433 393.043 738.797 389.292 738.161 386.749C737.653 384.588 739.178 382.808 741.531 382.744C744.137 382.681 746.362 385.351 747.697 387.194C750.24 390.69 761.682 393.424 762.445 395.331C763.017 396.793 756.342 398.065 752.782 398.764Z" fill="#E8988C"/>
<path d="M755.134 477.145C750.939 473.903 711.081 442.246 708.411 439.385C705.169 435.952 701.418 429.532 701.037 424.7C700.21 414.656 699.956 395.713 699.002 380.646C698.685 375.942 696.905 371.238 695.442 367.933C694.425 365.644 693.218 364.118 691.438 363.038C687.878 360.94 682.792 360.622 679.486 358.079C676.372 355.664 674.019 352.612 673.13 348.925C671.222 341.36 669.125 327.312 668.171 320.51C667.345 314.343 667.09 304.299 670.142 296.29C671.667 292.348 675.164 288.47 676.435 287.326C677.262 286.563 677.389 286.182 676.689 286.055C675.672 285.801 673.829 285.546 672.812 285.419C671.731 285.292 670.968 285.673 670.205 286.436C668.044 288.47 664.929 293.238 663.658 297.879C662.005 303.918 661.496 310.847 662.068 318.793C656.538 319.175 646.621 319.937 641.281 320.382C638.039 308.431 636.323 297.688 637.467 290.187C637.658 289.043 637.785 288.47 637.085 288.725C636.196 289.043 634.288 289.615 633.144 289.996C632.127 290.314 631.873 291.84 631.746 292.285C630.156 298.006 633.78 315.805 635.941 322.862C636.068 324.705 638.293 340.534 638.611 345.365C638.865 349.752 639.438 354.138 638.103 358.461C637.53 360.368 635.751 363.356 634.479 364.691C632.254 366.979 632.381 367.551 632.127 370.221C631.936 372.192 631.619 380.392 631.619 384.206C628.122 396.158 618.269 417.898 615.027 425.209C609.751 437.16 606.191 448.539 604.284 454.26C600.469 465.639 595.702 479.37 590.298 496.661C589.663 498.823 588.645 501.238 589.726 503.527C590.743 505.815 593.032 507.277 595.066 508.231C598.626 509.884 603.266 510.71 605.364 507.15C606.318 505.561 608.924 499.204 609.751 496.979C614.518 484.71 617.951 476.764 622.846 464.241C625.706 457.057 631.682 447.713 636.895 439.448C641.726 431.884 654.376 413.448 656.919 409.698C659.907 405.312 664.865 404.93 667.535 410.969C670.078 416.691 677.897 438.241 680.631 443.835C683.237 449.302 687.306 454.642 692.963 458.774C700.147 464.05 738.225 489.796 744.328 492.466C747.57 493.928 748.968 493.292 750.303 492.402C751.892 491.385 753.418 489.351 754.817 486.808C755.579 485.473 756.787 482.93 756.978 481.023C757.041 478.925 755.897 477.781 755.134 477.145Z" fill="#3448AD"/>
<path d="M666.772 410.079C663.975 405.184 659.462 405.82 656.728 409.889C654.186 413.639 641.535 432.074 636.704 439.639C631.491 447.903 625.516 457.184 622.655 464.431C619.731 471.933 617.315 477.781 614.836 483.884C614.582 483.502 614.391 482.93 614.391 482.167C614.391 479.307 617.125 474.348 618.332 469.199C619.349 465.004 619.985 457.693 622.337 452.48C623.481 449.874 628.631 445.424 630.538 440.847C632.763 435.698 632.826 429.849 635.814 425.018C637.594 422.158 641.98 420.25 643.824 416.691C646.684 411.16 646.239 400.798 649.99 397.111C651.834 397.429 658.953 398.827 660.288 399.145C661.56 399.4 662.45 400.417 662.831 401.243C664.357 404.358 664.993 406.329 666.582 409.189C666.645 409.38 666.709 409.761 666.772 410.079Z" fill="#1F367A"/>
<path d="M590.107 496.788C595.066 480.769 599.516 467.801 603.203 456.994C606.318 460.172 618.332 469.453 619.985 460.617C620.366 458.583 621.638 456.04 622.782 456.231C624.053 456.485 624.88 457.312 625.388 458.583C624.308 460.617 623.418 462.588 622.719 464.431C617.824 476.891 614.391 484.901 609.623 497.17C608.797 499.331 606.19 505.688 605.237 507.341C603.139 510.901 598.498 510.074 594.939 508.422C592.904 507.468 590.616 506.006 589.599 503.717C588.454 501.365 589.408 498.886 590.107 496.788Z" fill="#1F367A"/>
<path d="M628.758 520.563C626.914 522.089 621.511 524.695 618.968 523.488C616.425 522.28 621.384 514.906 621.511 511.854C621.702 508.04 619.731 498.568 617.57 496.216C615.662 494.118 613.501 492.783 611.53 490.94C609.814 489.351 609.433 486.681 610.768 485.282C612.865 483.121 615.535 482.104 618.841 484.265C619.922 484.964 623.354 486.935 625.643 488.206C627.677 489.351 629.966 489.351 632.826 490.622C635.751 491.893 634.988 495.199 634.67 496.28C633.971 498.886 633.208 502.7 632.953 504.925C632.508 508.549 633.271 510.583 632.572 514.143C632.318 516.304 630.856 518.911 628.758 520.563Z" fill="#1E2859"/>
<path d="M509.374 519.038C509.565 522.471 509.12 523.551 504.797 524.06C502.445 524.314 499.584 523.996 497.614 524.187C493.927 524.568 486.68 527.302 480.958 527.302C476.509 527.302 469.834 527.302 470.851 524.06C471.741 521.199 478.098 520.5 480.768 519.546C484.391 518.211 488.015 516.749 491.066 514.397C494.499 511.727 495.961 509.629 497.55 506.324C498.249 504.925 500.029 502.382 502.636 501.683C507.912 500.285 509.31 502.51 508.484 510.011C508.23 512.935 509.247 516.749 509.374 519.038Z" fill="#1E2859"/>
<path d="M577.267 355.663C576.885 362.783 574.915 367.424 566.651 367.932C558.831 368.377 538.298 368.632 533.086 368.377C525.648 367.996 521.007 365.262 519.355 358.27C517.32 349.561 515.223 295.908 515.922 290.695C516.367 287.389 517.893 283.893 524.059 281.732C527.937 280.397 540.587 278.808 549.741 278.426C557.433 278.108 566.269 279.316 571.99 280.46C578.856 281.859 580.382 283.512 580.509 290.822C580.699 295.399 577.839 344.284 577.267 355.663Z" fill="#7FD9EB"/>
<path d="M532.45 244.416C533.658 239.14 539.061 236.661 543.638 235.962C548.724 235.199 555.271 237.996 558.069 242.128C560.484 245.688 561.692 250.901 556.734 260.881C555.526 263.297 555.716 266.602 556.034 269.145C556.352 271.688 556.606 273.595 556.988 275.82C557.433 278.553 559.213 278.236 559.531 279.253C560.993 284.275 550.949 292.221 542.43 291.903C534.484 291.585 535.438 282.749 536.073 280.778C536.582 279.189 538.108 279.062 538.934 278.617C541.032 277.536 540.968 276.328 540.841 272.514C540.778 269.908 540.841 267.238 539.951 266.857C538.807 266.348 538.425 266.221 537.345 265.458C536.391 264.822 535.628 263.614 535.183 262.597C534.23 260.372 534.039 255.541 533.848 253.189C533.658 250.265 531.751 247.404 532.45 244.416Z" fill="#FEC1B5"/>
<path d="M462.587 385.732C461.506 383.189 462.142 381.219 465.257 378.485C467.291 376.705 487.951 359.923 494.499 354.265C498.249 351.023 502.191 344.475 503.335 339.58C504.924 332.461 508.738 311.101 511.027 300.676C512.934 292.221 514.333 284.275 523.868 281.923C527.682 280.969 532.005 284.465 533.213 288.28C534.293 291.776 534.357 296.48 533.531 299.976C531.433 309.194 520.245 336.91 516.812 346.128C513.824 354.074 507.848 360.431 500.729 365.135C491.193 371.429 477.78 380.901 468.308 386.431C465.638 388.02 463.286 387.321 462.587 385.732Z" fill="#7FD9EB"/>
<path d="M580.127 303.536C579.301 320.064 577.712 347.526 577.267 355.663C577.267 355.854 577.267 356.045 577.203 356.235C576.44 356.68 575.296 356.871 573.579 356.68C567.159 355.981 562.582 350.832 560.675 347.971C556.416 341.614 556.416 329.155 556.606 323.179C556.67 321.145 556.988 315.042 557.56 313.962C559.213 310.847 560.484 320.319 560.357 325.404C560.293 328.519 560.611 335.957 561.628 338.69C562.455 340.915 564.108 340.915 565.125 338.754C567.35 333.986 566.269 310.084 569.193 306.842C571.482 304.426 576.313 302.583 580.127 303.536Z" fill="#37C0DB"/>
<path d="M621.257 481.659C615.917 475.747 591.697 447.522 588.773 444.025C583.751 438.113 580.826 430.231 580.826 421.649C580.763 408.045 580.826 365.707 581.081 360.813C581.144 359.35 581.017 355.918 580.572 355.155C579.428 353.184 578.411 355.218 575.614 355.473C570.592 355.854 567.795 353.184 565.379 351.277C558.323 345.683 558.513 336.847 558.259 328.583C558.132 324.006 558.068 316.695 558.259 312.69C558.895 300.358 559.975 293.302 563.599 288.216C566.332 284.402 569.511 281.795 573.071 281.223C574.151 281.033 574.279 280.778 573.643 280.588C573.071 280.397 569.956 279.761 568.812 279.761C565.379 279.761 561.247 282.813 558.132 287.453C554.953 292.221 553.301 300.485 552.474 310.465C546.372 310.465 537.281 310.465 531.433 310.465C530.924 299.659 532.195 287.39 533.785 282.304C534.42 280.27 534.929 279.316 534.039 279.443C533.213 279.57 530.924 279.888 530.288 279.952C529.271 280.079 529.144 280.27 528.572 281.795C526.283 288.152 525.457 304.617 525.203 313.453C525.076 318.284 524.122 335.258 523.868 340.725C523.677 344.666 523.677 348.289 521.961 351.976C520.88 354.265 518.592 355.536 517.066 356.49C515.54 357.38 515.159 358.588 515.032 360.304C514.396 366.915 514.015 375.879 512.87 379.629C511.408 384.397 510.2 388.02 507.785 393.742C503.208 404.421 498.186 413.321 493.927 423.492C490.176 432.519 490.367 440.593 491.257 450.001C492.274 461.126 495.452 495.707 496.088 504.353C496.342 508.294 501.936 508.421 505.687 508.803C514.332 509.629 513.125 504.162 513.379 499.204C513.633 493.927 513.887 472.505 513.951 466.656C514.205 454.832 516.049 450.064 518.846 443.008C522.787 432.837 535.056 410.842 537.154 406.773C537.917 405.248 539.76 401.243 542.494 401.497C545.672 401.751 545.736 403.913 546.88 407.6C548.342 412.177 553.173 430.993 554.953 437.033C557.56 445.805 562.073 450.827 564.68 453.434C572.054 460.935 598.562 486.553 608.797 495.898C611.403 498.314 613.12 497.742 616.235 496.025C617.887 495.072 622.274 491.194 623.672 488.842C625.452 485.981 624.181 484.964 621.257 481.659Z" fill="#3448AD"/>
<path d="M545.863 404.612C545.291 402.832 544.528 401.815 542.43 401.625C539.697 401.37 537.853 405.375 537.09 406.901C534.993 410.969 522.724 432.964 518.782 443.136C516.049 450.192 514.142 454.959 513.951 466.783C513.887 471.678 513.633 487.761 513.442 495.835C511.917 494.563 510.9 490.114 510.963 487.698C511.027 484.837 511.853 478.925 511.726 472.695C511.599 465.639 508.675 460.172 509.883 454.26C510.836 449.493 514.523 445.678 515.413 440.656C516.43 435.062 516.049 430.549 518.401 425.272C519.736 422.158 523.804 419.488 525.139 415.61C527.174 409.698 524.567 401.434 528.572 394.632C530.416 394.632 538.997 395.204 540.523 395.395C541.795 395.585 542.875 396.475 543.193 397.302C544.147 399.717 544.655 400.925 545.609 403.404C545.609 403.595 545.736 404.104 545.863 404.612Z" fill="#1F367A"/>
<path d="M489.667 382.871C488.523 382.045 484.773 383.253 483.183 383.888C481.213 384.715 471.105 387.13 468.244 386.686C465.257 386.241 463.477 385.668 462.396 386.113C461.252 386.558 458.01 387.385 460.107 388.783C462.332 390.309 467.927 393.869 469.961 395.077C470.914 395.649 472.567 396.412 473.775 396.285C476.381 396.03 478.861 395.649 480.513 395.395C482.293 395.077 484.455 392.534 486.171 390.945C489.922 387.258 492.019 384.651 489.667 382.871Z" fill="#E8988C"/>
<path d="M599.77 338.817C597.037 327.693 590.552 303.6 587.501 294.764C586.039 290.505 584.768 284.402 580.699 283.067C577.203 281.859 575.105 280.906 572.944 282.622C565.887 288.407 568.43 295.844 570.337 303.155C572.753 312.754 578.22 329.409 580 335.83C581.971 342.886 578.411 349.243 575.296 352.485C569.956 358.016 545.354 381.536 543.511 383.253C540.396 386.05 539.951 387.83 540.905 390.309C541.35 391.58 544.019 392.661 546.372 391.135C555.017 385.605 582.416 367.233 590.87 361.003C599.134 354.837 603.012 352.167 599.77 338.817Z" fill="#7FD9EB"/>
<path d="M547.134 384.969C546.244 383.825 544.019 382.998 542.621 383.888C536.391 387.83 525.393 385.033 521.834 386.113C520.626 386.495 517.447 387.385 519.545 388.783C521.77 390.309 527.364 393.869 529.398 395.077C530.352 395.649 532.005 396.412 533.213 396.284C535.819 396.03 538.298 395.649 539.951 395.394C541.731 395.077 543.829 392.852 545.672 391.453C547.579 390.055 548.914 387.321 547.134 384.969Z" fill="#E8988C"/>
<path d="M532.45 244.416C533.022 241.747 534.738 239.839 536.773 238.441C541.35 238.314 546.626 240.03 548.978 243.463C550.822 246.26 547.452 246.578 545.1 246.514C542.176 246.387 538.171 245.879 535.247 246.387C534.23 246.578 533.276 246.832 532.514 247.468C532.259 246.451 532.196 245.434 532.45 244.416Z" fill="#E8988C"/>
<path d="M561.12 243.209C560.611 241.874 559.721 241.047 559.34 239.585C558.132 235.072 551.139 232.148 545.799 232.656C542.939 232.91 534.039 234.818 531.56 241.874C530.797 244.035 531.496 247.595 531.814 248.167C532.386 249.121 532.704 248.231 532.64 247.786C532.64 247.023 532.45 245.243 532.958 243.972C533.276 243.145 534.103 241.81 535.565 241.302C537.917 240.539 541.222 240.666 543.574 241.175C544.782 241.429 545.799 242.637 545.927 243.844C546.181 245.879 546.689 248.549 547.961 250.519C549.359 252.617 552.665 253.761 552.665 253.761C552.792 252.935 553.11 252.236 553.491 251.854C554.826 253.253 554.063 258.91 554 261.135C553.936 262.153 553.936 264.695 554.763 264.886C555.653 265.14 556.225 263.805 556.67 262.915C560.166 256.558 563.281 248.612 561.12 243.209Z" fill="#1E2859"/>
<path d="M562.2 250.964C562.01 251.854 561.247 253.443 560.23 252.299C557.433 249.057 555.081 247.086 551.076 244.671C548.469 243.145 546.054 241.874 543.13 241.302C539.125 240.539 535.247 240.793 531.941 242.319C531.369 242.573 530.861 241.937 531.115 241.111C532.068 237.614 533.848 234.881 538.425 232.084C541.795 230.05 549.042 230.749 553.237 232.02C563.917 235.135 563.98 243.463 562.2 250.964Z" fill="#3448AD"/>
<path d="M549.677 243.526C548.851 243.018 545.99 241.873 544.337 241.047C542.621 240.221 541.286 239.331 539.697 238.186C538.362 237.169 537.217 235.326 534.929 234.118C533.594 233.419 532.831 233.355 532.386 233.292C532.195 233.292 532.45 233.037 533.594 233.419C536.01 234.182 539.697 236.152 541.922 236.851C547.77 238.695 549.868 242.128 550.186 243.653C550.313 243.844 550.122 243.717 549.677 243.526Z" fill="#7AC9EB"/>
<path d="M550.059 243.654C546.753 241.81 541.604 240.412 537.917 236.216C534.357 232.211 529.208 232.338 526.029 234.945C524.631 236.089 522.469 238.759 523.423 241.302C524.249 243.527 528.127 244.798 530.225 245.116C531.242 245.243 531.496 245.116 531.941 244.607C532.577 243.845 533.721 242.637 535.755 241.874C538.616 240.793 543.066 241.365 545.863 242.255C546.753 242.51 548.787 243.527 549.677 243.972C550.186 244.226 550.567 243.908 550.059 243.654Z" fill="#1F367A"/>
<path d="M553.173 252.808C552.411 254.778 552.792 257.003 554.127 257.194C555.271 257.321 556.797 256.05 557.623 254.27C558.513 252.299 558.768 250.392 556.86 249.947C555.017 249.566 553.873 250.837 553.173 252.808Z" fill="#FEC1B5"/>
<path d="M549.677 265.076C550.058 264.632 552.347 261.517 552.665 261.898C553.173 262.597 552.029 267.047 550.885 268.764C549.804 270.353 547.261 273.658 543.257 273.913C542.303 273.976 541.604 273.913 540.968 273.849C540.968 273.468 540.968 273.023 540.904 272.514C540.841 271.243 540.841 269.908 540.777 268.827C544.019 268.827 547.452 267.683 549.677 265.076Z" fill="#E8988C"/>
<path d="M546.117 269.654C542.812 271.434 537.663 271.624 535.819 270.035C533.403 267.937 532.704 260.69 533.403 258.91C534.166 257.003 536.137 256.876 538.425 257.575C540.714 258.211 542.303 260.245 545.227 258.656C546.753 257.83 548.533 253.634 549.55 251.218C549.931 250.265 552.538 250.773 552.538 251.791C552.729 256.622 554.254 265.331 546.117 269.654Z" fill="#1E2859"/>
<path d="M535.31 261.835C535.374 262.152 536.582 262.724 538.044 262.534C539.506 262.343 540.46 261.199 540.332 260.881C540.205 260.563 539.315 261.326 537.79 261.517C536.391 261.707 535.31 261.517 535.31 261.835Z" fill="white"/>
<path d="M477.335 319.492H544.782V386.94H477.335V319.492Z" fill="#F0C397"/>
<path d="M477.389 386.928H462.005V319.481H477.389V386.928Z" fill="#CC9068"/>
<path d="M512.235 365.517H533.403V366.597H512.235V365.517Z" fill="white"/>
<path d="M512.235 368.886H533.403V369.966H512.235V368.886Z" fill="white"/>
<path d="M512.235 372.255H533.403V373.336H512.235V372.255Z" fill="white"/>
<path d="M512.234 375.624H525.838V376.705H512.234V375.624Z" fill="white"/>
<defs>
<linearGradient id="paint0_linear_63_311" x1="252.635" y1="346.571" x2="133.487" y2="419.223" gradientUnits="userSpaceOnUse">
<stop stop-color="#F0C397"/>
<stop offset="1" stop-color="#CC9068"/>
</linearGradient>
<linearGradient id="paint1_linear_63_311" x1="284.493" y1="394.724" x2="114.243" y2="531.985" gradientUnits="userSpaceOnUse">
<stop stop-color="#F0C397"/>
<stop offset="1" stop-color="#CC9068"/>
</linearGradient>
<linearGradient id="paint2_linear_63_311" x1="946.743" y1="611.282" x2="946.743" y2="206.849" gradientUnits="userSpaceOnUse">
<stop stop-color="#30358C"/>
<stop offset="0.236" stop-color="#303990"/>
<stop offset="0.4805" stop-color="#31469D"/>
<stop offset="0.7289" stop-color="#335AB1"/>
<stop offset="0.9785" stop-color="#3677CE"/>
<stop offset="1" stop-color="#367AD1"/>
</linearGradient>
<linearGradient id="paint3_linear_63_311" x1="1084.37" y1="167.174" x2="910.515" y2="468.307" gradientUnits="userSpaceOnUse">
<stop stop-color="#7AC9EB"/>
<stop offset="0.2201" stop-color="#76C5EA"/>
<stop offset="0.4481" stop-color="#6CB8E6"/>
<stop offset="0.6798" stop-color="#5AA4DF"/>
<stop offset="0.9126" stop-color="#4187D5"/>
<stop offset="1" stop-color="#367AD1"/>
</linearGradient>
<linearGradient id="paint4_linear_63_311" x1="790.158" y1="201.116" x2="790.158" y2="449.824" gradientUnits="userSpaceOnUse">
<stop stop-color="#C8E9F7"/>
<stop offset="0.2215" stop-color="#C4E7F6"/>
<stop offset="0.451" stop-color="#B7E2F4"/>
<stop offset="0.6843" stop-color="#A3DAF1"/>
<stop offset="0.9186" stop-color="#86CEED"/>
<stop offset="1" stop-color="#7AC9EB"/>
</linearGradient>
<linearGradient id="paint5_linear_63_311" x1="924.262" y1="437.355" x2="735.542" y2="110.482" gradientUnits="userSpaceOnUse">
<stop stop-color="#1E2859"/>
<stop offset="0.1478" stop-color="#202E62"/>
<stop offset="0.3887" stop-color="#253F7A"/>
<stop offset="0.6929" stop-color="#2D5AA2"/>
<stop offset="1" stop-color="#367AD1"/>
</linearGradient>
<linearGradient id="paint6_linear_63_311" x1="933.123" y1="201.115" x2="933.123" y2="528.523" gradientUnits="userSpaceOnUse">
<stop stop-color="#C8E9F7"/>
<stop offset="0.2215" stop-color="#C4E7F6"/>
<stop offset="0.451" stop-color="#B7E2F4"/>
<stop offset="0.6843" stop-color="#A3DAF1"/>
<stop offset="0.9186" stop-color="#86CEED"/>
<stop offset="1" stop-color="#7AC9EB"/>
</linearGradient>
<linearGradient id="paint7_linear_63_311" x1="727.911" y1="373.132" x2="648.081" y2="373.132" gradientUnits="userSpaceOnUse">
<stop stop-color="#CC9068"/>
<stop offset="0.3978" stop-color="#C88C65"/>
<stop offset="0.8093" stop-color="#BB815B"/>
<stop offset="1" stop-color="#B37A54"/>
</linearGradient>
</defs>
</svg>
