<svg width="16" height="24" viewBox="0 0 16 24" fill="none" xmlns="http://www.w3.org/2000/svg">
<path d="M7.99999 11.4962C10.1694 11.4962 11.9343 9.7315 11.9343 7.56241C11.9343 5.39332 10.1694 3.62866 7.99999 3.62866C5.83061 3.62866 4.06567 5.39332 4.06567 7.56241C4.06567 9.7315 5.83061 11.4962 7.99999 11.4962ZM7.99999 5.03472C9.39396 5.03472 10.5281 6.16868 10.5281 7.56241C10.5281 8.95619 9.394 10.0901 7.99999 10.0901C6.60597 10.0901 5.47192 8.95619 5.47192 7.56241C5.47192 6.16868 6.60602 5.03472 7.99999 5.03472Z" fill="#3448AD"/>
<path d="M3.71619 14.6311C4.78189 16.0738 4.35373 15.5128 7.42334 19.8953C7.70234 20.2952 8.29564 20.2971 8.57623 19.896C11.6597 15.4926 11.2355 16.0503 12.2838 14.6311C13.3458 13.1933 14.444 11.7067 15.0457 9.9645C15.9167 7.44258 15.5402 4.94728 13.9857 2.93822C13.9857 2.93822 13.9857 2.93817 13.9856 2.93817C12.5616 1.09838 10.324 0 8 0C5.67598 0 3.43836 1.09838 2.01434 2.93827C0.459828 4.94733 0.0833277 7.44267 0.954359 9.96459C1.55605 11.7067 2.65423 13.1934 3.71619 14.6311ZM3.1265 3.7987C4.28609 2.30053 6.10798 1.40606 8 1.40606C9.89201 1.40606 11.7139 2.30053 12.8735 3.7987L12.8734 3.79866C14.1281 5.42016 14.4275 7.44694 13.7165 9.50559C13.1849 11.0444 12.1518 12.4431 11.1526 13.7958C10.3747 14.8489 10.6075 14.5268 8 18.2645C5.3952 14.5305 5.62508 14.8486 4.84737 13.7958C3.84823 12.4431 2.81506 11.0444 2.28355 9.50559C1.57255 7.44689 1.87189 5.42016 3.1265 3.7987Z" fill="#3448AD"/>
<path d="M4.29372 17.6796C4.08635 17.3514 3.6521 17.2533 3.32379 17.4607L1.32457 18.7234C0.888441 18.9988 0.88802 19.6364 1.32457 19.9121L7.62457 23.8912C7.85393 24.0361 8.14624 24.0361 8.37555 23.8912L14.6756 19.9121C15.1117 19.6367 15.1121 18.9991 14.6756 18.7234L12.6763 17.4607C12.3479 17.2533 11.9137 17.3514 11.7064 17.6796C11.499 18.0079 11.597 18.4421 11.9253 18.6494L12.9835 19.3177L8.00004 22.4653L3.01661 19.3177L4.07477 18.6494C4.40308 18.4421 4.5011 18.0079 4.29372 17.6796Z" fill="#3448AD"/>
</svg>
