<?xml version="1.0" encoding="UTF-8" standalone="no"?>
<svg
   width="743.19702"
   height="533.48499"
   viewBox="0 0 743.19702 533.48499"
   fill="none"
   version="1.1"
   id="svg353"
   sodipodi:docname="bg_paking2.svg"
   inkscape:version="1.1.2 (0a00cf5339, 2022-02-04)"
   xmlns:inkscape="http://www.inkscape.org/namespaces/inkscape"
   xmlns:sodipodi="http://sodipodi.sourceforge.net/DTD/sodipodi-0.dtd"
   xmlns="http://www.w3.org/2000/svg"
   xmlns:svg="http://www.w3.org/2000/svg">
  <sodipodi:namedview
     id="namedview355"
     pagecolor="#ffffff"
     bordercolor="#666666"
     borderopacity="1.0"
     inkscape:pageshadow="2"
     inkscape:pageopacity="0.0"
     inkscape:pagecheckerboard="0"
     showgrid="false"
     inkscape:lockguides="false"
     fit-margin-top="0"
     fit-margin-left="0"
     fit-margin-right="0"
     fit-margin-bottom="0"
     inkscape:zoom="1.405"
     inkscape:cx="197.5089"
     inkscape:cy="145.90747"
     inkscape:window-width="1920"
     inkscape:window-height="1022"
     inkscape:window-x="0"
     inkscape:window-y="0"
     inkscape:window-maximized="1"
     inkscape:current-layer="svg353" />
  <mask
     id="mask0_1113_2"
     maskUnits="userSpaceOnUse"
     x="0"
     y="0"
     width="570"
     height="600">
    <rect
       width="570"
       height="600"
       fill="#c4c4c4"
       id="rect2"
       x="0"
       y="0" />
  </mask>
  <g
     mask="url(#mask0_1113_2)"
     id="g5"
     transform="translate(0,-40)" />
  <g
     clip-path="url(#clip0_1113_2)"
     id="g139"
     transform="translate(0,-40)">
    <path
       d="m 584.113,284.106 c -21.166,0 -38.372,17.202 -38.372,38.363 0,21.161 17.206,38.363 38.372,38.363 h 19.595 v -76.726 z"
       fill="#3c3c3b"
       id="path7" />
    <path
       d="m 603.64,360.832 c -21.192,0 -38.372,-17.175 -38.372,-38.363 0,-21.187 17.18,-38.363 38.372,-38.363 21.192,0 38.371,17.176 38.371,38.363 0,21.188 -17.179,38.363 -38.371,38.363 z"
       fill="#3c3c3b"
       id="path9" />
    <path
       d="m 603.64,347.043 c -13.575,0 -24.58,-11.002 -24.58,-24.574 0,-13.572 11.005,-24.574 24.58,-24.574 13.575,0 24.579,11.002 24.579,24.574 0,13.572 -11.004,24.574 -24.579,24.574 z"
       fill="#575756"
       id="path11" />
    <path
       d="m 646.995,284.106 c -21.165,0 -38.371,17.202 -38.371,38.363 0,21.161 17.206,38.363 38.371,38.363 h 19.596 v -76.726 z"
       fill="#3c3c3b"
       id="path13" />
    <path
       d="m 296.191,284.106 c -21.166,0 -38.371,17.202 -38.371,38.363 0,21.161 17.205,38.363 38.371,38.363 h 19.595 v -76.726 z"
       fill="#3c3c3b"
       id="path15" />
    <path
       d="m 315.786,360.832 c -21.192,0 -38.371,-17.175 -38.371,-38.363 0,-21.187 17.179,-38.363 38.371,-38.363 21.192,0 38.372,17.176 38.372,38.363 0,21.188 -17.18,38.363 -38.372,38.363 z"
       fill="#3c3c3b"
       id="path17" />
    <path
       d="m 315.786,347.043 c -13.575,0 -24.579,-11.002 -24.579,-24.574 0,-13.572 11.004,-24.574 24.579,-24.574 13.575,0 24.58,11.002 24.58,24.574 0,13.572 -11.005,24.574 -24.58,24.574 z"
       fill="#575756"
       id="path19" />
    <path
       d="m 359.074,284.106 c -21.166,0 -38.372,17.202 -38.372,38.363 0,21.161 17.206,38.363 38.372,38.363 h 19.595 v -76.726 z"
       fill="#3c3c3b"
       id="path21" />
    <path
       d="m 249.968,315.575 -26.764,-1.912 c -7.579,-0.546 -13.451,-6.826 -13.451,-14.403 V 195.843 L 221.838,59.3182 C 222.794,48.3963 231.875,40 242.867,40 h 227.429 v 275.575 z"
       fill="url(#paint0_linear_1113_2)"
       id="path23"
       style="fill:url(#paint0_linear_1113_2)" />
    <path
       d="M 298.717,40 H 645.22 c 9.695,0 18.298,6.1436 21.507,15.2907 l 53.87,156.3203 c 1.912,5.598 4.984,10.786 8.876,15.223 l 8.057,9.147 c 3.618,4.164 5.667,9.557 5.667,15.086 v 60.139 c 0,6.007 -4.916,10.922 -10.924,10.922 H 425.302 L 305.75,313.732 c -7.579,-0.547 -13.451,-6.827 -13.451,-14.404 V 195.843 L 287.861,59.4547 C 287.588,48.8058 290.387,40 298.717,40 Z"
       fill="url(#paint1_linear_1113_2)"
       id="path25"
       style="fill:url(#paint1_linear_1113_2)" />
    <path
       d="m 332.036,315.575 v -5.803 c 0,-25.735 20.893,-46.623 46.633,-46.623 25.74,0 46.633,20.888 46.633,46.623 v 12.356 z"
       fill="#1e2859"
       id="path27" />
    <path
       d="m 332.036,309.772 v 5.803 l 46.633,3.276 v -34.745 h -19.595 c -8.945,0 -17.138,3.072 -23.624,8.123 -0.137,0.341 -0.273,0.683 -0.41,1.024 -0.273,0.682 -0.478,1.365 -0.751,2.048 -0.205,0.682 -0.409,1.365 -0.614,2.048 0,0.068 0,0.068 -0.068,0.136 -0.069,0.341 -0.205,0.683 -0.274,1.024 -0.068,0.273 -0.136,0.614 -0.204,0.887 0,0.137 -0.069,0.273 -0.069,0.342 -0.068,0.205 -0.068,0.409 -0.136,0.546 -0.069,0.205 -0.069,0.409 -0.137,0.546 -0.068,0.205 -0.068,0.41 -0.136,0.546 -0.069,0.205 -0.069,0.41 -0.137,0.614 0,0.137 -0.068,0.342 -0.068,0.478 0,0.205 -0.068,0.41 -0.068,0.615 0,0.204 -0.069,0.409 -0.069,0.546 -0.068,0.409 -0.068,0.819 -0.136,1.228 0,0.205 -0.069,0.342 -0.069,0.547 0,0.136 0,0.273 -0.068,0.409 0,0.068 0,0.205 0,0.273 0,0.341 -0.068,0.683 -0.068,1.024 0,0.205 0,0.41 0,0.614 v 0.069 c 0,0.341 0,0.682 0,1.024 0.068,0.477 0.068,0.682 0.068,0.955 z"
       fill="#3c3c3b"
       id="path29" />
    <path
       d="m 378.669,360.832 c -21.192,0 -38.371,-17.175 -38.371,-38.363 0,-21.187 17.179,-38.363 38.371,-38.363 21.192,0 38.371,17.176 38.371,38.363 0,21.188 -17.179,38.363 -38.371,38.363 z"
       fill="#575756"
       id="path31" />
    <path
       d="m 378.669,347.043 c -13.575,0 -24.58,-11.002 -24.58,-24.574 0,-13.572 11.005,-24.574 24.58,-24.574 13.575,0 24.58,11.002 24.58,24.574 0,13.572 -11.005,24.574 -24.58,24.574 z"
       fill="#9d9d9c"
       id="path33" />
    <path
       d="m 368.427,309.021 c -0.478,1.912 -0.614,3.96 -0.477,6.076 0.682,9.693 8.398,17.543 18.093,18.362 1.98,0.137 3.892,0.069 5.735,-0.341 1.57,-0.341 2.663,1.57 1.57,2.73 -3.618,4.028 -8.944,6.485 -14.747,6.485 -10.925,-0.068 -19.869,-9.078 -19.801,-20.069 0.069,-6.007 2.732,-11.331 6.965,-14.949 1.229,-1.024 3.072,0.136 2.662,1.706 z"
       fill="#dadada"
       id="path35" />
    <path
       d="m 619.958,322.128 v -12.356 c 0,-25.735 20.892,-46.623 46.633,-46.623 25.74,0 46.632,20.888 46.632,46.623 v 12.356 z"
       fill="#1e2859"
       id="path37" />
    <path
       d="m 619.958,309.772 v 12.356 h 46.633 v -38.022 h -19.596 c -8.944,0 -17.137,3.072 -23.623,8.123 -2.185,5.393 -3.414,11.331 -3.414,17.543 z"
       fill="#3c3c3b"
       id="path39" />
    <path
       d="m 666.591,360.832 c -21.192,0 -38.372,-17.175 -38.372,-38.363 0,-21.187 17.18,-38.363 38.372,-38.363 21.191,0 38.371,17.176 38.371,38.363 0,21.188 -17.18,38.363 -38.371,38.363 z"
       fill="#575756"
       id="path41" />
    <path
       d="m 666.591,347.043 c -13.575,0 -24.58,-11.002 -24.58,-24.574 0,-13.572 11.005,-24.574 24.58,-24.574 13.575,0 24.579,11.002 24.579,24.574 0,13.572 -11.004,24.574 -24.579,24.574 z"
       fill="#9d9d9c"
       id="path43" />
    <path
       d="m 656.349,309.021 c -0.478,1.912 -0.614,3.96 -0.478,6.076 0.683,9.693 8.398,17.543 18.093,18.362 1.98,0.137 3.892,0.069 5.736,-0.341 1.57,-0.341 2.662,1.57 1.57,2.73 -3.619,4.028 -8.944,6.485 -14.748,6.485 -10.924,-0.068 -19.868,-9.078 -19.8,-20.069 0.068,-6.007 2.731,-11.331 6.964,-14.949 1.161,-1.024 3.004,0.136 2.663,1.706 z"
       fill="#dadada"
       id="path45" />
    <path
       d="m 588.551,73.5168 h 1.297 V 299.192 h -1.297 z"
       fill="#30358c"
       id="path47" />
    <path
       d="m 602.274,218.301 h 25.809 v -6.895 h -25.809 z m 24.58,-1.297 h -23.282 v -4.369 h 23.282 z"
       fill="#30358c"
       id="path49" />
    <path
       d="m 666.591,254.548 h 39.259 c 2.867,0 5.189,-2.321 5.189,-5.188 v -31.742 h -1.298 v 31.742 c 0,2.185 -1.775,3.891 -3.891,3.891 h -39.328 v 1.297 z"
       fill="#30358c"
       id="path51" />
    <path
       d="m 449.267,299.806 h 165.502 l 0.068,-0.546 c 3.892,-25.052 26.628,-44.712 51.754,-44.712 v -1.297 c -12.7,0 -25.126,4.847 -35.095,13.653 -9.558,8.464 -15.84,19.659 -17.82,31.605 H 449.267 Z"
       fill="#30358c"
       id="path53" />
    <path
       d="m 430.491,299.806 h 18.776 v -1.297 h -17.684 c -1.98,-11.946 -8.33,-23.209 -17.82,-31.605 -9.9,-8.806 -22.395,-13.653 -35.094,-13.653 -7.92,0 -16.796,2.594 -24.989,7.304 -7.716,4.437 -13.929,10.24 -17.206,15.974 h -44.107 v 1.297 h 44.858 l 0.205,-0.342 c 3.141,-5.665 9.285,-11.468 16.932,-15.837 8.057,-4.641 16.728,-7.167 24.375,-7.167 25.126,0 47.862,19.659 51.754,44.712 z"
       fill="#30358c"
       id="path55" />
    <path
       d="m 219.312,72.8341 v 1.297 h 453.901 l -0.478,-1.297 z"
       fill="#30358c"
       id="path57" />
    <path
       d="M 596.471,175.569 V 79.8652 c 0,-3.4814 2.867,-6.3484 6.349,-6.3484 h 57.762 c 2.8,0 5.258,1.7748 6.077,4.437 l 40.556,129.5622 c 1.434,4.573 -2.526,9.078 -7.237,8.123 L 616.407,199.665 C 604.8,197.481 596.471,187.378 596.471,175.569 Z"
       fill="url(#paint2_linear_1113_2)"
       id="path59"
       style="fill:url(#paint2_linear_1113_2)" />
    <path
       d="m 602.82,100.89 h 21.166 c 3.004,0 5.599,2.048 6.213,4.983 l 20.074,91.198 c 0.955,4.437 -2.936,8.465 -7.443,7.646 l -26.423,-5.052 c -11.538,-2.184 -19.936,-12.355 -19.936,-24.096 v -68.331 c 0,-3.481 2.867,-6.348 6.349,-6.348 z"
       fill="#367ad1"
       id="path61" />
    <path
       d="m 707.856,207.323 3.187,10.16 -1.237,0.388 -3.188,-10.16 z"
       fill="#30358c"
       id="path63" />
    <path
       d="m 701.207,216.39 c 1.98,0 3.823,-0.82 5.189,-2.321 1.638,-1.843 2.185,-4.369 1.434,-6.758 L 667.205,77.749 c -0.887,-2.9353 -3.619,-4.9149 -6.691,-4.9149 v 1.297 c 2.526,0 4.711,1.6383 5.462,4.0275 L 706.601,207.72 c 0.614,1.912 0.136,4.028 -1.161,5.53 -1.366,1.501 -3.346,2.184 -5.326,1.843 l -83.57,-16.042 -0.273,1.229 83.57,16.041 c 0.478,0.069 0.888,0.069 1.366,0.069 z"
       fill="#30358c"
       id="path65" />
    <path
       d="m 679.427,217.687 h 10.241 c 1.502,0 2.731,-1.229 2.731,-2.731 v -36.588 c 0,-1.502 -1.229,-2.731 -2.731,-2.731 h -10.241 c -1.502,0 -2.731,1.229 -2.731,2.731 v 36.588 c 0,1.502 1.229,2.731 2.731,2.731 z"
       fill="#c8e9f7"
       id="path67" />
    <path
       d="m 188.587,72.9024 9.149,122.9406 c 0.478,6.212 0.683,12.492 0.683,18.772 v 77.819 H 162.028 V 205.195 72.9024 Z"
       fill="#367ad1"
       id="path69" />
    <path
       d="m 193.094,72.9024 12.358,122.9406 c 0.478,6.212 0.683,12.492 0.683,18.772 v 77.819 h -34.07 V 205.195 L 169.743,72.9024 Z"
       fill="url(#paint3_linear_1113_2)"
       id="path71"
       style="fill:url(#paint3_linear_1113_2)" />
    <path
       d="m 214.874,195.843 v 96.591 h 72.373 V 195.843 L 283.97,79.046 c -0.069,-3.4131 -2.936,-6.2119 -6.35,-6.2119 h -47.384 c -3.346,0 -6.077,2.5257 -6.35,5.8706 z"
       fill="url(#paint4_linear_1113_2)"
       id="path73"
       style="fill:url(#paint4_linear_1113_2)" />
    <path
       d="m 313.533,72.9024 -9.149,122.9406 c -0.478,6.212 -0.683,12.492 -0.683,18.772 v 77.819 h 36.392 V 205.195 72.9024 Z"
       fill="url(#paint5_linear_1113_2)"
       id="path75"
       style="fill:url(#paint5_linear_1113_2)" />
    <path
       d="M 309.027,72.9024 296.669,195.843 c -0.478,6.212 -0.683,12.492 -0.683,18.772 v 77.819 h 34.07 v -87.239 l 2.321,-132.2926 z"
       fill="url(#paint6_linear_1113_2)"
       id="path77"
       style="fill:url(#paint6_linear_1113_2)" />
    <path
       d="m 731.931,292.161 h 11.266 v 11.468 h -11.266 z"
       fill="#ffffff"
       id="path79" />
    <path
       d="m 729.951,239.326 0.956,4.505 c 0.683,3.14 1.024,6.417 1.024,9.625 v 21.093 c 0,1.502 1.229,2.73 2.731,2.73 h 8.535 v -26.212 c 0,-5.529 -2.049,-10.854 -5.667,-15.018 h -4.916 c -1.775,-0.068 -3.073,1.57 -2.663,3.277 z"
       fill="#c8e9f7"
       id="path81" />
    <path
       d="m 699.432,276.597 h 43.765 v 1.297 h -42.536 c -0.41,-0.41 -0.82,-0.888 -1.229,-1.297 z"
       fill="#30358c"
       id="path83" />
    <path
       d="m 1.50963,349.296 c -0.47793,-3.14 0.20485,-4.915 -0.06826,-8.055 -0.20483,-1.979 -0.750992,-5.256 -1.228928,-7.577 -0.20482977,-0.956 -0.819336,-3.823 1.775178,-4.983 2.52624,-1.092 4.50621,-1.092 6.34968,-2.116 2.0483,-1.092 5.1208,-2.799 6.0766,-3.413 2.9359,-1.912 5.2574,-1.024 7.0326,0.887 1.0924,1.161 0.751,3.55 -0.8194,4.915 -1.7752,1.638 -3.6869,2.799 -5.4621,4.642 -1.9801,2.048 -3.96,10.376 -3.8918,13.721 0,2.662 4.1649,9.147 1.9118,10.239 -2.2531,1.024 -6.96421,-1.229 -8.53457,-2.594 -1.70692,-1.502 -2.86769,-3.823 -3.1408,-5.666 z"
       fill="#1e2859"
       id="path85" />
    <path
       d="m 110.411,345.678 c -0.478,-6.553 0.819,-8.533 5.393,-7.304 2.254,0.615 3.824,2.799 4.37,4.028 1.297,2.867 2.526,4.71 5.462,7.099 2.595,2.048 5.735,3.345 8.876,4.505 2.322,0.888 7.852,1.502 8.535,3.959 0.751,2.867 -5.121,2.867 -8.944,2.867 -4.985,0 -11.334,-2.389 -14.475,-2.73 -1.707,-0.205 -4.233,0.136 -6.281,-0.137 -3.756,-0.477 -4.165,-1.433 -3.824,-4.437 0.068,-1.911 1.092,-5.256 0.888,-7.85 z"
       fill="#1e2859"
       id="path87" />
    <path
       d="m 53.6048,153.588 c 0.3414,-6.416 1.7069,-7.85 7.7835,-9.079 5.0525,-1.023 12.8359,-2.047 19.5953,-1.774 8.0566,0.273 19.0494,1.706 22.3944,2.867 5.326,1.911 6.623,4.915 6.896,7.85 0.478,4.573 -2.867,51.606 -4.984,59.251 -1.639,6.076 -5.8035,8.533 -12.2897,8.806 -4.5745,0.205 -22.5995,0 -29.4272,-0.409 -7.2373,-0.41 -8.8076,-4.506 -8.9442,-10.718 -0.1365,-9.966 -1.2289,-52.834 -1.0241,-56.794 z"
       fill="#5edfeb"
       id="path89" />
    <path
       d="m 149.328,237.346 c -8.125,-4.847 -19.595,-13.175 -27.788,-18.704 -6.145,-4.164 -11.198,-9.761 -13.519,-16.656 -2.731,-8.055 -11.7435,-32.356 -13.3138,-40.411 -0.6145,-3.14 -0.4097,-7.236 0.6144,-10.308 1.1607,-3.344 5.0524,-6.416 8.3984,-5.597 8.261,2.048 9.285,9.011 10.719,16.383 1.775,9.147 4.438,27.851 5.667,34.131 0.819,4.3 4.097,10.035 7.306,12.902 5.598,4.983 23.145,19.659 24.92,21.229 2.663,2.389 3.141,4.164 2.117,6.348 -0.751,1.434 -2.868,2.048 -5.121,0.683 z"
       fill="#5edfeb"
       id="path91" />
    <path
       d="m 64.2558,166.899 c 2.9359,2.458 -0.6145,9.967 0.6145,15.428 1.5703,7.031 -0.9559,9.147 0.8876,13.311 0.8193,1.911 2.2531,1.911 3.0724,-0.068 0.9559,-2.39 1.5021,-8.943 1.5021,-11.605 0.0683,-4.505 1.4338,-12.765 2.7993,-10.035 0.478,0.888 0.5463,6.281 0.5463,8.055 0,5.188 -0.3414,16.179 -4.3015,21.708 -1.7752,2.457 -5.94,6.963 -11.5387,7.645 -1.5021,0.205 -2.458,0 -3.1407,-0.341 0,-0.205 0,-0.341 0,-0.546 -0.1366,-7.168 -0.7511,-31.196 -0.9559,-45.736 3.2773,-0.819 8.398,0.41 10.5146,2.184 z"
       fill="#16bbd1"
       id="path93" />
    <path
       d="m 12.434,320.763 c 4.8476,-5.188 26.901,-29.968 29.5638,-32.971 4.5745,-5.188 7.3738,-12.083 7.6469,-19.591 0.478,-11.878 1.6386,-49.081 1.5704,-53.313 0,-1.297 0.2048,-4.301 0.6145,-4.915 1.0924,-1.707 1.8434,0.068 4.3696,0.273 4.3697,0.341 6.896,-1.98 9.0808,-3.686 6.3497,-4.847 6.418,-12.629 6.8959,-19.864 0.2732,-4.028 0.5463,-10.445 0.478,-13.926 -0.2048,-10.785 -0.9559,-16.997 -3.9601,-21.434 -2.3214,-3.345 -4.9841,-5.598 -8.0566,-6.144 -0.9559,-0.136 -1.0241,-0.341 -0.4779,-0.546 0.4779,-0.137 3.209,-0.751 4.2331,-0.751 3.0042,0 6.5546,2.662 9.1491,6.758 2.6628,4.232 3.8235,11.4 4.3014,20.137 5.3938,0 13.3139,0 18.4346,0 0.7511,-9.488 0,-20.205 -1.2972,-24.711 -0.478,-1.774 -0.8876,-2.593 -0.1366,-2.525 0.6828,0.068 2.7311,0.341 3.2773,0.478 0.8876,0.136 1.0241,0.273 1.4338,1.57 1.8432,5.529 2.0482,20 1.9802,27.782 0,4.233 0.273,19.114 0.341,23.96 0.068,3.414 -0.068,6.622 1.366,9.83 0.887,2.048 2.799,3.14 4.165,3.959 1.297,0.751 1.57,1.843 1.706,3.345 0.342,5.803 0.41,13.653 1.366,16.929 1.161,4.164 2.117,7.373 4.097,12.356 3.687,9.352 7.851,17.134 11.334,26.076 3.004,7.918 2.594,14.949 1.57,23.209 -1.229,9.762 -4.984,40.07 -5.804,47.647 -0.341,3.413 -5.257,3.618 -8.534,3.891 -7.579,0.751 -6.418,-4.027 -6.418,-8.396 -0.068,-4.574 0.341,-23.414 0.409,-28.534 0.137,-10.376 -1.365,-14.54 -3.55,-20.683 -3.141,-8.874 -13.2455,-28.193 -15.0207,-31.742 -0.6145,-1.365 -2.1166,-4.847 -4.5745,-4.642 -2.7994,0.205 -2.8677,2.116 -4.0284,5.324 -1.4338,4.028 -6.2131,20.479 -7.92,25.804 -2.5262,7.713 -6.6228,12.082 -9.0125,14.403 -6.6911,6.553 -30.6561,29.011 -39.9417,37.203 -2.3897,2.116 -3.8918,1.638 -6.5546,0.136 -1.4338,-0.819 -5.189,-4.232 -6.3497,-6.28 -1.50204,-2.594 -0.40967,-3.481 2.2531,-6.416 z"
       fill="#3448ad"
       id="path95" />
    <path
       d="m 81.1201,252.159 c 0.8876,-2.184 1.3655,-3.208 2.3214,-5.324 0.3414,-0.751 1.2973,-1.502 2.3897,-1.639 1.2972,-0.204 8.8759,-0.682 10.5145,-0.682 3.2773,6.007 0.7511,13.174 2.3897,18.362 1.0241,3.345 4.5066,5.734 5.5986,8.465 1.844,4.642 1.434,8.601 2.117,13.516 0.614,4.368 3.687,7.782 4.438,11.946 0.887,5.187 -1.844,9.966 -2.117,16.178 -0.273,5.461 0.273,10.649 0.205,13.174 0,2.116 -1.024,6.007 -2.39,7.1 0.068,-7.031 0.342,-21.162 0.41,-25.462 0.136,-10.376 -1.366,-14.54 -3.551,-20.684 -3.14,-8.874 -13.2451,-28.192 -15.0203,-31.742 -0.6145,-1.365 -2.1166,-4.846 -4.5746,-4.641 -1.9117,0.136 -2.5262,1.023 -3.1407,2.593 0.2049,-0.477 0.3414,-0.887 0.4097,-1.16 z"
       fill="#1f367a"
       id="path97" />
    <path
       d="m 138.404,287.451 1.502,-19.933 h -5.803 v 19.933 z"
       fill="#e68922"
       id="path99" />
    <path
       d="m 91.2934,287.451 1.5704,-19.933 h -5.8036 v 19.933 z"
       fill="#e68922"
       id="path101" />
    <path
       d="m 94.3657,193.931 h 34.3433 c 2.048,0 3.823,1.366 4.37,3.345 l 5.735,22.117 h -34.343 l -5.7356,-22.117 c -0.4779,-1.979 -2.3214,-3.345 -4.3697,-3.345 z"
       fill="#ffd980"
       id="path103" />
    <path
       d="m 97.0968,112.221 c -1.0925,-4.368 -6.4863,-6.826 -11.5388,-7.167 -5.2572,-0.341 -9.9683,2.457 -11.8118,6.212 -1.7069,3.549 -2.2531,9.488 2.2532,18.431 1.0924,2.116 0.5462,3.003 0.2048,5.324 -0.0683,0.546 -0.6828,3.413 -0.8876,4.369 -0.751,3.208 -2.1848,2.389 -2.6628,3.549 -1.7069,4.369 6.9642,10.786 14.1332,11.059 6.6911,0.273 6.4863,-7.372 6.0766,-9.147 -0.3414,-1.365 -1.5703,-1.639 -2.2531,-2.048 -1.1607,-0.751 -1.2972,-1.365 -1.229,-2.731 0,-0.273 0.0683,-0.546 0.0683,-0.887 0.1366,-1.502 0.3414,-5.256 1.2973,-6.075 0.8193,-0.683 1.2289,-0.956 2.1848,-1.639 0.8193,-0.614 2.1166,-2.935 2.458,-4.437 0.5462,-2.116 0.4096,-5.87 0.6144,-8.055 0.1366,-2.662 1.7069,-4.095 1.0925,-6.758 z"
       fill="#fec1b5"
       id="path105" />
    <path
       d="m 93.5464,130.789 c -0.2048,0.273 -0.4097,0.546 -0.6828,0.751 -0.8876,0.682 -1.2972,0.955 -2.1848,1.638 -0.478,0.41 -0.8193,1.502 -0.9559,2.73 -0.3414,0.069 -0.8876,0.069 -1.7752,-0.068 -2.7993,-0.409 -5.5987,-3.481 -6.4863,-4.915 -0.9558,-1.501 -1.98,-5.119 -1.5703,-5.734 0.2048,-0.341 2.1166,2.389 2.3897,2.799 2.8676,3.55 7.8518,3.959 11.2656,2.799 z"
       fill="#e8988c"
       id="path107" />
    <path
       d="m 95.9361,119.048 c 0,0.341 -0.0683,0.682 -0.0683,1.024 -0.2731,-0.888 -0.0683,-1.98 -0.751,-2.867 -0.6828,-0.888 -1.7069,-1.297 -2.7311,-1.502 -2.5262,-0.615 -6.0766,-0.341 -8.6711,-0.478 -2.1166,-0.068 -5.0524,-0.546 -3.209,-2.867 2.9359,-3.823 10.378,-4.778 14.6112,-2.73 0.4779,0.204 0.8876,0.477 1.2289,0.819 0.3414,0.546 0.5463,1.16 0.7511,1.774 0.6145,2.663 -0.9559,4.096 -1.1607,6.827 z"
       fill="#e8988c"
       id="path109" />
    <path
       d="m 96.2091,107.102 c -1.98,-2.526 -5.6669,-4.847 -10.0366,-5.12 -6.2132,-0.409 -12.9726,2.048 -13.9284,5.939 -0.3414,1.502 -0.2049,2.935 -1.1607,3.891 -2.6628,2.73 -0.4097,8.464 0.4779,10.581 1.1607,2.935 4.0966,9.147 5.1207,8.737 0.6145,-0.273 1.5704,-2.321 1.5021,-3.208 -0.1365,-1.912 -0.2048,-3.959 -0.5462,-5.871 -0.2048,-1.365 -0.2048,-1.433 0.4097,-2.526 0.2048,0.478 0.751,1.98 0.751,1.98 l 1.98,-0.887 c 1.6387,-2.458 2.5263,-6.212 2.1849,-9.83 0.3414,-0.478 1.0924,-0.956 1.5703,-1.161 3.209,-1.365 8.7394,0 10.9243,1.912 1.2289,1.092 1.2972,1.775 1.2972,2.73 0,0.615 -0.3414,2.116 0.2049,1.98 0.5462,-0.137 1.229,-1.638 1.2972,-3.755 0.2049,-1.911 -1.1607,-4.3 -2.0483,-5.392 z"
       fill="#1e2859"
       id="path111" />
    <path
       d="m 78.7987,120.549 c 0.5462,1.98 -0.0683,3.823 -1.2972,4.096 -1.229,0.341 -2.6628,-1.024 -3.209,-2.935 -0.5462,-1.98 0.0683,-3.823 1.2972,-4.096 1.2973,-0.341 2.7311,0.956 3.209,2.935 z"
       fill="#fec1b5"
       id="path113" />
    <path
       d="m 78.0476,102.392 c 3.8235,-1.161 10.3781,-1.775 13.3822,0.068 4.1649,2.526 5.7352,4.983 6.6228,8.123 0.2048,0.819 -0.2731,1.365 -0.751,1.092 -3.0042,-1.365 -6.4863,-1.57 -10.1049,-0.887 -2.6628,0.478 -4.8476,1.638 -7.169,3.072 -3.6187,2.184 -5.8035,4.027 -8.3297,6.894 -0.8876,1.024 -1.5704,-0.409 -1.7752,-1.229 -1.5704,-6.689 -1.5704,-14.266 8.1248,-17.133 z"
       fill="#3448ad"
       id="path115" />
    <path
       d="m 80.7786,112.972 c 0.2731,-1.365 2.1849,-4.505 7.4421,-6.143 2.0483,-0.615 5.3939,-2.389 7.5104,-3.072 1.0242,-0.341 1.229,-0.137 1.0925,-0.137 -0.3414,0.069 -1.0924,0.069 -2.3214,0.751 -2.0483,1.092 -3.0725,2.799 -4.3015,3.686 -1.4338,1.024 -2.6627,1.844 -4.1648,2.594 -1.5021,0.751 -4.0283,1.775 -4.7794,2.253 -0.4096,0.205 -0.5462,0.273 -0.4779,0.068 z"
       fill="#7ac9eb"
       id="path117" />
    <path
       d="m 80.9153,112.972 c 3.0042,-1.706 7.647,-2.935 10.9925,-6.758 3.209,-3.618 7.9201,-3.481 10.7192,-1.16 1.297,1.024 3.209,3.481 2.322,5.734 -0.751,2.048 -4.234,3.208 -6.1452,3.413 -0.9559,0.137 -1.1608,0 -1.5021,-0.478 -0.6145,-0.682 -1.6387,-1.775 -3.4139,-2.457 -2.5945,-0.956 -6.6228,-0.478 -9.149,0.341 -0.7511,0.273 -2.6628,1.092 -3.4821,1.57 -0.4779,0.273 -0.7511,0.068 -0.3414,-0.205 z"
       fill="#1f367a"
       id="path119" />
    <path
       d="m 93.6831,125.533 c -0.0683,0.341 -1.1608,0.887 -2.5263,0.682 -1.3655,-0.205 -2.2531,-1.297 -2.1166,-1.638 0.1366,-0.273 0.9559,0.409 2.3214,0.614 1.3656,0.205 2.3897,0 2.3215,0.342 z"
       fill="#ffffff"
       id="path121" />
    <path
       d="m 134.99,172.907 c 0.82,-2.663 3.278,-4.506 6.077,-4.506 h 146.248 v 50.992 H 138.882 l -5.735,-22.117 c -0.546,-1.979 -2.322,-3.345 -4.37,-3.345 h -0.136 z"
       fill="url(#paint7_linear_1113_2)"
       id="path123"
       style="fill:url(#paint7_linear_1113_2)" />
    <path
       d="M 97.1649,219.393 H 287.247 V 243.49 H 97.0967 c -2.5262,0 -4.5063,-2.048 -4.5063,-4.506 v -15.017 c 0.0683,-2.526 2.0483,-4.574 4.5745,-4.574 z"
       fill="url(#paint8_linear_1113_2)"
       id="path125"
       style="fill:url(#paint8_linear_1113_2)" />
    <path
       d="m 85.7628,193.931 h 8.6029 c 2.0483,0 3.8234,1.366 4.3696,3.345 l 5.7357,22.117 h -3.346 v 24.097 h 186.122 v 24.096 H 101.125 85.6945 c -2.5262,0 -4.5062,-2.048 -4.5062,-4.505 v -64.576 c 0.0683,-2.594 2.0483,-4.574 4.5745,-4.574 z"
       fill="#feb840"
       id="path127" />
    <path
       d="m 93.4098,221.441 c -0.4779,0.683 -0.751,1.57 -0.751,2.457 v 15.018 c 0,2.526 2.0482,4.505 4.5062,4.505 h 190.082 v 11.468 H 81.1883 v -17.611 z"
       fill="url(#paint9_linear_1113_2)"
       id="path129"
       style="fill:url(#paint9_linear_1113_2)" />
    <path
       d="m 85.7628,193.453 h 8.6029 33.8653 l 6.281,-20.683 c 0.888,-2.867 3.482,-4.847 6.486,-4.847 h 146.249 v 0.956 H 140.998 c -2.594,0 -4.847,1.638 -5.598,4.164 l -6.145,20.41 c 2.048,0.205 3.823,1.639 4.301,3.687 l 0.069,0.273 h -0.956 c -0.478,-1.775 -2.049,-3.004 -3.892,-3.004 H 128.64 97.3016 c 0.8876,0.683 1.5703,1.638 1.9117,2.799 l 5.6667,21.776 h 3.278 30.109 0.956 9.832 138.192 v 0.955 H 97.0967 c -2.2531,0 -4.0283,1.843 -4.0283,4.028 v 15.017 c 0,2.253 1.8435,4.028 4.0283,4.028 v 0.956 c -2.731,0 -4.9841,-2.253 -4.9841,-4.984 v -15.017 c 0,-2.731 2.2531,-4.983 4.9841,-4.983 h 6.7593 l -5.5986,-21.503 c -0.4779,-1.775 -2.0482,-3.004 -3.8917,-3.004 h -8.6029 c -2.2531,0 -4.0283,1.843 -4.0283,4.028 v 64.576 c 0,2.253 1.8435,4.027 4.0283,4.027 v 0.956 c -2.731,0 -4.9841,-2.253 -4.9841,-4.983 v -64.576 c 0,-2.799 2.2531,-5.052 4.9841,-5.052 z"
       fill="#ffffff"
       id="path131" />
    <path
       d="M 97.1649,219.393 H 287.247 v 4.71 H 97.0967 c -2.5262,0 -4.5063,2.048 -4.5063,4.506 v -4.506 -0.205 c 0.0683,-2.457 2.0483,-4.505 4.5745,-4.505 z"
       fill="#ffd980"
       id="path133" />
    <path
       d="m 80.2326,243.08 c -6.3497,-6.143 -21.0291,-20.205 -27.0375,-27.032 -4.5745,-5.051 -9.4904,-10.103 -8.8759,-18.431 0.8876,-11.126 3.0041,-30.854 4.5745,-38.977 0.751,-3.891 1.1607,-9.42 4.5062,-11.195 2.8677,-1.57 4.5746,-2.731 6.6229,-1.502 6.7594,3.959 5.4621,10.854 4.711,17.475 -0.9558,8.669 -3.4138,25.871 -3.7552,31.742 -0.2048,4.028 2.0483,10.444 4.1649,13.789 3.5504,5.598 17.8202,26.076 19.1174,27.783 2.1166,2.867 2.1849,4.505 0.8876,6.485 -0.6827,1.024 -3.209,1.57 -4.9159,-0.137 z"
       fill="#5edfeb"
       id="path135" />
    <path
       d="m 80.7104,237.756 c 0.9559,-0.819 2.8676,-0.956 4.0966,-0.137 1.5021,1.024 4.7794,2.935 6.6911,4.096 1.7752,1.092 3.6186,1.229 5.6669,0.956 2.6628,-0.342 4.301,-0.274 5.121,0.273 0.887,0.614 3.55,1.774 1.434,2.662 -2.185,0.956 -7.7157,3.072 -9.6957,3.754 -0.9558,0.342 -2.4579,0.683 -3.5504,0.41 -2.1848,-0.615 -4.3014,-1.365 -5.5986,-1.912 -1.5021,-0.546 -2.8676,-2.867 -4.1649,-4.3 -1.3655,-1.57 -1.98,-4.096 0,-5.802 z"
       fill="#fec1b5"
       id="path137" />
  </g>
  <path
     d="m 204.785,435.461 c -3.345,10.512 -10.378,16.724 -23.555,19.932 -19.937,4.915 -49.091,2.663 -56.533,1.092 -6.213,-1.296 -13.314,-2.184 -17.069,-7.031 -3.482,-4.505 -1.844,-9.829 5.394,-12.628 8.603,-3.413 36.596,-2.594 44.994,-9.079 6.349,-4.915 9.285,-19.182 16.318,-31.605 5.735,-10.103 14.884,-19.387 23.692,-18.226 15.635,1.979 13.382,36.93 6.759,57.545 z"
     fill="url(#paint10_linear_1113_2)"
     id="path141"
     style="fill:url(#paint10_linear_1113_2)" />
  <path
     d="m 204.785,435.461 c -3.345,10.512 -10.378,16.724 -23.555,19.932 -19.937,4.915 -49.091,2.662 -56.533,1.092 -6.213,-1.297 -13.314,-2.184 -17.069,-7.031 -1.093,-1.433 -1.707,-3.003 -1.775,-4.505 -0.069,-3.14 1.707,-4.642 6.349,-2.253 5.326,2.799 21.371,5.461 36.87,4.915 14.747,-0.546 31.202,-5.87 37.074,-13.174 8.193,-10.171 8.739,-24.233 6.213,-31.947 -1.98,-6.007 -7.715,-11.673 -7.237,-16.11 0.682,-6.758 6.418,-9.352 12.904,-8.533 15.635,2.048 13.382,36.998 6.759,57.614 z"
     fill="url(#paint11_linear_1113_2)"
     id="path143"
     style="fill:url(#paint11_linear_1113_2)" />
  <path
     d="m 204.785,435.461 c -3.345,10.512 -10.378,16.724 -23.555,19.932 -19.937,4.915 -49.091,2.663 -56.533,1.093 -6.213,-1.297 -13.314,-2.185 -17.069,-7.032 -0.683,-0.955 -1.229,-1.911 -1.502,-2.867 0.478,-1.297 2.116,-1.57 3.004,-1.092 3.414,1.98 11.88,4.028 26.013,4.301 20.483,0.341 40.283,-1.502 49.774,-7.577 14.816,-9.421 17.683,-25.735 18.912,-37.545 1.161,-11.195 0.751,-21.161 -6.554,-25.53 -1.297,-0.75 -1.297,-1.228 0.751,-1.297 15.635,2.048 13.382,36.999 6.759,57.614 z"
     fill="url(#paint12_linear_1113_2)"
     id="path145"
     style="fill:url(#paint12_linear_1113_2)" />
  <path
     d="m 205.263,435.597 c 4.78,-14.949 8.193,-41.23 0.751,-52.835 -1.98,-3.14 -4.643,-4.915 -7.92,-5.392 -6.964,-0.888 -13.245,4.3 -17.342,8.805 l 0.683,0.615 c 5.53,-6.144 11.402,-9.147 16.454,-8.465 2.936,0.41 5.394,2.048 7.238,4.915 3.96,6.212 4.369,16.383 4.028,23.892 -0.41,9.352 -2.185,19.591 -4.916,28.124 -3.141,9.83 -9.422,15.632 -20.619,18.977 l -0.274,0.068 c -0.751,0.205 -1.502,0.41 -2.321,0.614 -0.273,0.069 -0.614,0.137 -0.888,0.205 -0.136,0 -0.273,0.068 -0.341,0.068 -0.205,0.069 -0.41,0.069 -0.614,0.137 h -0.069 c -12.972,2.799 -29.359,2.867 -41.17,2.116 l -0.615,-0.068 c -2.321,-0.137 -4.506,-0.341 -6.486,-0.546 l -0.41,-0.068 c -2.389,-0.274 -4.37,-0.547 -5.667,-0.82 -0.683,-0.136 -1.434,-0.273 -2.185,-0.409 -5.598,-1.092 -11.402,-2.253 -14.611,-6.417 -2.458,-3.208 -2.116,-6.758 0.888,-9.42 l -0.615,-0.751 c -3.413,3.004 -3.823,7.099 -1.024,10.717 3.414,4.437 9.422,5.666 15.226,6.758 0.751,0.137 1.434,0.273 2.185,0.41 1.297,0.273 3.277,0.546 5.667,0.819 l -17.343,75.839 h 4.097 l 10.651,-38.5 16.113,-14.608 -12.221,53.108 h 4.096 l 10.583,-38.5 12.427,-11.263 11.197,8.942 12.972,40.753 h 4.097 l -14.679,-53.722 16.249,12.969 12.973,40.753 h 4.097 L 184.166,455.12 c 11.334,-3.413 17.888,-9.488 21.097,-19.523 z m -37.961,38.978 -2.936,-2.321 -4.302,-13.516 c 1.844,-0.068 3.619,-0.205 5.326,-0.341 l 3.96,14.403 z m 2.321,-0.751 0.887,3.345 -2.457,-1.98 z m -23.965,-1.706 -9.559,-7.646 1.639,-5.939 c 3.345,0.205 7.032,0.342 10.924,0.41 z m 13.45,-13.38 1.571,4.983 -3.278,2.936 -2.731,-2.185 1.571,-5.666 c 0.956,0 1.911,0 2.867,-0.068 z m 3.96,12.424 -4.847,-3.891 2.799,-2.526 z m -8.671,-5.666 2.322,1.843 -3.756,3.413 z m -1.912,6.963 4.985,-4.505 6.076,4.846 1.297,4.028 -6.213,5.597 -7.305,-5.87 z m 12.427,1.433 1.707,1.366 -0.956,0.887 z m 1.434,-15.632 c 3.687,-0.341 7.305,-0.819 10.719,-1.433 l 2.185,6.894 -9.081,8.328 z m -50.047,74.201 h -2.117 l 17.138,-74.542 c 1.229,0.136 2.594,0.273 4.028,0.341 h 0.068 c 0.41,0 0.888,0.069 1.298,0.069 h 0.068 z m 11.88,-39.25 7.647,-27.715 9.627,7.714 -1.297,5.529 z m 6.759,39.25 h -2.116 l 16.932,-73.586 c 1.844,0 3.687,0 5.531,-0.069 z m 11.812,-39.25 4.302,-15.633 6.896,5.461 z m 12.631,-10.103 5.804,-5.256 4.233,13.174 z m 26.287,49.353 h -2.117 l -17.615,-55.36 1.434,-1.297 3.618,2.867 z m -13.86,-54.268 -1.366,-5.12 9.218,-8.328 8.397,26.349 z m 11.402,-22.8 21.097,77.068 h -2.116 l -24.17,-75.839 c 0.478,-0.137 1.024,-0.205 1.502,-0.341 h 0.068 c 0.615,-0.137 1.161,-0.273 1.707,-0.41 0.342,-0.068 0.751,-0.205 1.093,-0.273 0.136,0 0.273,-0.068 0.341,-0.068 0.205,-0.068 0.341,-0.068 0.478,-0.137 z"
     fill="#30358c"
     id="path147" />
  <path
     d="M 140.537,482.834 H 81 v 50.583 h 59.537 z"
     fill="#f0c397"
     id="path149" />
  <path
     d="m 140.562,533.463 h 13.587 v -50.582 h -13.587 z"
     fill="#c28655"
     id="path151" />
  <path
     d="m 263.093,482.834 h -79.542 v 50.583 h 79.542 z"
     fill="#e3a86d"
     id="path153" />
  <path
     d="m 263.15,533.463 h 21.029 V 482.881 H 263.15 Z"
     fill="#c28655"
     id="path155" />
  <path
     d="m 245.273,500.719 h -79.542 l 17.82,-17.885 h 79.542 z"
     fill="#f0c397"
     id="path157" />
  <path
     d="m 279.616,500.719 h 21.098 l -16.523,-17.885 h -21.098 z"
     fill="#e6b78a"
     id="path159" />
  <path
     d="m 253.671,515.327 h -21.712 v 0.956 h 21.712 z"
     fill="#ffffff"
     id="path161" />
  <path
     d="m 253.671,518.263 h -21.712 v 0.955 h 21.712 z"
     fill="#ffffff"
     id="path163" />
  <path
     d="m 253.671,521.266 h -21.712 v 0.956 h 21.712 z"
     fill="#ffffff"
     id="path165" />
  <path
     d="m 245.888,524.27 h -13.929 v 0.955 h 13.929 z"
     fill="#ffffff"
     id="path167" />
  <path
     d="M 380.537,459 H 321 v 50.582 h 59.537 z"
     fill="#f0c397"
     id="path169" />
  <path
     d="m 380.562,509.628 h 13.587 v -50.582 h -13.587 z"
     fill="#c28655"
     id="path171" />
  <path
     d="m 465.173,292.418 c 0.137,-2.662 0.342,-5.87 -4.028,-4.915 -5.394,1.229 -30.11,6.144 -39.054,7.987 -3.346,0.683 -9.627,1.707 -10.173,4.232 -0.615,2.936 2.048,3.413 4.642,3.55 7.442,0.478 30.315,-0.478 38.372,-1.092 5.598,-0.342 9.968,-5.939 10.241,-9.762 z"
     fill="#367ad1"
     id="path173" />
  <path
     d="m 455.683,259.243 c -0.547,-1.775 -2.595,-2.116 -3.96,-0.888 -1.775,1.57 -38.03,36.93 -39.123,38.432 -1.024,1.365 -1.638,2.867 -0.887,4.437 1.638,3.55 9.354,1.365 11.948,-0.751 2.663,-2.184 30.793,-37.681 31.544,-38.568 0.819,-0.956 0.819,-1.706 0.478,-2.662 z"
     fill="#367ad1"
     id="path175" />
  <path
     d="m 448.65,298.016 c -3.891,1.57 -7.715,3.345 -13.109,2.799 -4.916,-0.547 -9.149,-0.683 -14.133,0.341 -2.594,0.546 -5.189,0.751 -7.579,-0.41 -1.024,-0.546 -1.707,-1.638 -2.321,-1.979 -0.273,0.819 -0.273,1.638 0.136,2.525 0.41,0.956 1.298,1.502 2.39,1.707 0.751,0.205 1.571,0.273 2.458,0.341 7.442,0.478 30.315,-0.478 38.372,-1.092 3.209,-0.205 6.076,-2.253 7.92,-4.573 -1.298,-2.117 -10.242,-1.229 -14.134,0.341 z"
     fill="#3448ad"
     id="path177" />
  <path
     d="m 488.046,419.113 c 0.136,-8.942 0.273,-18.772 -1.844,-25.735 -1.16,-3.754 -3.755,-5.256 -7.783,-4.778 -1.639,0.205 -4.097,2.184 -4.984,6.553 -1.093,5.529 -0.478,14.335 -0.205,20.069 0.478,10.171 4.779,63.143 5.53,73.177 0.342,4.574 2.117,5.461 3.687,5.393 2.731,-0.137 3.346,-2.935 3.55,-5.666 0.205,-1.502 1.844,-56.658 2.049,-69.013 z"
     fill="#fec1b5"
     id="path179" />
  <path
     d="m 472.616,490.037 c -3.005,-18.089 -13.178,-65.6 -14.27,-69.627 -0.956,-3.413 -3.346,-7.645 -6.896,-9.284 -3.004,-1.433 -6.623,0.478 -7.511,3.618 -0.409,1.502 0.342,4.983 0.751,6.417 2.8,10.307 19.732,64.303 21.303,68.672 0.751,2.116 2.662,3.822 4.643,3.618 1.502,-0.137 2.321,-1.57 1.98,-3.414 z"
     fill="#fec1b5"
     id="path181" />
  <path
     d="m 488.046,419.181 c 0,1.57 -0.068,3.891 -0.137,6.69 -5.803,-1.024 -11.607,-1.16 -13.86,1.502 -0.41,-5.461 -0.683,-9.762 -0.819,-12.014 -0.273,-5.803 -0.888,-14.609 0.205,-20.069 0.887,-4.438 3.345,-6.349 4.984,-6.554 4.028,-0.546 6.691,0.956 7.783,4.779 2.117,6.894 2.049,16.724 1.844,25.666 z"
     fill="#e8988c"
     id="path183" />
  <path
     d="m 460.121,428.124 c -5.189,-2.048 -10.788,-2.799 -13.724,-1.434 -0.682,-2.389 -1.297,-4.3 -1.638,-5.597 -0.41,-1.434 -1.161,-4.915 -0.751,-6.417 0.887,-3.14 4.438,-5.051 7.51,-3.618 3.482,1.638 5.94,5.871 6.896,9.284 0.137,0.887 0.819,3.686 1.707,7.782 z"
     fill="#e8988c"
     id="path185" />
  <path
     d="m 493.098,416.929 c -0.751,-3.687 -1.707,-9.967 -2.594,-14.813 -0.683,-3.891 -0.956,-7.85 -0.751,-11.4 0.478,-9.079 2.936,-16.588 0.683,-25.735 -1.025,-4.232 -2.8,-8.396 -5.053,-12.355 -1.57,-2.799 -6.008,-6.076 -9.285,-7.509 -4.029,-1.775 -7.033,-2.048 -11.266,-1.57 -2.321,0.273 -12.153,-0.205 -14.543,0.136 -1.98,0.273 -3.823,1.434 -4.233,3.004 -1.639,6.075 -4.165,15.086 -5.94,24.847 -2.799,15.359 -4.438,32.971 -4.438,45.19 0,4.164 2.116,4.71 6.759,5.188 6.145,0.614 16.523,0.682 24.785,0.341 5.325,-0.205 9.354,-0.341 14.201,-0.683 l 2.253,-26.554 2.527,26.213 c 1.706,-0.136 3.345,-0.273 4.984,-0.478 2.389,-0.341 2.185,-2.321 1.911,-3.822 z"
     fill="#3448ad"
     id="path187" />
  <path
     d="m 493.098,416.929 c -0.751,-3.687 -1.707,-9.967 -2.594,-14.813 -0.683,-3.891 -0.956,-7.85 -0.751,-11.4 0.478,-9.079 2.936,-16.588 0.682,-25.735 -1.024,-4.232 -2.799,-8.396 -5.052,-12.355 -1.57,-2.799 -6.008,-6.076 -9.286,-7.509 -0.068,-0.069 -0.205,-0.069 -0.273,-0.137 0.205,1.297 2.117,3.55 3.346,5.529 2.321,3.55 4.847,10.581 4.847,17.203 0,5.665 -1.775,10.239 -2.116,15.905 -0.41,6.553 1.843,11.399 1.843,11.399 l 2.527,26.213 c 1.706,-0.136 3.345,-0.273 4.984,-0.478 2.321,-0.341 2.116,-2.321 1.843,-3.822 z"
     fill="#1f367a"
     id="path189" />
  <path
     d="m 488.66,283.681 c -6.281,-0.888 -18.434,1.228 -23.077,2.662 -3.55,1.092 -4.779,1.433 -5.735,3.413 -1.229,2.594 -2.049,5.666 -2.936,8.396 -0.888,2.663 -1.912,5.461 -3.892,7.509 -1.775,1.843 -4.097,3.072 -5.462,5.393 -1.57,2.662 -0.615,5.393 1.502,7.372 0.888,0.819 2.594,1.707 2.936,2.594 0.341,0.819 -0.068,2.458 -0.342,3.277 -1.638,5.461 -4.369,13.925 -5.53,22.048 -0.41,3.004 1.775,4.711 4.37,5.257 2.731,0.546 7.715,0.887 12.494,0.477 7.101,-0.682 13.656,-2.252 16.796,-3.549 1.571,-0.683 2.322,-0.956 1.912,-3.823 -0.205,-1.297 -1.229,-4.232 -1.98,-7.782 -0.409,-1.843 0.137,-4.027 0.751,-5.324 1.775,-4.096 7.647,-14.267 10.446,-22.868 1.707,-5.12 4.37,-13.379 4.302,-19.113 -0.068,-2.526 -1.434,-5.188 -6.555,-5.939 z"
     fill="#367ad1"
     id="path191" />
  <path
     d="m 482.447,283.476 c -0.683,-0.614 -4.369,0.341 -5.462,-0.478 -1.365,-0.887 -1.229,-3.481 -1.161,-4.846 0.069,-2.867 2.663,-11.81 1.844,-17.066 -0.273,-1.911 -0.546,-2.935 -2.526,-3.004 -2.527,0 -3.892,-0.068 -6.282,-1.024 -2.253,-0.819 -3.482,-1.638 -5.189,-3.344 -0.614,-0.615 -1.229,-1.57 -1.912,-1.434 -0.751,0.137 -1.297,1.297 -1.502,2.526 -0.887,4.983 1.161,8.601 3.551,12.901 0.956,1.775 2.185,3.209 3.891,4.233 1.639,0.955 1.298,1.57 1.366,2.73 0.205,2.389 0.273,5.802 0.273,7.987 0,0.887 -0.136,1.706 -0.683,2.184 -0.478,0.478 -1.57,0.819 -2.321,1.024 -0.478,0.137 -0.888,0.478 -1.161,0.956 -0.956,1.57 -1.502,3.549 -1.912,5.188 -0.477,1.843 -0.819,4.3 -0.409,6.212 0.41,1.843 2.253,2.389 4.301,1.979 3.619,-0.682 7.033,-3.686 8.671,-5.256 2.049,-1.843 5.531,-6.553 6.418,-8.806 0.41,-0.887 0.888,-2.116 0.205,-2.662 z"
     fill="#fec1b5"
     id="path193" />
  <path
     d="m 462.579,248.594 c -1.502,-0.341 -3.619,-0.683 -5.189,-0.819 -0.615,-0.068 -1.093,0.205 -1.229,0.887 -0.41,2.458 -0.683,4.915 -1.024,6.349 -0.751,0.751 -3.073,2.867 -3.756,3.686 -0.546,0.682 -0.341,2.525 0.547,3.345 0.751,0.682 2.526,0.819 3.277,0 0.887,-0.956 2.39,-2.321 3.482,-2.867 1.024,-0.546 0.341,-2.936 0.819,-4.847 0.41,-1.57 1.707,-3.345 2.663,-4.096 1.024,-0.751 1.434,-1.365 0.41,-1.638 z"
     fill="#fec1b5"
     id="path195" />
  <path
     d="m 480.809,311.737 c -1.571,1.501 -3.209,2.73 -5.121,3.617 -3.482,1.707 -12.563,1.434 -18.298,1.434 -2.731,0 -5.053,0.068 -7.169,-1.229 -1.639,-1.024 -2.8,-3.003 -3.414,-2.662 -0.273,0.205 -0.342,1.57 0.205,2.867 0.546,1.365 1.502,2.457 2.526,3.208 1.092,0.751 2.116,1.434 2.39,2.185 0.136,0.409 0.478,0.819 1.365,0.819 1.434,0 7.101,0.136 9.832,0.136 3.277,0 8.671,0 10.583,0 3.004,0 5.189,-1.706 6.281,-3.003 1.434,-1.57 2.595,-4.642 2.8,-6.963 0.341,-2.184 -0.956,-1.365 -1.98,-0.409 z"
     fill="#3448ad"
     id="path197" />
  <path
     d="m 522.389,323.205 c -5.803,-8.806 -18.025,-26.964 -23.897,-33.312 -2.048,-2.185 -3.482,-4.028 -6.145,-5.188 -2.253,-0.956 -5.257,1.638 -6.418,3.276 -1.638,2.526 -1.502,4.437 -0.819,7.304 0.683,3.072 3.755,6.622 6.145,9.079 3.619,3.686 17.274,16.861 19.8,19.865 1.844,2.116 1.161,4.095 -1.365,6.075 -5.872,4.71 -15.089,11.195 -21.985,16.246 -2.049,1.502 -2.663,2.526 -2.595,4.233 0.068,2.525 3.209,2.662 5.257,1.501 6.691,-3.822 27.994,-16.929 30.861,-19.181 3.209,-2.39 3.756,-5.939 1.161,-9.898 z"
     fill="#367ad1"
     id="path199" />
  <path
     d="m 476.917,267.298 c -0.205,-1.775 -0.888,-1.775 -1.093,-0.956 -0.273,1.229 -0.956,2.594 -1.434,3.208 -0.614,0.956 -1.638,2.185 -2.799,2.458 -1.502,0.409 -3.004,-0.41 -3.414,0 -0.546,0.546 0.205,1.911 0.956,2.526 1.161,0.887 3.482,0.955 4.643,0.341 2.595,-1.502 3.414,-4.778 3.141,-7.577 z"
     fill="#e8988c"
     id="path201" />
  <path
     d="m 490.572,276.104 c -1.092,-3.004 -3.414,-5.461 -4.984,-8.124 -1.844,-3.14 -1.775,-7.304 -2.8,-10.785 -0.819,-2.935 -2.389,-5.256 -4.096,-7.099 -2.117,-2.185 -5.053,-4.096 -10.446,-4.096 -4.78,0 -8.399,3.004 -9.764,7.85 -1.024,3.755 0.546,7.509 0.683,11.81 0.136,4.778 -3.209,9.351 -4.029,13.174 -1.229,5.393 1.161,7.782 2.732,8.874 0.409,0.273 1.16,0.41 1.57,0.342 2.458,-0.478 6.759,-1.639 8.739,-2.321 0.546,-0.205 1.366,-0.751 1.434,-1.57 0.205,-3.14 -0.068,-9.148 -0.205,-10.854 -0.068,-1.092 0,-1.161 -0.751,-1.434 -0.546,-0.204 -1.229,-0.546 -1.843,-1.024 -2.322,-1.911 -2.8,-4.983 -3.892,-6.826 -2.799,-4.573 -2.321,-8.737 -0.956,-10.717 3.755,3.959 9.422,5.393 13.382,5.666 0.478,0 0.751,0.273 0.888,0.887 0.614,2.048 0.41,7.236 -0.819,10.922 -1.025,3.072 -1.912,7.577 -1.298,10.99 0.683,3.55 3.482,6.007 7.169,6.281 3.756,0.273 8.876,-2.936 9.696,-3.823 1.024,-1.843 0.546,-5.325 -0.41,-8.123 z"
     fill="#1e2859"
     id="path203" />
  <path
     d="m 478.077,260.745 c -0.068,1.297 -0.136,2.321 -1.092,2.457 -0.956,0.137 -1.843,-0.956 -2.048,-2.184 -0.205,-1.57 0.478,-2.253 1.365,-2.526 1.229,-0.41 1.775,0.956 1.775,2.253 z"
     fill="#fec1b5"
     id="path205" />
  <path
     d="m 492.279,348.12 c -0.615,-1.638 -1.843,-2.457 -2.799,-2.457 -0.615,0 -1.366,0.819 -2.117,0.887 -2.526,0.342 -3.277,-1.501 -4.847,-2.935 -1.434,-1.297 -3.551,0.137 -4.507,0.683 -0.273,0.204 -0.819,0.341 -1.16,0.477 -1.707,0.342 -6.009,1.366 -6.282,1.98 -0.273,0.614 0.615,1.843 1.366,2.594 0.409,0.41 2.594,0.41 3.55,0.41 1.297,0 2.868,-0.205 4.165,0 1.297,0.204 2.39,0.682 3.414,1.501 1.843,1.502 3.14,2.048 5.189,2.048 0.887,0 1.98,-0.751 2.799,-1.228 1.092,-0.751 1.843,-2.321 1.229,-3.96 z"
     fill="#fec1b5"
     id="path207" />
  <path
     d="m 471.523,267.23 c -0.068,0.341 -0.751,0.819 -1.844,1.16 -1.092,0.341 -1.979,0.205 -2.184,-0.068 -0.41,-0.41 0.751,-0.546 1.911,-0.888 1.093,-0.273 2.322,-0.751 2.117,-0.204 z"
     fill="#ed9898"
     id="path209" />
  <path
     d="M 474.537,479 H 415 v 50.582 h 59.537 z"
     fill="#f0c397"
     id="path211" />
  <path
     d="m 474.562,529.628 h 13.587 v -50.582 h -13.587 z"
     fill="#c28655"
     id="path213" />
  <defs
     id="defs351">
    <linearGradient
       id="paint0_linear_1113_2"
       x1="340.064"
       y1="434.944"
       x2="340.064"
       y2="77.973198"
       gradientUnits="userSpaceOnUse">
      <stop
         stop-color="#30358C"
         id="stop215" />
      <stop
         offset="0.236"
         stop-color="#303990"
         id="stop217" />
      <stop
         offset="0.4805"
         stop-color="#31469D"
         id="stop219" />
      <stop
         offset="0.7289"
         stop-color="#335AB1"
         id="stop221" />
      <stop
         offset="0.9785"
         stop-color="#3677CE"
         id="stop223" />
      <stop
         offset="1"
         stop-color="#367AD1"
         id="stop225" />
    </linearGradient>
    <linearGradient
       id="paint1_linear_1113_2"
       x1="610.88397"
       y1="16.6626"
       x2="405.27701"
       y2="372.85901"
       gradientUnits="userSpaceOnUse">
      <stop
         stop-color="#7AC9EB"
         id="stop228" />
      <stop
         offset="0.2201"
         stop-color="#76C5EA"
         id="stop230" />
      <stop
         offset="0.4481"
         stop-color="#6CB8E6"
         id="stop232" />
      <stop
         offset="0.6798"
         stop-color="#5AA4DF"
         id="stop234" />
      <stop
         offset="0.9126"
         stop-color="#4187D5"
         id="stop236" />
      <stop
         offset="1"
         stop-color="#367AD1"
         id="stop238" />
    </linearGradient>
    <linearGradient
       id="paint2_linear_1113_2"
       x1="652.00299"
       y1="215.259"
       x2="652.00299"
       y2="38.715"
       gradientUnits="userSpaceOnUse">
      <stop
         stop-color="#30358C"
         id="stop241" />
      <stop
         offset="0.236"
         stop-color="#303990"
         id="stop243" />
      <stop
         offset="0.4805"
         stop-color="#31469D"
         id="stop245" />
      <stop
         offset="0.7289"
         stop-color="#335AB1"
         id="stop247" />
      <stop
         offset="0.9785"
         stop-color="#3677CE"
         id="stop249" />
      <stop
         offset="1"
         stop-color="#367AD1"
         id="stop251" />
    </linearGradient>
    <linearGradient
       id="paint3_linear_1113_2"
       x1="187.95599"
       y1="72.912201"
       x2="187.95599"
       y2="292.43399"
       gradientUnits="userSpaceOnUse">
      <stop
         stop-color="#C8E9F7"
         id="stop254" />
      <stop
         offset="0.2215"
         stop-color="#C4E7F6"
         id="stop256" />
      <stop
         offset="0.451"
         stop-color="#B7E2F4"
         id="stop258" />
      <stop
         offset="0.6843"
         stop-color="#A3DAF1"
         id="stop260" />
      <stop
         offset="0.9186"
         stop-color="#86CEED"
         id="stop262" />
      <stop
         offset="1"
         stop-color="#7AC9EB"
         id="stop264" />
    </linearGradient>
    <linearGradient
       id="paint4_linear_1113_2"
       x1="305.405"
       y1="281.97198"
       x2="140.42101"
       y2="-3.84743"
       gradientUnits="userSpaceOnUse">
      <stop
         stop-color="#1E2859"
         id="stop267" />
      <stop
         offset="0.1478"
         stop-color="#202E62"
         id="stop269" />
      <stop
         offset="0.3887"
         stop-color="#253F7A"
         id="stop271" />
      <stop
         offset="0.6929"
         stop-color="#2D5AA2"
         id="stop273" />
      <stop
         offset="1"
         stop-color="#367AD1"
         id="stop275" />
    </linearGradient>
    <linearGradient
       id="paint5_linear_1113_2"
       x1="321.88699"
       y1="292.43399"
       x2="321.88699"
       y2="72.912201"
       gradientUnits="userSpaceOnUse">
      <stop
         stop-color="#30358C"
         id="stop278" />
      <stop
         offset="1"
         stop-color="#367AD1"
         id="stop280" />
    </linearGradient>
    <linearGradient
       id="paint6_linear_1113_2"
       x1="314.168"
       y1="72.912201"
       x2="314.168"
       y2="361.897"
       gradientUnits="userSpaceOnUse">
      <stop
         stop-color="#C8E9F7"
         id="stop283" />
      <stop
         offset="0.2215"
         stop-color="#C4E7F6"
         id="stop285" />
      <stop
         offset="0.451"
         stop-color="#B7E2F4"
         id="stop287" />
      <stop
         offset="0.6843"
         stop-color="#A3DAF1"
         id="stop289" />
      <stop
         offset="0.9186"
         stop-color="#86CEED"
         id="stop291" />
      <stop
         offset="1"
         stop-color="#7AC9EB"
         id="stop293" />
    </linearGradient>
    <linearGradient
       id="paint7_linear_1113_2"
       x1="116.711"
       y1="159.388"
       x2="280.297"
       y2="218.033"
       gradientUnits="userSpaceOnUse">
      <stop
         stop-color="#FEB840"
         id="stop296" />
      <stop
         offset="0.3685"
         stop-color="#FEB43D"
         id="stop298" />
      <stop
         offset="0.7497"
         stop-color="#FFA734"
         id="stop300" />
      <stop
         offset="1"
         stop-color="#FF9B2B"
         id="stop302" />
    </linearGradient>
    <linearGradient
       id="paint8_linear_1113_2"
       x1="89.221001"
       y1="218.771"
       x2="279.12201"
       y2="242.16499"
       gradientUnits="userSpaceOnUse">
      <stop
         stop-color="#FEB840"
         id="stop305" />
      <stop
         offset="0.2503"
         stop-color="#FEAC37"
         id="stop307" />
      <stop
         offset="0.6315"
         stop-color="#FF9F2E"
         id="stop309" />
      <stop
         offset="1"
         stop-color="#FF9B2B"
         id="stop311" />
    </linearGradient>
    <linearGradient
       id="paint9_linear_1113_2"
       x1="336.311"
       y1="238.185"
       x2="130.27901"
       y2="238.185"
       gradientUnits="userSpaceOnUse">
      <stop
         stop-color="#FF9B2B"
         id="stop314" />
      <stop
         offset="0.1907"
         stop-color="#F79528"
         id="stop316" />
      <stop
         offset="0.6022"
         stop-color="#EA8C23"
         id="stop318" />
      <stop
         offset="1"
         stop-color="#E68922"
         id="stop320" />
    </linearGradient>
    <linearGradient
       id="paint10_linear_1113_2"
       x1="118.597"
       y1="503.86099"
       x2="192.347"
       y2="454.47"
       gradientUnits="userSpaceOnUse"
       gradientTransform="translate(0,-40)">
      <stop
         stop-color="#FF9B2B"
         id="stop323" />
      <stop
         offset="1"
         stop-color="#FEB840"
         id="stop325" />
    </linearGradient>
    <linearGradient
       id="paint11_linear_1113_2"
       x1="122.104"
       y1="511.289"
       x2="209.31599"
       y2="434.32101"
       gradientUnits="userSpaceOnUse"
       gradientTransform="translate(0,-40)">
      <stop
         stop-color="#FEB840"
         id="stop328" />
      <stop
         offset="0.2424"
         stop-color="#FEC65B"
         id="stop330" />
      <stop
         offset="0.4986"
         stop-color="#FFD06F"
         id="stop332" />
      <stop
         offset="0.7517"
         stop-color="#FFD77C"
         id="stop334" />
      <stop
         offset="0.996"
         stop-color="#FFD980"
         id="stop336" />
    </linearGradient>
    <linearGradient
       id="paint12_linear_1113_2"
       x1="106.156"
       y1="458.177"
       x2="209.827"
       y2="458.177"
       gradientUnits="userSpaceOnUse"
       gradientTransform="translate(0,-40)">
      <stop
         stop-color="#E68922"
         id="stop339" />
      <stop
         offset="0.3978"
         stop-color="#EA8C23"
         id="stop341" />
      <stop
         offset="0.8093"
         stop-color="#F79528"
         id="stop343" />
      <stop
         offset="1"
         stop-color="#FF9B2B"
         id="stop345" />
    </linearGradient>
    <clipPath
       id="clip0_1113_2">
      <rect
         width="1066"
         height="328"
         fill="#ffffff"
         transform="translate(0,40)"
         id="rect348"
         x="0"
         y="0" />
    </clipPath>
  </defs>
</svg>
