<svg width="49" height="60" viewBox="0 0 49 60" fill="none" xmlns="http://www.w3.org/2000/svg">
<path d="M10.2331 18.5047C10.3876 18.4027 10.542 18.2498 10.542 18.0459C10.3876 18.0459 10.2331 18.0969 10.1302 18.2498C10.0272 18.3518 9.92423 18.4537 9.76978 18.5557C9.97571 18.6066 10.0787 18.6066 10.2331 18.5047Z" fill="#F4EEE2"/>
<path d="M0.605727 57.6042C0.554244 57.91 0.605727 58.1139 0.81166 58.2669C0.81166 58.1649 0.863144 58.063 0.863144 58.012C1.06908 57.4003 1.48094 56.9415 1.94429 56.4827C1.37798 56.6356 0.708694 56.9924 0.605727 57.6042Z" fill="#F4EEE2"/>
<path d="M46.1686 58.9807C46.426 58.9807 46.7349 58.9807 46.9923 58.8788C47.4556 58.7258 47.919 58.318 48.1764 57.8083C48.3823 57.3495 48.4853 56.8397 48.4853 56.126C48.5368 53.4752 47.4042 50.9773 46.22 48.6834C45.7052 47.6638 45.0874 46.5423 44.2122 45.6247C43.5429 44.9111 42.7192 44.3503 41.9469 43.8405C41.4321 43.4837 40.9687 43.1269 40.4539 42.77C39.3728 41.9544 34.3274 38.1821 34.3274 38.1821C34.3274 38.1821 33.3492 37.5194 32.9373 37.1625C32.8859 37.1116 32.7829 37.0606 32.7314 37.0096C32.474 37.3664 32.0621 37.6213 31.5988 37.6213C31.5473 37.6213 31.5473 37.6213 31.4958 37.6213C31.3928 37.6213 31.2899 37.6213 31.2384 37.5704C31.2899 37.8762 31.1869 38.1821 31.0325 38.437C30.8265 38.7938 30.5176 39.0487 30.2087 39.0997C30.1572 39.0997 30.1058 39.0997 30.0028 39.0997C29.8998 39.0997 29.7969 39.0997 29.6939 39.0487C29.6424 39.4565 29.4365 39.7114 29.0246 39.8643C28.8702 39.9153 28.6642 39.9663 28.5098 39.9663C28.2009 39.9663 27.892 39.8643 27.5831 39.7114C27.4801 39.6604 27.3771 39.5585 27.2742 39.4565C27.1197 39.9663 26.6049 40.2212 26.296 40.2212C25.9356 40.2212 25.6267 40.0682 25.4208 39.8133C25.3178 40.2212 25.0604 40.8329 24.3911 40.8839H24.3396C24.0822 40.8839 23.8248 40.7309 23.6189 40.527C23.4129 40.3741 23.2585 40.1702 23.104 39.9663C23.0525 40.0682 22.9496 40.2212 22.8466 40.2721C22.7436 40.3741 22.5377 40.527 22.3318 40.527H22.2803C21.9199 40.476 21.6625 40.2212 21.4566 40.0682C21.2506 39.8643 21.0447 39.6604 20.8902 39.4055C20.6843 39.8643 20.3239 40.2721 19.9635 40.3231C19.9121 40.3231 19.9121 40.3231 19.8606 40.3231C19.5002 40.3231 19.1913 40.0682 19.0368 39.7624C18.8824 39.4565 18.8309 39.0997 18.8309 38.7938C18.8309 38.0801 18.9854 37.0606 19.1913 36.245C19.1398 36.041 19.0883 35.8371 19.0368 35.6332C18.9854 35.2764 19.0368 34.8176 19.0883 34.4098C19.1398 34.1549 19.1398 33.9 19.1398 33.6451C19.0883 33.3902 19.0883 33.1354 19.0883 32.8295C19.0883 31.8609 19.0883 30.8924 19.2428 29.9748C19.2428 29.8218 19.2943 29.6179 19.3972 29.465C19.5517 29.2101 19.8606 29.1082 20.0665 29.0062C21.6625 28.3435 23.4129 27.5789 24.2367 26.0495C24.6485 25.2339 24.7515 24.3163 24.8545 23.3987C24.9059 23.0419 24.9059 22.6851 25.0089 22.3282C25.0089 22.2263 24.9574 22.1753 24.9059 22.0733C24.9059 22.0224 24.8545 22.0224 24.8545 21.9714C24.7515 21.6145 24.5456 21.2577 24.3911 20.9009C24.3911 20.9009 24.3911 20.9009 24.3911 20.8499C24.2881 20.6969 24.1852 20.493 24.1337 20.3401C24.0307 20.1362 23.9278 19.9833 23.8248 19.7794C23.7218 19.5755 23.6189 19.4225 23.5159 19.2186C23.2585 18.7598 23.0525 18.352 22.8981 17.9442C22.8981 17.9442 22.8981 17.9442 22.8981 17.8932C22.8466 17.6893 22.7436 17.4854 22.6922 17.3325C22.6407 17.2305 22.6407 17.1286 22.5892 17.0266C22.5892 16.9246 22.5377 16.8227 22.5377 16.7207C22.5377 16.6188 22.4862 16.4659 22.4862 16.3639C22.4862 16.3129 22.4862 16.2619 22.4862 16.211V16.16C22.4862 16.16 22.4862 16.16 22.4862 16.109C22.4862 16.0071 22.4347 15.8541 22.4347 15.7522C22.4347 15.7012 22.4347 15.6502 22.4347 15.5992L22.3833 15.6502C21.8169 16.3129 20.9932 16.7207 20.015 16.7717C19.9121 16.7717 19.8091 16.7717 19.7061 16.7717C19.5002 16.7717 19.2943 16.7717 19.0883 16.7717L17.8012 16.7207C17.6983 16.7207 17.6468 16.6188 17.6468 16.5168C17.6468 16.4149 17.6983 16.3639 17.8527 16.3639L19.1398 16.4149C19.4487 16.4149 19.7061 16.4659 20.015 16.4149C20.8388 16.3639 21.611 16.0071 22.1258 15.4463C22.5892 14.8856 22.7951 14.1209 22.6407 13.4582C21.8169 13.815 20.9417 14.019 20.0665 14.0699C19.8606 14.0699 19.7061 14.0699 19.5002 14.0699C19.2428 14.0699 18.9854 14.0699 18.7794 14.0699C18.2646 14.1209 17.6983 14.2229 17.2349 14.4777C17.132 14.5287 17.029 14.4777 16.9775 14.3758C16.926 14.2738 16.9775 14.1719 17.0805 14.1209C17.5953 13.866 18.1616 13.7131 18.7794 13.7131C19.0368 13.7131 19.2943 13.7131 19.5517 13.7131C19.7061 13.7131 19.9121 13.7131 20.0665 13.7131C20.9932 13.6621 21.8684 13.4582 22.6922 13.0504C22.7436 13.0504 22.7951 13.0504 22.8466 13.0504C22.8981 13.0504 22.9496 13.1014 22.9496 13.1523C23.104 13.5602 23.104 14.019 23.0011 14.4777C23.7733 13.6621 24.3396 12.6935 24.9059 11.5721C25.6267 10.1957 25.8841 9.07418 25.7297 8.05464C25.5752 6.98412 24.9574 6.01555 24.0307 5.35285C23.31 4.84308 21.3021 3.82354 19.8606 3.36475C20.4269 3.72159 20.6843 4.07842 20.6328 4.48624C20.6328 4.63917 20.5299 4.7921 20.4269 4.94504C21.611 4.89406 22.5377 5.30187 23.0525 5.60774C24.2367 6.32142 25.1119 7.59584 25.1119 8.66636C25.1119 12.1838 21.3536 12.7955 16.1538 13.6621C15.6389 13.7641 15.1241 13.815 14.6093 13.917C13.9915 14.019 12.9618 14.3248 12.6014 15.1404C12.6014 15.1914 12.5499 15.2424 12.5499 15.2934C12.4985 15.3953 12.447 15.5483 12.3955 15.6502C12.2925 15.8032 12.1381 15.9051 11.9836 16.0071C11.6747 16.211 11.3143 16.3639 10.954 16.5168C10.2332 16.8227 9.56391 17.1286 9.25501 17.7403C9.10056 17.9952 9.10056 18.301 9.10056 18.6069C9.15204 18.6579 9.15204 18.6579 9.20353 18.6579C9.25501 18.6579 9.30649 18.6069 9.30649 18.5559L9.35798 18.5049L9.40946 18.403C9.56391 18.25 9.71836 18.0461 9.87281 17.9442C10.1302 17.7403 10.4391 17.6383 10.6965 17.6893C10.748 17.6893 10.7995 17.7403 10.851 17.7913C11.0054 18.1991 10.748 18.6069 10.3876 18.8108C10.1302 18.9637 9.87281 18.9128 9.61539 18.9128C9.56391 18.9128 9.51243 18.9128 9.46094 18.9128C9.40946 18.9637 9.30649 19.0147 9.25501 19.0657C9.20353 19.0657 9.15204 19.0657 9.10056 19.0657C9.25501 19.6264 9.66688 20.1872 10.0273 20.646C10.0787 20.7479 10.1817 20.7989 10.2332 20.8499C10.4391 20.9009 10.6451 20.6969 10.7995 20.544C11.2114 20.0852 11.7777 19.6774 12.5499 19.3715C13.0133 19.1676 13.4766 19.1167 13.837 19.2696C14.0944 19.3715 14.2489 19.5245 14.3519 19.8303C14.6093 20.4421 14.1974 21.0538 13.6826 21.4106C13.2192 21.7165 12.6529 21.8184 12.0866 21.7675H11.9321C11.7262 21.7165 11.5203 21.7165 11.3143 21.7675C11.1599 21.8184 10.954 21.9204 10.954 22.1243C10.954 22.9399 11.2114 23.0929 11.4688 23.1438C11.6747 23.1948 11.9321 23.1948 12.1896 23.1438C12.447 23.1438 12.6529 23.0929 12.9103 23.1438C13.9915 23.2968 14.5578 24.4693 14.6093 25.4888C14.6608 27.1201 13.7855 28.5474 12.9103 29.9238C12.7559 30.1277 12.6529 30.3826 12.4985 30.5865C11.6747 31.9629 11.0054 33.3902 10.5421 34.9195C10.1302 36.143 9.71836 37.7743 10.1817 39.3036C10.2332 39.4055 10.2847 39.5585 10.2847 39.6604C10.4391 40.0682 10.5421 40.4251 10.5421 40.8839C10.5421 41.1897 10.4391 41.4956 10.3362 41.7505C9.82133 43.1778 9.10056 44.7581 8.43128 46.2874C7.76199 47.8167 7.04123 49.397 6.52639 50.7734C6.47491 50.9773 6.37194 51.2322 6.26898 51.5381C5.96008 52.5576 5.54821 53.7811 5.03338 54.3418C4.57003 54.9026 3.95223 55.3614 3.33443 55.8201C2.40773 56.5338 1.48103 57.1965 1.12064 58.2161C1.06916 58.42 1.06916 58.5219 1.12064 58.6239C1.17213 58.6749 1.32658 58.8278 1.78993 58.8278C1.78993 58.6749 1.84141 58.5219 1.94438 58.369C2.45921 57.4004 3.38591 56.7887 4.26113 56.228C4.36409 56.126 4.51854 56.075 4.62151 55.9731C4.98189 55.7692 5.39376 55.2084 5.85711 54.4438C6.01156 54.1889 10.5421 44.1464 11.9836 40.0682C11.1599 38.6919 10.851 37.4684 10.954 36.3979C11.0569 35.1235 11.9836 33.6961 13.4766 33.5432C13.5796 33.5432 13.6826 33.5941 13.6826 33.6961C13.6826 33.7981 13.6311 33.9 13.5281 33.9C12.2925 34.0529 11.4173 35.2764 11.3143 36.4489C11.2114 37.4684 11.5203 38.6409 12.344 39.9663C12.3955 40.0173 12.3955 40.0682 12.344 40.1192C11.0054 43.9935 6.42343 54.2399 6.16601 54.6477C5.90859 55.1065 5.34228 55.9731 4.82744 56.2789C4.72448 56.3809 4.57003 56.4319 4.46706 56.5338C3.59184 57.0946 2.71663 57.6553 2.25328 58.5729C2.15031 58.8278 2.09883 58.9807 2.20179 59.0827C2.35624 59.2866 2.92256 59.4395 3.33443 59.4395C3.33443 58.8278 3.54036 58.1651 4.00371 57.6553C4.46706 57.0946 5.18783 56.7377 5.85711 56.6868C5.96008 56.6868 6.06304 56.7377 6.06304 56.8397C6.06304 56.9416 6.01156 57.0436 5.90859 57.0436C5.29079 57.0946 4.72448 57.4004 4.31261 57.9102C3.90074 58.369 3.69481 58.9297 3.69481 59.4905C5.08486 59.6944 6.52639 59.6434 7.91644 59.3885C9.20353 56.0241 10.3876 53.5262 11.3658 51.8439C11.5718 51.4871 11.8292 51.0793 12.0866 50.6205C12.6529 49.6519 13.2707 48.5814 13.7855 47.8167C15.0726 45.8796 16.2053 43.8405 17.1834 41.6995C17.2349 41.5975 17.3379 41.5466 17.4409 41.5975C17.5438 41.6485 17.5953 41.7505 17.5438 41.8524C16.926 43.1778 16.2567 44.4523 15.536 45.7267C18.7279 49.448 26.3475 51.0283 30.0028 51.1303H30.3632C31.0325 52.9145 32.2681 54.6477 33.9155 56.126C34.07 56.177 34.2759 56.177 34.4304 56.228C34.07 55.8201 33.7096 55.4123 33.3492 55.0045C32.2166 53.6281 31.1869 52.2517 30.878 50.5695C30.7236 49.7539 30.775 48.9382 31.0325 48.1736L31.2899 47.4599C31.3928 47.154 31.5473 46.8992 31.7532 46.6443C32.5255 45.4718 33.7611 44.6562 35.1511 44.4013C35.8204 44.2484 36.5412 44.2484 37.3649 44.2993C38.9609 44.4523 40.5569 45.013 41.8954 45.9306C41.9984 45.9816 41.9984 46.0835 41.9469 46.1855C41.8954 46.2874 41.7925 46.2874 41.6895 46.2365C40.4024 45.3698 38.8579 44.8091 37.3134 44.6562C36.5412 44.5542 35.8204 44.6052 35.2026 44.7071C33.9155 44.962 32.7829 45.7267 32.0621 46.7972C31.3414 47.8677 31.0325 49.1931 31.2899 50.4676C31.5473 52.0478 32.577 53.3732 33.6581 54.7496C34.7393 56.075 36.0778 57.5534 37.8283 57.8083C37.8797 57.8083 37.8797 57.8083 37.9312 57.8083C37.9312 57.7573 37.9312 57.7063 37.9827 57.6553C38.0857 57.6043 38.1886 57.6043 38.2401 57.7063C38.2916 57.8083 38.3431 57.9102 38.2916 58.0122C38.1886 58.1651 38.0342 58.2161 37.8797 58.2161H37.8283C36.6956 58.0631 35.7689 57.4514 34.9452 56.6868C34.9452 56.6868 34.8937 56.6868 34.8422 56.6868C34.5848 56.6358 34.3274 56.5848 34.07 56.5338C34.0185 56.5338 34.0185 56.5848 33.967 56.5848C33.9155 56.5848 33.864 56.5848 33.864 56.5338L33.8126 56.4828C31.6503 56.126 29.488 56.126 27.3771 56.228C26.8108 56.228 26.2445 56.3299 25.7297 56.4319L25.3178 56.4828C24.597 56.5848 24.1852 57.1965 23.9792 57.5534C23.7218 58.0122 23.6189 58.471 23.6703 58.5729C23.7733 58.7768 23.9792 58.9807 24.1852 59.0827C24.1337 58.9297 24.1337 58.7768 24.1852 58.6239C24.3911 57.7573 25.1119 56.9416 25.9871 56.6868C26.0901 56.6358 26.193 56.6868 26.193 56.7887C26.2445 56.8907 26.193 56.9926 26.0901 56.9926C25.3178 57.2475 24.7 57.9102 24.5456 58.6749C24.5456 58.7768 24.4941 58.8788 24.5456 58.9297C24.7 59.2356 25.1634 59.4395 25.7297 59.5924C25.7297 59.5415 25.6782 59.4905 25.6782 59.4905C25.6267 59.2356 25.6267 58.9807 25.6267 58.7768C25.6267 58.6239 25.6267 58.42 25.7297 58.2161C25.8326 57.8083 26.193 57.5024 26.6564 57.3495C27.0168 57.2475 27.3771 57.1965 27.892 57.2475C27.9949 57.2475 28.0464 57.3495 28.0464 57.4514C28.0464 57.5534 27.9435 57.6043 27.8405 57.6043C27.4286 57.5534 27.0682 57.5534 26.8108 57.6553C26.4504 57.7573 26.193 58.0122 26.1415 58.318C26.0901 58.471 26.0901 58.6239 26.0901 58.7768C26.0901 58.9807 26.0901 59.1846 26.1415 59.3885C26.193 59.4905 26.2445 59.6434 26.399 59.6944C26.8108 59.7454 27.2742 59.7964 27.5316 59.7964H27.686C29.0761 59.8983 30.5176 59.8473 31.9077 59.7964L39.5787 59.4905C39.8361 59.4905 40.0935 59.4905 40.3509 59.4395C40.4024 59.4395 40.4024 59.3885 40.4539 59.3885H40.9687C41.1232 59.3885 41.2776 59.3376 41.3806 59.2356C41.638 59.0317 41.6895 58.6239 41.5865 58.267C41.4836 57.9102 41.1747 57.6553 40.8658 57.2985C39.1668 55.6162 37.3649 54.0869 35.4085 52.7105C35.3056 52.6596 35.3056 52.5576 35.3571 52.4557C35.4085 52.3537 35.5115 52.3537 35.6145 52.4047C37.5708 53.832 39.4242 55.3614 41.1232 57.0436C41.4321 57.3495 41.741 57.7063 41.8954 58.1141C42.0499 58.471 41.9984 58.9807 41.741 59.3376L46.1686 58.9807ZM13.6826 17.2815C13.4252 17.2815 13.1677 17.1795 12.9618 16.9756C12.7044 16.6698 12.6529 16.211 12.8074 15.9051C12.8588 15.8541 12.9618 15.8031 13.0133 15.8031C13.8885 16.109 14.8667 16.16 15.7419 15.9051C15.8449 15.9051 15.9478 15.9561 15.9478 16.058C15.9478 16.16 15.8964 16.2619 15.7934 16.2619C15.3815 16.3639 14.9697 16.4149 14.5063 16.4149C14.4548 16.7207 14.2489 17.0776 13.94 17.1795C13.94 17.2815 13.837 17.2815 13.6826 17.2815ZM14.5063 21.8184C14.4033 21.8184 14.3004 21.7165 14.3004 21.6655C14.3004 21.5636 14.3519 21.4616 14.4548 21.4616C14.6093 21.4616 15.5875 20.7989 15.6389 20.1362C15.6904 19.5245 14.8667 19.1676 14.1459 18.9637C14.043 18.9127 13.9915 18.8618 14.043 18.7598C14.0944 18.6579 14.1974 18.6069 14.2489 18.6579C15.7934 19.1167 16.0508 19.7794 15.9478 20.2891C15.8964 21.0538 14.8152 21.8184 14.5063 21.8184ZM18.3676 23.9085C18.0072 24.3163 17.4409 24.5712 17.0805 24.5712C16.8745 24.8771 16.5656 25.132 16.2053 25.2849C16.0508 25.3359 15.8964 25.3868 15.7419 25.3868C15.4845 25.3868 15.2786 25.3359 15.0726 25.2339C14.9697 25.132 14.9182 25.03 14.9697 24.928C15.0211 24.8261 15.1241 24.8261 15.2271 24.8261C15.5875 25.03 15.8964 24.979 16.1023 24.8771C16.3597 24.7751 16.6171 24.5712 16.7716 24.3163C16.7716 24.3163 16.7716 24.3163 16.7716 24.2653C16.7716 24.2144 16.8231 24.1634 16.8745 24.1634C16.9775 23.9595 16.9775 23.4497 16.8231 22.9909C16.7201 22.736 16.5656 22.4302 16.2053 22.2772C16.1023 22.2263 16.0508 22.1243 16.1023 22.0224C16.1538 21.9204 16.2567 21.8694 16.3597 21.9204C16.7201 22.0733 17.029 22.3792 17.1834 22.838C17.3379 23.2968 17.3894 23.7556 17.2864 24.1124C17.5438 24.0614 17.8527 23.9085 18.1101 23.6026C18.1616 23.5007 18.2646 23.3987 18.3161 23.2968C18.3161 23.2458 18.3161 23.1948 18.3676 23.1948C18.522 22.838 18.4705 22.3792 18.2646 21.8694C18.2131 21.7165 17.8527 21.1557 17.6983 21.1048C17.5953 21.0538 17.5438 20.9518 17.5953 20.8499C17.6468 20.7479 17.7498 20.6969 17.8527 20.7479C18.2131 20.9009 18.625 21.7165 18.625 21.7165C18.8309 22.2263 18.8824 22.6341 18.8309 22.9909C19.1398 22.838 19.5517 22.5321 19.7576 22.0733C19.9635 21.5126 19.7061 20.9009 19.0883 20.1872C19.0368 20.1362 19.0368 19.9833 19.0883 19.9323C19.1398 19.8813 19.2943 19.8813 19.3457 19.9323C20.015 20.6969 20.2724 21.3596 20.1695 21.9714C20.4269 21.8184 20.7873 21.5636 20.9932 21.1557C21.1991 20.6969 21.1991 20.2382 20.8902 19.7794C20.7358 19.5755 20.4784 19.4735 20.2724 19.5245C20.1695 19.5755 20.0665 19.4735 20.0665 19.4225C20.015 19.3206 20.118 19.2186 20.1695 19.2186C20.5299 19.1167 20.9932 19.2696 21.1991 19.6264C21.6625 20.3401 21.508 20.9518 21.3021 21.3596C20.9932 21.9204 20.4269 22.3282 20.015 22.4302C19.7061 22.9909 19.0883 23.2968 18.7279 23.3987C18.522 23.6536 18.419 23.8065 18.3676 23.9085Z" fill="#F4EEE2"/>
<path d="M13.1162 16.2109C13.0647 16.4148 13.1162 16.6188 13.2707 16.7717C13.4251 16.9246 13.734 17.0266 13.94 16.9246C14.1459 16.8227 14.2489 16.6697 14.3003 16.4658C13.8885 16.3639 13.4766 16.3129 13.1162 16.2109Z" fill="#F4EEE2"/>
<path d="M20.1694 4.48614C20.118 4.69005 19.912 4.89396 19.6031 5.04689C19.2427 5.09787 18.8824 5.19982 18.522 5.40373C18.5735 5.14885 18.5735 4.94494 18.6249 4.69005C18.6764 4.23126 18.7279 3.77247 18.7279 3.2627C20.015 3.87442 20.2209 4.28224 20.1694 4.48614Z" fill="#F4EEE2"/>
<path d="M11.0053 1.68253C11.7261 0.968852 12.8587 0.561035 14.4032 0.561035C14.4547 0.561035 14.5062 0.561035 14.5062 0.561035C15.5874 0.561035 17.5437 0.815921 18.11 2.24328C18.1615 2.34523 18.1615 2.39621 18.213 2.49816C15.6903 2.39621 13.0647 2.34523 10.542 2.49816C10.645 2.1923 10.7994 1.93742 11.0053 1.68253Z" fill="#F4EEE2"/>
<path d="M31.1868 32.3196C30.9809 32.4726 30.672 32.5235 30.4146 32.4726C30.672 33.0333 31.0838 33.645 31.4442 34.0529C31.9076 34.6646 32.4224 35.0214 32.8858 35.1744C33.2976 35.2763 33.7095 35.2763 33.9669 35.0724C34.2243 34.8685 34.2758 34.2058 34.0699 33.8999C33.1946 33.1862 32.3709 32.4216 31.5472 31.606C31.5472 31.8608 31.3927 32.1157 31.1868 32.3196Z" fill="#F4AF23"/>
<path d="M20.6327 38.9976C20.4268 38.5388 20.3753 37.978 20.3753 37.2644C20.2723 37.2644 20.1693 37.2644 20.0664 37.2134C19.809 37.1114 19.603 36.9585 19.4486 36.7036C19.2941 37.3663 19.1912 38.1819 19.1912 38.7427C19.1912 39.0486 19.1912 39.3034 19.3456 39.5583C19.4486 39.7622 19.6545 39.9661 19.9119 39.9152C20.0664 39.9152 20.3753 39.5583 20.6327 38.9976Z" fill="#F4AF23"/>
<path d="M36.9526 21.9713C36.7982 21.8693 36.5407 21.8184 36.3348 21.9203C36.2318 22.1242 36.1804 22.3281 36.0774 22.4811C35.8715 22.8889 35.6655 23.2967 35.4081 23.7555C35.2022 24.1123 35.0477 24.4692 34.8418 24.826C35.1507 24.928 35.4596 25.0299 35.717 25.1829C35.9229 25.2848 36.0774 25.3868 36.2833 25.4887L36.8496 24.4182C37.1585 23.7555 37.4674 23.1947 37.313 22.583C37.2615 22.3281 37.1071 22.1242 36.9526 21.9713Z" fill="#F4AF23"/>
<path d="M37.6737 23.0417C37.6222 23.6024 37.3648 24.1631 37.1074 24.571L36.5925 25.6415C36.7985 25.7944 37.0559 25.9473 37.2618 26.1513C37.4163 26.3042 37.5192 26.4571 37.6222 26.61C38.9608 25.3356 40.3508 24.0102 41.0716 22.277C41.4834 21.2575 41.4834 19.3713 41.2775 18.0459C40.2478 19.7791 39.0637 21.4104 37.6737 23.0417Z" fill="#F4AF23"/>
<path d="M25.0088 39.5588C25.0088 39.5078 25.0088 39.5078 25.0088 39.5078C24.8543 39.3039 24.7514 39.151 24.6484 38.9471C24.288 38.2844 23.8762 37.4688 23.8762 36.6021C23.7732 36.5512 23.6702 36.5002 23.5673 36.4492C23.3613 36.7551 23.0009 36.959 22.5376 37.01C22.5891 38.2844 22.7435 39.5588 23.6702 40.3235C23.8247 40.4764 24.0306 40.6293 24.1851 40.5784C24.6999 40.4764 24.9058 40.0176 25.0088 39.5588Z" fill="#F4AF23"/>
<path d="M36.0774 4.1299C34.327 7.2395 32.2677 10.1962 29.9509 12.9489C30.0024 12.9999 30.1054 13.1019 30.1569 13.2038C30.3628 13.5097 30.4658 13.9175 30.4658 14.2743L32.3706 12.1333C32.4221 12.0823 32.4736 12.0313 32.5251 11.9804L35.923 7.13754C36.6952 6.01605 37.519 4.74162 37.1586 3.46719C37.1071 3.21231 36.9527 3.0084 36.7467 2.90645C36.6952 2.85547 36.6438 2.85547 36.5923 2.85547C36.5408 3.31426 36.3349 3.72208 36.0774 4.1299Z" fill="#F4AF23"/>
<path d="M30.6718 38.2331C30.8263 37.9783 30.8778 37.6214 30.7748 37.4175C30.4659 37.3156 30.2085 37.1116 29.9511 36.8568C29.5907 36.4489 29.3333 35.8882 29.1273 35.4294C29.0244 35.2255 28.9214 34.9196 28.7669 34.6138C28.7155 34.5118 28.664 34.4099 28.664 34.3589C28.561 34.5628 28.4066 34.7667 28.1491 34.9196C27.9947 35.0216 27.8402 35.0726 27.6858 35.1235C27.6858 35.6843 27.8402 36.296 28.0462 36.8568C28.1491 37.2136 28.3036 37.6214 28.5095 37.9273C28.6125 38.0802 28.7669 38.1822 28.8699 38.2841C29.3333 38.641 29.7451 38.7939 30.1055 38.7429C30.3114 38.6919 30.5174 38.488 30.6718 38.2331Z" fill="#F4AF23"/>
<path d="M21.3534 36.6528C21.3019 36.7548 21.2504 36.8567 21.1474 36.9587C21.0445 37.1116 20.8385 37.1626 20.6841 37.2136C20.6841 38.0802 20.7871 38.7429 21.096 39.1507C21.2504 39.4056 21.4563 39.5585 21.6623 39.7624C21.8682 39.9663 22.0741 40.1193 22.2801 40.1702C22.3315 40.1702 22.4345 40.1193 22.5375 39.9663C22.6919 39.7624 22.7949 39.6095 22.7949 39.5075C22.4345 38.7429 22.3315 37.8253 22.2801 36.9077C21.9197 36.9587 21.6108 36.8058 21.3534 36.6528Z" fill="#F4AF23"/>
<path d="M31.5469 37.2136C31.9072 37.1626 32.2676 36.9587 32.4736 36.6529C32.6795 36.296 32.731 35.8882 32.5765 35.4294C32.1132 35.2255 31.6498 34.8687 31.1865 34.3079C30.8776 33.9001 30.5172 33.3903 30.2598 32.8296C30.2083 33.0845 30.1568 33.3394 30.0538 33.5433C29.8994 33.7982 29.539 34.0021 29.2301 34.053C29.1786 34.053 29.0757 34.053 29.0242 34.053C29.0757 34.206 29.1271 34.3079 29.1786 34.4609C29.2816 34.7667 29.436 35.0726 29.539 35.2765C29.7449 35.7353 30.0024 36.2451 30.3113 36.6529C30.6202 37.0097 31.0835 37.2136 31.5469 37.2136Z" fill="#F4AF23"/>
<path d="M26.1927 39.8644C26.3986 39.8644 26.862 39.7115 26.9135 39.1507C26.8105 38.9978 26.656 38.8449 26.5531 38.6919C25.9353 37.8253 25.5234 36.9587 25.369 36.1431C25.2145 36.4489 24.9571 36.6528 24.5967 36.6528C24.4937 36.6528 24.3393 36.6528 24.2363 36.6019C24.2878 37.3155 24.6482 38.0802 24.9571 38.6409C25.266 39.2527 25.6779 39.8644 26.1927 39.8644Z" fill="#F4AF23"/>
<path d="M27.7374 39.4056C28.0978 39.6095 28.5096 39.7115 28.87 39.5585C29.1789 39.4056 29.3334 39.2527 29.3334 38.9468C29.1274 38.8449 28.9215 38.6919 28.6641 38.539C28.5096 38.437 28.4067 38.2841 28.2522 38.1312C27.9433 37.7743 27.8403 37.3155 27.6859 36.9587C27.5314 36.398 27.3255 35.7862 27.3255 35.1745C27.2225 35.1745 27.1196 35.1745 27.0681 35.1235C27.0166 35.4804 26.8107 35.8372 26.5018 36.0411C26.2958 36.1431 26.0384 36.1941 25.781 36.1431C25.9355 36.9077 26.2958 37.6724 26.8622 38.488C27.0681 38.8449 27.377 39.1507 27.7374 39.4056Z" fill="#F4AF23"/>
<path d="M35.3571 20.4425C34.6878 21.564 33.9156 22.6855 33.1433 23.756C33.4522 24.0109 33.6581 24.3167 33.8126 24.7246C34.0185 24.6736 34.2759 24.7246 34.5334 24.7246C34.7393 24.3677 34.9452 23.9599 35.1512 23.5521C35.3571 23.1443 35.6145 22.6855 35.769 22.2777C35.9234 21.9718 36.0779 21.615 36.1808 21.3091C36.2838 20.9523 36.2838 20.5444 36.2838 20.1876C36.2838 19.9837 36.2838 19.7288 36.2323 19.5759C36.1808 19.4739 36.0779 19.321 35.9749 19.27C35.9234 19.423 35.8719 19.5249 35.8204 19.6778C35.666 19.9327 35.5115 20.1876 35.3571 20.4425Z" fill="#F4AF23"/>
<path d="M35.8203 17.2305C35.9233 17.4344 35.9748 17.6383 35.9748 17.8422C36.0262 18.199 36.0262 18.5559 35.9233 18.9127C36.1292 18.9637 36.3351 19.1676 36.4381 19.4225C36.4381 19.4735 36.4896 19.5244 36.4896 19.5754C36.6955 19.2186 37.0044 18.8617 37.3133 18.5559C37.4163 18.4539 37.5193 18.352 37.6222 18.25C38.5489 17.2305 39.2182 16.007 39.8875 14.7836C40.2479 14.1718 40.6083 13.5091 40.9686 12.8974C41.0716 12.7445 41.1746 12.5915 41.2775 12.4386C41.3805 12.2347 41.535 12.0308 41.6379 11.8269C41.6379 11.8269 41.6379 11.7759 41.6894 11.7759C41.9468 11.3681 42.1528 10.9603 42.3072 10.5015C42.5131 9.73683 42.2557 8.56436 41.7409 7.95264C40.3508 11.4191 38.343 14.5287 35.8203 17.2305Z" fill="#F4AF23"/>
<path d="M34.4817 14.2232C34.2758 14.0703 34.1213 14.0703 33.9669 14.0703C33.2461 15.4467 32.3709 16.6701 31.2383 17.7407C31.3412 17.8936 31.4442 18.1485 31.4957 18.3524C31.5986 18.8622 31.4957 19.3719 31.1868 19.7288C31.3927 20.0856 31.5986 20.4934 31.8046 20.8503C32.9887 19.8817 33.6065 18.5563 34.2758 17.1289L34.4817 16.7211C34.5332 16.6192 34.5847 16.5682 34.5847 16.4662V16.4153C34.5847 16.3643 34.6361 16.3133 34.6361 16.3133C34.7906 16.0074 34.8936 15.7016 34.8936 15.3447C34.9965 14.9369 34.7906 14.4781 34.4817 14.2232Z" fill="#F4AF23"/>
<path d="M42.3073 12.4392C42.2044 12.2862 42.1014 12.1843 41.947 12.1333C41.844 12.3372 41.741 12.4901 41.5866 12.694C41.4836 12.847 41.3806 12.9999 41.3291 13.1528C40.9688 13.7646 40.6084 14.4273 40.248 15.039C39.5787 16.2624 38.9094 17.4859 37.9312 18.5564C37.8283 18.6584 37.7253 18.7603 37.6224 18.8623C37.159 19.372 36.6957 19.8308 36.5927 20.4426C36.5927 20.7484 36.5412 21.0543 36.4897 21.3601C36.4897 21.4111 36.4897 21.4111 36.4382 21.4621C36.6956 21.4621 36.9531 21.5131 37.159 21.615C37.4164 21.8189 37.5709 22.0738 37.6738 22.4307C39.3728 20.3916 40.7628 18.2505 41.8955 15.9566C42.4103 14.988 42.9766 13.5607 42.3073 12.4392Z" fill="#F4AF23"/>
<path d="M34.8937 16.7212C34.8422 16.7722 34.8422 16.8741 34.7907 16.9251L34.5848 17.3329C33.9155 18.8113 33.2462 20.1876 31.9591 21.2072C31.9591 21.2581 32.0106 21.2582 32.0106 21.3091C32.1651 21.615 32.3195 21.9718 32.2166 22.3287C32.1651 22.4816 32.1136 22.5836 32.0106 22.6855C31.9591 22.7365 31.9077 22.8384 31.9077 22.8894C31.8562 22.9914 31.8562 23.1443 31.8047 23.2463C32.1651 23.2463 32.474 23.2972 32.7829 23.5011C33.5551 22.4306 34.2759 21.3601 34.9967 20.2386C35.1511 19.9837 35.3056 19.7288 35.4085 19.474C35.6145 18.9642 35.7174 18.4034 35.6145 17.8427C35.563 17.3839 35.3056 16.8741 34.8937 16.7212Z" fill="#F4AF23"/>
<path d="M39.9902 0.866814C39.6813 0.968768 39.4754 1.27463 39.3209 1.52952C38.6517 2.65101 37.9824 3.97641 37.4161 5.45475C37.1586 6.11745 36.6953 6.78015 36.2834 7.39188L33.3489 11.572C33.4518 11.572 33.5548 11.521 33.6578 11.572C34.1726 11.623 34.4815 12.1327 34.4815 12.5915C34.533 13.0503 34.3271 13.4581 34.1726 13.764C34.1726 13.764 34.1726 13.764 34.1726 13.815C34.3271 13.815 34.4815 13.866 34.636 13.9679C37.2101 10.6034 39.8358 7.13699 40.8654 2.9059C40.9684 2.49808 41.0714 1.98831 40.9169 1.52952C40.7625 1.07072 40.3506 0.76486 39.9902 0.866814Z" fill="#F4AF23"/>
<path d="M28.2006 10.8076C28.0462 10.8586 27.9432 10.9096 27.8402 11.0115C27.4284 11.2664 27.1195 11.6743 26.862 12.0311C26.4502 12.5918 25.6779 13.7133 24.9572 14.8348C24.2364 15.9053 23.5156 16.9759 23.1038 17.5366C23.1552 17.6386 23.1552 17.7405 23.2067 17.8425C23.2582 17.9954 23.3097 18.1483 23.4127 18.2503C23.4127 18.3013 23.4641 18.3013 23.4641 18.3522C23.5156 18.4542 23.5671 18.5562 23.6186 18.6581C23.6701 18.7091 23.6701 18.7601 23.7216 18.811C23.773 18.913 23.8245 18.964 23.876 19.0659C23.9275 19.1679 23.979 19.2698 24.0305 19.3208C24.0305 19.3718 24.0819 19.4228 24.0819 19.4228C24.8542 18.1483 27.4284 14.9878 27.7373 14.6309C28.2006 14.0702 28.6125 13.4075 28.9729 12.6428C29.4877 11.6233 29.5392 10.9606 29.1273 10.7057C28.8699 10.6547 28.6125 10.7057 28.3551 10.7567C28.3036 10.8076 28.2521 10.8076 28.2006 10.8076Z" fill="#F4AF23"/>
<path d="M35.5629 0.867012C35.151 0.765058 34.6876 0.917989 34.2758 1.32581C33.9669 1.68265 33.7609 2.14144 33.555 2.54926V2.60023C32.2679 5.35299 30.6205 7.95282 28.7156 10.3487C28.9215 10.3487 29.1274 10.3997 29.3334 10.5017C30.0027 10.9605 29.7452 11.929 29.4878 12.5408C29.5908 12.5917 29.6938 12.6427 29.7967 12.6937C32.062 9.99191 34.1213 7.03524 35.8718 3.92564C36.1807 3.36489 36.4896 2.80414 36.4896 2.19242C36.4381 1.68264 36.1292 1.01994 35.5629 0.867012Z" fill="#F4AF23"/>
<path d="M33.5551 11.8779H33.5036C33.2462 11.8779 33.0403 12.0309 32.8344 12.2348L32.7829 12.2857C32.7829 12.3367 32.7314 12.3367 32.7314 12.3367L32.6799 12.3877L29.3335 16.058C29.6939 15.8541 30.1572 15.9051 30.4661 16.211C30.7235 16.4659 30.8265 16.8737 30.6721 17.2305C30.775 17.2815 30.878 17.3835 30.981 17.4854C32.1651 16.3639 33.0918 15.0385 33.8125 13.5602C33.967 13.2543 34.1214 12.8975 34.07 12.5406C34.07 12.2348 33.864 11.8779 33.5551 11.8779Z" fill="#F4AF23"/>
<path d="M41.1743 3.00781C40.0931 7.28989 37.4675 10.7563 34.8933 14.0698C35.2537 14.4267 35.3567 14.9874 35.3052 15.3952C35.2537 15.7521 35.1507 16.0579 35.0478 16.3638C35.3052 16.4658 35.5111 16.6187 35.6656 16.8736C38.4971 13.764 40.6594 10.1956 42.101 6.16839C42.3584 5.50569 42.5643 4.74103 42.4099 4.02735C42.2039 3.41563 41.7406 3.05879 41.1743 3.00781Z" fill="#F4AF23"/>
<path d="M29.848 13.407C29.7965 13.3051 29.6936 13.2031 29.6421 13.1522C29.5391 13.0502 29.4361 12.9992 29.2817 12.9482V12.9992C28.9213 13.7639 28.458 14.4776 27.9946 15.0383C27.8402 15.1403 24.8026 18.8106 24.2363 19.9321C24.2878 20.0341 24.3393 20.085 24.3908 20.187C24.3908 20.187 24.3908 20.238 24.4423 20.238C24.4423 20.2889 24.4937 20.2889 24.4937 20.3399C24.4937 20.3399 24.4937 20.3909 24.5452 20.3909C24.5967 20.4928 24.6482 20.5948 24.6997 20.6968C24.6997 20.7477 24.7512 20.7987 24.7512 20.7987C24.8026 20.9007 24.8541 21.0026 24.9056 21.1046C24.9056 21.1555 24.9571 21.2065 24.9571 21.2065C24.9571 21.2575 25.0086 21.2575 25.0086 21.3085C25.0601 21.4104 25.1115 21.5124 25.1115 21.6143C25.6264 19.6262 27.0679 18.0459 28.355 16.6186L30.1054 14.7324C30.1569 14.2736 30.1054 13.7639 29.848 13.407Z" fill="#F4AF23"/>
<path d="M31.7015 21.4616C31.4441 20.9008 31.1352 20.3401 30.8263 19.8303C30.7748 19.7793 30.7748 19.6774 30.8263 19.6264C31.0837 19.3205 31.2381 18.9127 31.1352 18.4539C31.0322 17.9951 30.7748 17.6383 30.3629 17.4854C30.3114 17.4854 30.26 17.4344 30.26 17.3834C30.26 17.3324 30.26 17.2815 30.26 17.2305C30.4144 17.0266 30.3629 16.6697 30.2085 16.4658C30.0025 16.2619 29.6936 16.2619 29.4362 16.4148C29.3333 16.4658 29.2303 16.4658 29.1788 16.3639C29.1273 16.3129 29.1273 16.2619 29.1273 16.2109L28.6125 16.8736C27.3769 18.25 25.9354 19.8303 25.472 21.7165C25.4205 21.8184 25.4205 21.9713 25.4205 22.0733L25.2661 22.4811C25.2146 22.787 25.1631 23.0928 25.1631 23.4497C25.0601 24.4182 24.9572 25.3868 24.4938 26.2534C23.6186 27.8847 21.7137 28.7003 20.1692 29.363C19.9633 29.465 19.7574 29.5669 19.6544 29.6689C19.6029 29.7708 19.5514 29.8728 19.5514 30.0257C19.397 30.9433 19.397 31.9119 19.397 32.8295C19.397 33.2373 19.397 33.6451 19.6029 33.9C19.7059 34.0529 19.8603 34.1039 20.0148 34.1039C20.1177 34.1039 20.2207 34.0529 20.3237 33.9C20.3752 33.849 20.4266 33.798 20.5296 33.798C20.5811 33.798 20.6841 33.849 20.6841 33.951C20.7355 34.2058 21.0444 34.4097 21.3019 34.4607C21.4048 34.4607 21.6108 34.5117 21.7137 34.3078C21.7652 34.2568 21.7652 34.2058 21.8167 34.2058C21.8167 34.2058 21.8167 34.2058 21.8682 34.2058C21.9197 34.2058 21.9711 34.2058 21.9711 34.2568C22.1771 34.4607 22.5375 34.5117 22.8978 34.3588C23.2582 34.2058 23.4642 33.951 23.5156 33.6451C23.5156 33.5941 23.5671 33.5431 23.6186 33.4922C23.6701 33.4412 23.7216 33.4412 23.7731 33.4922C24.082 33.5941 24.4423 33.5431 24.7512 33.2883C25.0601 33.0334 25.2146 32.6765 25.1116 32.3707C25.1116 32.3197 25.1116 32.2177 25.2146 32.1668C25.2661 32.1158 25.369 32.1158 25.4205 32.1668C25.6265 32.3197 25.8839 32.2687 26.0898 32.1158C26.2443 32.0138 26.4502 31.7589 26.3472 31.555C26.3472 31.5041 26.3472 31.4021 26.3987 31.3511C26.4502 31.3001 26.5532 31.3001 26.6046 31.3511C26.965 31.555 27.3769 31.4531 27.6343 31.2492C27.8917 31.0453 28.1491 30.7394 28.0977 30.3316C28.0977 30.2296 28.1491 30.1787 28.2006 30.1277C28.2521 30.0767 28.3551 30.1277 28.4066 30.1787C28.5095 30.3316 28.7155 30.3316 28.8184 30.3316C29.0758 30.2806 29.3333 30.1277 29.4362 29.9238C29.5907 29.6179 29.5907 29.2101 29.4877 28.8023V28.7513C29.4877 28.6493 29.4362 28.5474 29.4362 28.4454C29.4362 28.3945 29.4362 28.2925 29.4877 28.2415H29.5392L29.9511 28.2925C30.157 28.1905 30.3629 27.9357 30.3629 27.7318C30.4144 27.5278 30.3629 27.3239 30.3629 27.12C30.3629 26.8651 30.3114 26.5593 30.4144 26.2534C30.4144 26.2534 30.4144 26.2534 30.4144 26.2024C30.4659 25.9476 30.6203 25.7946 30.7233 25.5907C30.8263 25.4378 30.8778 25.3358 30.9292 25.1829C31.0322 24.877 31.0322 24.5202 30.7748 24.3673C30.7233 24.3163 30.6718 24.2653 30.6718 24.2143C30.6718 24.1634 30.7233 24.0614 30.7748 24.0614C31.1352 23.9085 31.2381 23.8065 31.2896 23.6026C31.4441 23.6026 31.4441 23.5007 31.4441 23.3987C31.4441 23.1948 31.4956 22.9909 31.547 22.787C31.5985 22.685 31.65 22.634 31.7015 22.5321C31.753 22.4301 31.8045 22.3282 31.8559 22.2262C31.9589 22.0223 31.8045 21.7165 31.7015 21.4616ZM28.0462 25.4888C27.9947 25.6927 27.9432 25.8456 27.8917 26.0495C27.8917 26.1005 27.8402 26.2024 27.8402 26.2534C27.7888 26.3554 27.7373 26.4573 27.7373 26.5593C27.6858 26.6612 27.6858 26.7122 27.6343 26.8142C27.5828 26.9161 27.5828 26.9671 27.5313 27.0691C27.4799 27.171 27.4284 27.273 27.3769 27.3749C27.3769 27.4259 27.3254 27.4259 27.3254 27.4769C26.9135 28.0886 26.5017 28.5984 26.0898 29.1081C25.8839 29.363 25.6265 29.6179 25.369 29.8218C24.4423 30.6374 23.1038 31.4021 21.7137 31.4021C21.1989 31.4021 20.7355 31.3001 20.2722 31.0962C20.1692 31.0453 20.1692 30.9433 20.1692 30.8414C20.2207 30.7394 20.3237 30.7394 20.4266 30.7394C22.0741 31.5041 23.979 30.5865 25.1116 29.5669C25.2661 29.414 25.4205 29.2611 25.575 29.1081C25.7294 28.9552 25.8324 28.8023 25.9868 28.6493C26.0383 28.5984 26.0898 28.5474 26.1413 28.4454C26.2443 28.3435 26.2957 28.2415 26.3987 28.1396C26.4502 28.0886 26.5017 27.9866 26.5532 27.9357C26.6046 27.8337 26.7076 27.7318 26.7591 27.6298C26.8106 27.5788 26.8621 27.4769 26.9135 27.4259C26.965 27.3239 27.0165 27.222 27.068 27.12C27.1195 27.0181 27.1195 26.9671 27.171 26.8651C27.2224 26.7632 27.2739 26.6103 27.3254 26.5083C27.3769 26.4573 27.3769 26.3554 27.4284 26.3044C27.4799 26.1515 27.5313 26.0495 27.5828 25.8966C27.5828 25.8456 27.6343 25.7436 27.6343 25.6927C27.6858 25.4888 27.7373 25.2849 27.7888 25.0809L27.8917 24.6222C27.9432 24.3673 27.9432 24.1634 27.9947 23.9085C27.9947 23.8575 27.9947 23.8065 27.9947 23.7555C27.9947 23.5516 28.0462 23.2967 28.0462 23.0928C28.0462 22.838 28.0462 22.5831 28.0462 22.3282C27.9947 21.6655 27.8917 21.0028 27.6858 20.3911C27.6343 20.2891 27.6858 20.1871 27.7888 20.1871C27.8917 20.1362 27.9947 20.1871 27.9947 20.2891C28.1491 20.6969 28.2521 21.1557 28.3036 21.6145C28.3551 21.8694 28.3551 22.1243 28.4066 22.3792C28.4066 22.4301 28.4066 22.4811 28.4066 22.5321C28.4066 22.634 28.4066 22.736 28.4066 22.838C28.4066 22.9399 28.4066 22.9909 28.4066 23.0928C28.4066 23.1948 28.4066 23.2967 28.4066 23.3477C28.4066 23.5007 28.4066 23.6536 28.3551 23.8065C28.3551 23.8575 28.3551 23.9595 28.3551 24.0104C28.3551 24.1124 28.3036 24.2653 28.3036 24.3673C28.3036 24.4182 28.3036 24.4692 28.2521 24.5202C28.2006 24.6731 28.2006 24.877 28.1491 25.03L28.0462 25.4888Z" fill="#F4AF23"/>
<path d="M36.953 26.4069C36.747 26.203 36.5411 26.0501 36.2837 25.9481C36.2322 25.8972 36.1807 25.8972 36.1292 25.8462C36.0777 25.8462 36.0777 25.7952 36.0263 25.7952C35.8718 25.6933 35.6659 25.5913 35.4599 25.4893C34.7907 25.1325 34.2243 24.9796 33.8125 25.0306C33.8125 25.0815 33.8125 25.1835 33.864 25.2345C33.9154 25.5403 33.864 25.8972 33.8125 26.203L33.761 26.7638C33.8125 26.8148 33.9154 26.8148 34.0184 26.8657C34.5847 27.1206 35.4085 27.4775 35.7688 27.7833C36.1292 28.1402 36.3866 28.497 36.5926 28.9558C37.0559 28.8029 37.6222 28.2421 37.6222 27.8343C37.6737 27.3245 37.4163 26.8148 36.953 26.4069Z" fill="#F4AF23"/>
<path d="M35.8203 32.4727C35.7688 32.2178 35.7174 31.9629 35.5629 31.759C35.5114 31.708 35.5114 31.6571 35.4599 31.6061C35.4599 31.6061 35.4085 31.5041 35.3055 31.4022C35.0996 31.1473 34.8421 30.8924 34.5332 30.5865L33.5036 29.669C33.3491 29.516 33.1432 29.3631 32.9373 29.2102L32.8858 29.1592C32.9887 29.516 33.0402 29.9238 32.8343 30.3317C32.6284 30.7904 32.165 31.0963 31.7017 31.1983C32.5254 32.0139 33.4006 32.8295 34.3273 33.5942C34.6362 33.7981 35.151 33.7471 35.4085 33.4922C35.7174 33.2883 35.8718 32.8805 35.8203 32.4727Z" fill="#F4AF23"/>
<path d="M33.555 25.285C33.555 25.183 33.5035 25.081 33.5035 24.9791C33.4005 24.6223 33.1946 24.2654 32.8857 24.0615C32.7827 24.0105 32.7827 23.9596 32.6798 23.9086C32.4738 23.7556 32.1649 23.6537 31.8045 23.7047C31.8045 23.7556 31.8045 23.8066 31.7531 23.8576C31.7016 24.1635 31.5471 24.3164 31.2897 24.4183C31.4956 24.6732 31.4956 25.132 31.3412 25.4379C31.2897 25.5908 31.1867 25.7437 31.0838 25.8967C30.9808 26.1006 30.8778 26.2535 30.8264 26.4574C30.7749 26.6613 30.7749 26.9162 30.8264 27.1711C30.8264 27.375 30.8778 27.6299 30.8264 27.8338C30.7749 28.1906 30.5175 28.5475 30.2086 28.7004C30.1056 28.7514 30.0026 28.7514 29.8997 28.7514C30.0026 29.2612 30.0026 29.72 29.7967 30.1278C29.6422 30.4336 29.2819 30.6885 28.9215 30.7395C28.767 30.7395 28.6641 30.7395 28.5096 30.6885C28.4581 31.0454 28.2522 31.3512 27.8918 31.6061C27.5314 31.861 27.1196 31.963 26.7592 31.861C26.7077 32.1159 26.5532 32.3708 26.2958 32.5237C26.0384 32.6766 25.781 32.7276 25.5236 32.6766C25.5236 33.0335 25.3176 33.3903 25.0087 33.6452C24.6484 33.9511 24.2365 34.053 23.8761 34.002C23.7731 34.3589 23.4642 34.6138 23.1039 34.7667C22.692 34.9196 22.2801 34.9196 21.9712 34.7157C21.8683 34.8177 21.6623 34.8686 21.4564 34.8686C21.4049 34.8686 21.3534 34.8686 21.3019 34.8686C20.993 34.8177 20.6841 34.6138 20.5297 34.3589C20.4267 34.4608 20.2723 34.4608 20.1178 34.5118C19.8604 34.5118 19.6545 34.4098 19.4485 34.2569C19.4485 34.3079 19.4485 34.4098 19.4485 34.4608C19.3971 34.8686 19.3456 35.2765 19.3971 35.5823C19.4485 36.0411 19.6545 36.7038 20.1693 36.8567C20.4267 36.9587 20.7356 36.8058 20.8901 36.6528C20.993 36.5509 21.096 36.398 21.0445 36.194C20.993 36.0921 21.0445 35.9901 21.1475 35.9392C21.2505 35.8882 21.3534 35.9392 21.4049 36.0411C21.6108 36.4489 22.0742 36.6019 22.4346 36.6019C22.795 36.6019 23.2583 36.4489 23.4642 36.0411C23.4642 35.9901 23.5157 35.9392 23.5672 35.9392C23.6187 35.9392 23.6702 35.9392 23.7217 35.9901C23.7731 36.0411 23.8761 36.0921 23.9791 36.1431C24.0306 36.194 24.082 36.194 24.1335 36.194C24.1335 36.194 24.2365 36.245 24.3395 36.296H24.3909C24.4939 36.347 24.5969 36.347 24.6998 36.347C24.9573 36.347 25.2147 36.0411 25.2147 35.7862C25.2147 35.7353 25.2662 35.6333 25.3176 35.6333C25.3691 35.5823 25.4721 35.6333 25.5236 35.6843C25.5236 35.6843 25.5236 35.6843 25.5751 35.7353C25.5751 35.7353 25.7295 35.8372 25.781 35.8372C25.8325 35.8372 25.884 35.8882 25.9354 35.8882C26.0899 35.8882 26.2443 35.8882 26.3988 35.7862C26.7077 35.6333 26.8621 35.2765 26.8107 34.9196C26.8107 34.8686 26.8107 34.7667 26.8621 34.7157C26.9136 34.6647 27.0166 34.6647 27.0681 34.7157C27.4285 34.9196 27.7888 34.8177 28.0463 34.6138C28.3037 34.4608 28.5611 34.104 28.5096 33.7471C28.5096 33.6962 28.5096 33.6962 28.5096 33.6452L28.5611 33.5942C28.6126 33.5942 28.6126 33.5942 28.6641 33.5942C28.7155 33.5942 28.7155 33.5942 28.767 33.6452C28.87 33.7471 29.0244 33.7471 29.1274 33.7471C29.3333 33.6962 29.5908 33.5942 29.6937 33.3903C29.8997 33.0335 29.8997 32.6257 29.8482 32.1159C29.8482 32.0649 29.8482 32.0649 29.8482 32.0139C29.8482 31.963 29.8997 31.9629 29.8997 31.9629C29.9511 31.9629 29.9511 31.9629 30.0026 31.9629C30.0541 31.9629 30.0541 31.963 30.1056 32.0139C30.3115 32.2178 30.6719 32.2688 30.9293 32.1159C31.1867 31.963 31.2382 31.5551 31.0838 31.3002C31.0323 31.2493 31.0323 31.1473 31.0838 31.0963C31.1353 31.0454 31.1867 30.9944 31.2382 30.9944C31.7531 31.0454 32.2679 30.7395 32.4738 30.2807C32.7312 29.72 32.3709 29.0573 32.2679 28.8533C32.2164 28.8024 32.2164 28.7004 32.2679 28.6494C32.3194 28.5985 32.4223 28.5475 32.4738 28.5985C32.6798 28.7004 32.9372 28.5475 33.0916 28.3436C33.2461 28.0887 33.2976 27.7828 33.2976 27.5279L33.452 26.2535C33.555 25.8967 33.6065 25.5908 33.555 25.285Z" fill="#F4AF23"/>
<path d="M36.4897 29.8729C36.4897 29.7199 36.4382 29.618 36.3867 29.4651C36.3867 29.4141 36.3352 29.3631 36.3352 29.3121C36.3352 29.2612 36.2838 29.1592 36.2838 29.1592C36.2838 29.1082 36.2323 29.0572 36.2323 29.0063C36.0778 28.6494 35.8204 28.2926 35.563 28.0377C35.3056 27.7828 34.4304 27.426 33.967 27.1711C33.9155 27.1711 33.864 27.1201 33.8126 27.1201L33.7611 27.477C33.7096 27.7828 33.6581 28.1397 33.5037 28.4455C33.4007 28.5985 33.2462 28.7514 33.0918 28.8024C33.1433 28.8533 33.1948 28.9043 33.2462 28.9043C33.4522 29.0572 33.6581 29.2102 33.864 29.3631L34.8937 30.2807C35.2026 30.5866 35.5115 30.8924 35.7689 31.1983C36.0263 31.1983 36.3352 31.0454 36.4382 30.7905C36.4897 30.6375 36.5412 30.2807 36.4897 29.8729Z" fill="#F4AF23"/>
<path d="M10.3361 3.97667C10.542 5.81185 11.7262 7.39214 13.3221 7.95288C15.0211 8.56461 17.0804 7.79995 17.8012 6.32162C18.0586 5.81185 18.1616 5.20012 18.2645 4.63937C18.3675 4.02765 18.419 3.41592 18.316 2.85518C15.7419 2.70225 13.0132 2.70225 10.4391 2.85518C10.3361 3.21202 10.2846 3.56886 10.3361 3.97667Z" fill="#F4AF23"/>
<path d="M46.6833 48.4282C46.1684 47.4087 45.4991 46.1852 44.5724 45.2676C43.8517 44.554 43.0279 43.9422 42.2042 43.3815C41.7409 43.0246 41.226 42.7188 40.7627 42.311C40.7112 42.26 35.6658 38.3347 34.8421 37.876C34.3787 37.5701 33.7609 37.1113 33.2976 36.7545C33.2461 36.5506 33.1946 36.3976 33.1431 36.2957C33.1946 36.0918 33.1946 35.9388 33.1431 35.7349C33.1946 35.7349 33.2461 35.7349 33.2976 35.7349C33.658 35.7349 33.9669 35.633 34.2243 35.4291C34.5847 35.1742 34.6876 34.6644 34.6876 34.2566C35.0995 34.3076 35.5114 34.1546 35.8203 33.8997C36.2321 33.5429 36.3866 32.9822 36.3351 32.4214C36.2836 32.1665 36.2321 31.9116 36.1292 31.7077C36.3866 31.6058 36.644 31.4019 36.7985 31.147C37.0044 30.7901 37.1074 30.3314 37.0044 29.7706C37.0044 29.6177 36.9529 29.5157 36.9014 29.3628C37.5192 29.1079 38.137 28.4452 38.137 27.7825C38.137 27.4766 38.0855 27.2218 37.9826 26.9159C39.2182 25.7434 40.7627 24.2651 41.5349 22.3789C42.0498 21.1555 41.9983 18.9125 41.7409 17.4851C41.9983 17.0263 42.2042 16.6185 42.4101 16.2107C42.9765 15.0892 43.5943 13.4579 42.7705 12.1835C42.6676 12.0306 42.5131 11.8777 42.4101 11.7757C42.6161 11.3679 42.7705 11.062 42.8735 10.7052C43.1824 9.73662 42.822 8.36024 42.1527 7.59558C42.3587 7.13679 42.5131 6.72897 42.6161 6.37213C42.8735 5.65845 43.1309 4.79184 42.925 3.92523C42.719 3.16058 42.1527 2.65081 41.4834 2.54885C41.5349 2.19201 41.5864 1.73322 41.432 1.3254C41.226 0.713679 40.5567 0.203908 39.8875 0.356839C39.4241 0.509771 39.1152 0.86661 38.9093 1.27443C38.4974 1.88615 38.137 2.59983 37.7252 3.36449V3.31351C37.6222 2.95667 37.3648 2.59983 37.0559 2.4469C37.0044 2.4469 36.9529 2.39592 36.9014 2.39592C36.9014 2.34494 36.9014 2.29397 36.9014 2.24299C36.9529 1.47833 36.4896 0.611725 35.6658 0.356839C34.9451 0.152931 34.2758 0.560748 33.9154 0.968564C33.5035 1.37638 33.2976 1.88615 33.0917 2.34494L33.0402 2.39592C31.7016 5.25064 30.0541 7.90145 27.9948 10.2974C27.8404 10.3483 27.6344 10.4503 27.5315 10.5523C27.0681 10.8581 26.7077 11.3169 26.3988 11.7247C25.987 12.2855 25.2147 13.4579 24.4425 14.5285C23.9276 15.3441 23.3613 16.1597 22.9494 16.7205C22.9494 16.6695 22.898 16.5675 22.898 16.5166V16.3636C22.8465 16.2107 22.8465 16.0578 22.8465 15.9048V15.8029C22.8465 15.599 22.8465 15.446 22.8465 15.2931C23.8761 14.3755 24.5969 13.254 25.2662 11.8777C26.0384 10.3993 26.2959 9.17587 26.1414 8.05438C25.987 6.8819 25.2662 5.70943 24.2365 4.99575C23.3098 4.33305 20.2208 2.85472 18.7793 2.70178C18.7793 2.65081 18.7793 2.59983 18.7278 2.54885V2.49788C18.6763 2.34494 18.6248 2.19201 18.5734 2.03908C17.8526 0.305862 15.6903 0.0509771 14.4547 0C12.7043 0 11.3657 0.458793 10.5934 1.3254C10.2845 1.63127 10.0786 1.98811 9.92416 2.39592C9.92416 2.4469 9.87267 2.49788 9.87267 2.59983V2.65081C9.82119 3.16058 9.76971 3.61937 9.82119 4.07817C10.0271 6.11725 11.3657 7.85047 13.1676 8.51317C13.631 8.6661 14.0943 8.76805 14.5577 8.76805C16.1536 8.76805 17.6467 7.90144 18.2645 6.62702C18.3674 6.47409 18.4189 6.27018 18.4704 6.06627C18.7278 6.01529 19.2426 5.86236 19.706 5.60748C21.096 5.35259 22.1257 5.86236 22.6405 6.16822C23.8247 6.8819 24.4425 8.05438 24.4425 8.81903C24.4425 11.8777 20.8901 12.4894 15.8962 13.305C15.3814 13.407 14.8666 13.4579 14.3517 13.5599C13.631 13.6619 12.3954 14.0187 11.9835 15.0892C11.9835 15.1402 11.932 15.1912 11.932 15.2421C11.8805 15.3441 11.8805 15.3951 11.829 15.497C11.7776 15.599 11.6746 15.65 11.5716 15.7009C11.2627 15.9048 10.9538 16.0068 10.5934 16.1597C9.82119 16.5166 9.04894 16.8224 8.63708 17.6381C8.07076 18.8105 8.84301 20.1359 9.61526 21.0025C9.71822 21.1045 9.82119 21.2574 10.0271 21.3594C10.3875 21.5123 10.7994 21.3594 11.2112 20.9006C11.5716 20.4928 12.0865 20.1359 12.7557 19.8811C13.1161 19.7281 13.425 19.6771 13.631 19.7791C13.7339 19.8301 13.8369 19.932 13.8884 20.034C14.0428 20.3398 13.7339 20.7477 13.425 20.9516C13.0646 21.2065 12.6528 21.3084 12.1379 21.2574H11.9835C11.7261 21.2065 11.4687 21.2065 11.2112 21.2574C10.8509 21.3594 10.439 21.6653 10.439 22.0731C10.439 22.9397 10.7479 23.4494 11.3657 23.6024C11.6746 23.6534 11.932 23.6534 12.1894 23.6024C12.3954 23.6024 12.6013 23.5514 12.8072 23.6024C13.5795 23.7043 14.0428 24.6729 14.0428 25.4885C14.0943 26.9669 13.2706 28.3432 12.4468 29.6686V29.6177C12.3439 29.8216 12.1894 30.0255 12.0865 30.2294C11.2627 31.6058 10.5934 33.1351 10.0786 34.6644C9.66674 35.9898 9.20339 37.672 9.71822 39.3543C9.76971 39.4562 9.82119 39.6092 9.82119 39.7111C9.92416 40.068 10.0786 40.3738 10.0271 40.7307C10.0271 40.9856 9.92416 41.1895 9.82119 41.4444C9.30636 42.8207 8.63707 44.401 7.91631 45.9813C7.24703 47.5106 6.52626 49.0909 6.01143 50.5183C5.95994 50.7222 5.85698 50.9771 5.75401 51.2319V51.2829C5.44511 52.2005 5.03324 53.424 4.62138 53.9337C4.20951 54.4435 3.59171 54.9023 3.02539 55.3101C2.87094 55.4121 2.71649 55.565 2.56204 55.667C2.51056 55.7179 2.30463 55.7689 2.20166 55.8199C1.48089 56.0748 0.296776 56.4316 0.0393591 57.5021C-0.115091 58.1138 0.193809 58.6236 0.811609 58.8785C1.01754 59.0824 1.37793 59.1844 1.84128 59.1844C2.20166 59.6432 3.02539 59.7451 3.54023 59.6941C5.03324 59.949 6.68071 59.898 8.17373 59.5922C8.27669 59.5922 8.37966 59.4902 8.43114 59.3883C9.71822 56.0238 10.9023 53.4749 11.8805 51.8437C12.0865 51.4868 12.3439 51.079 12.6013 50.6202C13.1676 49.6517 13.7854 48.5811 14.3002 47.8675C14.6606 47.3577 15.021 46.7969 15.3814 46.0833C18.9852 49.9575 26.8622 51.3339 30.0541 51.3849C30.6719 52.8632 31.5986 54.2906 32.8857 55.514C30.9808 55.3101 29.076 55.3101 27.377 55.4121C26.8107 55.4121 26.1929 55.514 25.6266 55.616L25.2147 55.667C24.288 55.8199 23.7732 56.5336 23.5158 56.9414C23.2583 57.4002 23.0524 58.0629 23.1554 58.4197C23.3613 58.9295 23.8761 59.2863 24.4425 59.2863C25.1632 59.8471 26.6048 59.949 27.377 59.949H27.5315C28.0463 60 28.6126 60 29.2304 60C30.1056 60 30.9294 59.949 31.7531 59.949L39.5271 59.6432C39.8875 59.6432 40.2478 59.5922 40.6597 59.5922C40.7627 59.5922 40.8142 59.5922 40.9171 59.5412L46.1684 59.4393C46.4773 59.4393 46.7862 59.4393 47.1466 59.3373C47.7644 59.1334 48.3307 58.6746 48.6396 57.9609C48.897 57.4511 49 56.8394 49 56.0748C49 53.373 47.8674 50.7732 46.6833 48.4282ZM1.27496 56.9414C1.01754 57.2472 0.863092 57.5531 0.708642 57.9099C0.708642 57.808 0.708642 57.757 0.708642 57.6551C0.811609 57.3492 0.966059 57.1453 1.27496 56.9414ZM41.9983 57.757C41.8438 57.2982 41.5349 56.9414 41.1745 56.6355C39.4756 54.9533 37.6222 53.373 35.6658 51.9966C35.5114 51.8946 35.3054 51.9456 35.2025 52.0476C35.0995 52.2005 35.151 52.4044 35.254 52.5064C37.1588 53.8828 39.0122 55.463 40.7112 57.0943C41.0201 57.4002 41.2775 57.6551 41.3805 57.9609C41.4834 58.2158 41.432 58.5726 41.226 58.7256C41.1231 58.7766 41.0201 58.8275 40.8656 58.8275H40.3508C40.2993 58.8275 40.2478 58.8275 40.1964 58.8785C39.9389 58.8785 39.733 58.8785 39.4756 58.9295L31.8046 59.2353C30.4145 59.2863 28.973 59.3373 27.5829 59.2353H27.4285C27.1711 59.2353 26.7592 59.1844 26.3473 59.1334C26.2444 59.0824 26.1929 59.0314 26.1929 58.9295C26.1414 58.7766 26.1414 58.5726 26.1929 58.3687C26.1929 58.2158 26.1929 58.0629 26.2444 57.9609C26.3473 57.706 26.5533 57.5021 26.8622 57.4002C27.0166 57.3492 27.2226 57.2982 27.4285 57.2982C27.5315 57.2982 27.6859 57.2982 27.8404 57.2982C27.9433 57.2982 27.9948 57.2982 28.0978 57.2472C28.1493 57.1963 28.2007 57.0943 28.2522 57.0433C28.2522 56.9414 28.2522 56.8904 28.2007 56.7884C28.1493 56.7375 28.0463 56.6865 27.9948 56.6865C27.48 56.6355 27.0681 56.6355 26.7077 56.7884C26.2444 56.9414 25.8325 57.2982 25.6781 57.757C25.6266 57.9609 25.5751 58.1648 25.5751 58.3687C25.5751 58.5726 25.5751 58.7766 25.5751 58.9805C25.1632 58.8785 24.8543 58.6746 24.7514 58.4707C24.7514 58.4707 24.7514 58.4197 24.7514 58.3178C24.9058 57.6041 25.5236 56.9924 26.1929 56.7375C26.3473 56.6865 26.4503 56.4826 26.3988 56.3297C26.3473 56.2277 26.2959 56.1767 26.1929 56.1257C26.6048 56.0748 27.0166 56.0238 27.4285 55.9728C29.4363 55.9218 31.5986 55.8709 33.7609 56.2277C33.8639 56.3297 33.9669 56.3297 34.1213 56.2787C34.3787 56.3297 34.5847 56.3806 34.8421 56.4316H34.8936C35.8717 57.2982 36.7985 57.808 37.7766 57.9609C37.9826 58.0119 38.2915 57.9099 38.4459 57.706C38.5489 57.5531 38.4974 57.3492 38.3944 57.2472C38.343 57.1963 38.24 57.1453 38.1885 57.1453C38.0855 57.1453 38.034 57.1453 37.9311 57.1963C37.8796 57.2472 37.8281 57.2982 37.8281 57.3492C36.1807 57.0943 34.8936 55.667 33.8124 54.3415C32.7313 53.0161 31.7531 51.6907 31.4442 50.1614C31.2383 48.938 31.4957 47.6126 32.2164 46.593C32.9372 45.5735 34.0184 44.8088 35.254 44.554C35.8718 44.401 36.541 44.401 37.3133 44.503C38.8578 44.6559 40.3508 45.2167 41.6379 46.0323C41.7923 46.1342 41.9983 46.0833 42.1012 45.9303C42.1527 45.8794 42.1527 45.7774 42.1527 45.6754C42.1527 45.5735 42.1012 45.5225 41.9983 45.4715C40.6082 44.554 39.0122 43.9932 37.3648 43.7893C36.541 43.6873 35.7688 43.7383 35.0995 43.8913C33.7095 44.1971 32.4224 45.0127 31.5986 46.2362C31.4442 46.4911 31.2897 46.746 31.1353 47.1028C30.9294 47.5616 30.8779 47.7655 30.8779 47.8675C30.6719 48.6831 30.6205 49.5497 30.7234 50.3144C31.0323 51.9966 32.062 53.424 33.1946 54.8003C33.4006 55.0552 33.658 55.3611 33.9154 55.667C32.2679 54.2396 31.0838 52.5574 30.4145 50.7732L30.363 50.6712L29.8997 50.7222C25.884 50.6202 18.6248 48.887 15.5873 45.4715C16.3081 44.1971 16.9774 42.9227 17.5437 41.6992C17.5952 41.5463 17.5437 41.3424 17.3892 41.2404C17.2348 41.1895 17.0289 41.2404 16.9259 41.3934C15.9477 43.4834 14.8151 45.5225 13.528 47.4596C13.0132 48.2243 12.3439 49.3458 11.829 50.2634L11.7776 50.3144C11.5201 50.7222 11.3142 51.13 11.1083 51.4868C10.1301 53.1181 8.99746 55.667 7.71037 58.9805C6.42329 59.2353 5.03324 59.2863 3.74616 59.0824C3.74616 58.6236 3.95209 58.1138 4.31248 57.706C4.72434 57.2472 5.23918 56.9414 5.80549 56.8904C5.90846 56.8904 5.95994 56.8394 6.01143 56.7884C6.06291 56.7375 6.11439 56.6355 6.11439 56.5336C6.11439 56.3297 5.95994 56.2277 5.75401 56.2277C5.03324 56.2787 4.31248 56.6865 3.79764 57.2982C3.38578 57.808 3.12836 58.4197 3.07688 59.0314C2.71649 59.0314 2.30463 58.8785 2.20166 58.7766C2.20166 58.7766 2.15018 58.6746 2.30463 58.4197C2.71649 57.5531 3.59171 56.9924 4.46693 56.4316L4.82731 56.1767C5.39363 55.8199 5.90846 54.9533 6.21736 54.4945C6.47478 54.0867 11.0568 43.7893 12.3954 39.915C12.4468 39.8131 12.3954 39.7111 12.3439 39.6602C11.5716 38.3348 11.2627 37.2133 11.3657 36.1937C11.4687 35.1232 12.2924 33.9507 13.425 33.7978C13.528 33.7978 13.5795 33.7468 13.631 33.6958C13.6824 33.6449 13.7339 33.5429 13.6824 33.441C13.6824 33.339 13.631 33.288 13.5795 33.237C13.6824 33.1861 13.631 33.1861 13.528 33.1861C11.9835 33.339 11.0053 34.8683 10.8509 36.1937C10.7479 37.3152 11.0568 38.5387 11.8805 39.915C10.439 44.0442 5.95994 53.9337 5.80549 54.2396C5.39363 54.9533 4.93027 55.514 4.62138 55.7179C4.51841 55.7689 4.41544 55.8709 4.31248 55.9218L4.26099 55.9728C3.33429 56.5845 2.40759 57.1963 1.89276 58.2158C1.84128 58.3687 1.78979 58.4707 1.73831 58.6236C1.37793 58.6236 1.32644 58.5217 1.32644 58.5217C1.32644 58.5217 1.27496 58.4707 1.37793 58.2668C1.73831 57.2982 2.61353 56.6355 3.54023 55.9218C4.15803 55.463 4.77583 55.0042 5.23918 54.4435C5.75401 53.8318 6.16587 52.6083 6.47478 51.5888C6.57774 51.2829 6.62923 51.028 6.73219 50.8241C7.24703 49.4478 7.91631 47.8675 8.58559 46.3891V46.3382C9.25488 44.8088 9.97564 43.2285 10.4905 41.8012C10.5934 41.4953 10.6964 41.2404 10.7479 40.8836C10.7994 40.4248 10.6449 40.017 10.4905 39.5582C10.439 39.4562 10.439 39.3543 10.3875 39.2523C9.92416 37.774 10.336 36.1937 10.7479 34.9703C11.2627 33.4919 11.8805 32.0136 12.7043 30.6882C12.8072 30.4843 12.9617 30.2804 13.1161 30.0255C13.9913 28.5981 14.8666 27.1708 14.8151 25.4885C14.7636 24.367 14.1458 23.1436 13.0132 22.9907C12.7557 22.9397 12.4983 22.9907 12.2409 22.9907C11.9835 22.9907 11.7776 23.0416 11.5716 22.9907C11.4687 22.9907 11.2112 22.8887 11.1598 22.124C11.1598 22.0731 11.3142 21.9711 11.4172 21.9201C11.5716 21.8692 11.7776 21.9201 11.9835 21.9201H12.1379C12.7557 21.9711 13.3735 21.8692 13.8369 21.5123C14.4032 21.1555 14.8666 20.4418 14.5577 19.7791C14.4547 19.4732 14.2488 19.2693 13.9399 19.1674C13.5795 19.0144 13.0646 19.0654 12.5498 19.2693C11.7776 19.5752 11.1598 19.983 10.7479 20.4928C10.542 20.7477 10.3875 20.7986 10.336 20.7986C10.2845 20.7986 10.2331 20.6967 10.1816 20.6457C9.76971 20.1869 9.46081 19.7281 9.30636 19.3203C9.35784 19.2693 9.46081 19.2693 9.51229 19.2184C9.56377 19.2184 9.56378 19.2184 9.61526 19.2184C9.87267 19.2184 10.1816 19.2693 10.439 19.1164C10.8509 18.9125 11.1598 18.4027 11.0053 17.9439C10.9538 17.842 10.8509 17.74 10.7479 17.74C10.439 17.689 10.0786 17.791 9.82119 17.9949C9.61526 18.1478 9.46081 18.3517 9.30636 18.5047L9.25487 18.6066L9.20339 18.6576C9.20339 18.4537 9.25488 18.2498 9.35784 18.0459C9.61526 17.4851 10.2845 17.1793 10.9538 16.9244C11.3142 16.7715 11.6746 16.6185 11.9835 16.4146C12.1379 16.3127 12.2924 16.2107 12.4468 16.0068C12.5498 15.8539 12.6013 15.7519 12.6528 15.599C12.6528 15.548 12.7043 15.497 12.7043 15.4461C13.0132 14.6814 14.0428 14.4265 14.6091 14.3246C15.124 14.2226 15.5873 14.1716 16.0507 14.0697H16.1536C21.4564 13.1521 25.2662 12.5404 25.2662 8.92099C25.2662 7.79949 24.391 6.47409 23.1554 5.70943C22.6405 5.40357 21.8168 4.99575 20.7357 4.99575C20.6327 4.74087 20.6842 4.63891 20.6842 4.58794C20.7357 4.33305 20.6327 4.12914 20.4782 3.87426C21.8168 4.38403 23.3098 5.14868 23.8761 5.5565C24.7514 6.16822 25.3692 7.13679 25.5236 8.15633C25.6781 9.12489 25.4206 10.2464 24.6999 11.6228C24.288 12.4894 23.7732 13.356 23.1039 14.1206C23.1039 13.8148 23.0524 13.5089 22.9494 13.2031C22.898 13.1011 22.8465 13.0501 22.7435 12.9992C22.6405 12.9482 22.5376 12.9482 22.4861 12.9992C21.7138 13.407 20.7871 13.6109 19.9119 13.6619C19.7575 13.6619 19.603 13.6619 19.4486 13.6619H19.3971C19.1397 13.6619 18.8823 13.6619 18.6248 13.6619C18.007 13.7128 17.4407 13.8658 16.8744 14.1206C16.7714 14.1716 16.72 14.2226 16.72 14.3246C16.6685 14.4265 16.6685 14.4775 16.72 14.5794C16.7714 14.7324 16.9774 14.8343 17.1833 14.7324C17.6467 14.5285 18.1615 14.3755 18.6763 14.3755C18.9337 14.3755 19.1912 14.3755 19.4486 14.3755C19.603 14.3755 19.809 14.3755 19.9634 14.3755C20.7871 14.3246 21.6624 14.1716 22.4346 13.8148C22.4861 14.3755 22.3316 14.9873 21.9198 15.497C21.4564 16.0578 20.7357 16.3636 19.9119 16.4146C19.6545 16.4146 19.3456 16.4146 19.0367 16.4146L17.7496 16.3636C17.6467 16.3636 17.5952 16.3636 17.4922 16.4656C17.4407 16.5166 17.3892 16.6185 17.3892 16.7205C17.3892 16.9244 17.5437 17.0773 17.6981 17.0773L18.9852 17.1283C19.2941 17.1283 19.603 17.1793 19.9119 17.1283C20.7871 17.0773 21.6109 16.7205 22.1772 16.1597V16.2107L22.2287 16.5675C22.2287 16.6695 22.2802 16.8224 22.2802 16.9244C22.2802 17.0263 22.3316 17.0773 22.3316 17.1793L22.3831 17.2812C22.3831 17.3832 22.4346 17.4342 22.4346 17.5361C22.4861 17.74 22.5891 17.9439 22.6405 18.1478C22.8465 18.6066 23.0524 19.0654 23.2583 19.4223C23.3613 19.6262 23.4643 19.7791 23.5672 19.983C23.6702 20.1359 23.7732 20.3398 23.8761 20.5438C23.9791 20.6967 24.0821 20.9006 24.1336 21.0535L24.288 21.0025H24.2365C24.4425 21.4104 24.5969 21.7162 24.6999 22.0221C24.6999 22.0731 24.6999 22.124 24.7514 22.175C24.7514 22.226 24.8028 22.328 24.8028 22.3789C24.7514 22.7358 24.6999 23.0926 24.6999 23.3985C24.5969 24.3161 24.4939 25.2336 24.0821 25.9983C23.3098 27.4766 21.5594 28.2413 20.0149 28.904C19.809 29.0059 19.4486 29.1589 19.2941 29.4138C19.1397 29.6177 19.0882 29.8216 19.0882 29.9745C18.9337 30.9431 18.9337 31.9116 18.9337 32.8802C18.9337 33.1351 18.9337 33.441 18.9852 33.6958C18.9852 33.8997 18.9337 34.1546 18.9337 34.4095C18.8823 34.8173 18.8308 35.2761 18.8823 35.633C18.8823 35.8369 18.9337 36.0408 19.0367 36.2447C18.8308 37.0603 18.6763 38.0799 18.6763 38.7935C18.6763 39.1504 18.7278 39.5072 18.8823 39.8641C19.0367 40.1699 19.3971 40.4758 19.8604 40.4758C19.9119 40.4758 19.9119 40.4758 19.9634 40.4758C20.2723 40.4248 20.5812 40.1699 20.8901 39.7111C21.0446 39.915 21.199 40.068 21.3535 40.1699C21.5594 40.3738 21.8683 40.6287 22.2287 40.6797C22.4861 40.7307 22.7435 40.5268 22.898 40.3738C22.9494 40.3229 23.0009 40.2719 23.0524 40.2209C23.1554 40.3738 23.3098 40.5268 23.4643 40.6287C23.6702 40.8326 23.9791 41.0365 24.288 41.0365H24.3395C24.8543 40.9856 25.2147 40.6797 25.4206 40.068C25.6781 40.2719 25.9355 40.3738 26.2444 40.3738C26.6048 40.3738 27.0681 40.1699 27.3255 39.7111C27.377 39.7621 27.4285 39.8131 27.48 39.8131C27.9948 40.1189 28.5611 40.2209 29.076 40.017C29.4878 39.8641 29.7452 39.5582 29.8482 39.2014C30.0027 39.2014 30.1056 39.2014 30.2086 39.2014C30.569 39.1504 30.9294 38.8955 31.1868 38.4877C31.3412 38.2328 31.3927 37.9779 31.3927 37.723C31.4957 37.723 31.5472 37.723 31.6501 37.723C32.062 37.6721 32.4739 37.4681 32.7828 37.1623C32.8342 37.1623 32.8342 37.2133 32.8857 37.2133C33.3491 37.5701 34.2758 38.2328 34.3273 38.2328C34.3787 38.2838 39.3726 42.0051 40.4538 42.8207C40.9171 43.1776 41.432 43.5344 41.9468 43.8913C42.719 44.452 43.5428 45.0127 44.2121 45.6754C45.0873 46.5421 45.7051 47.7145 46.2199 48.6831C47.404 50.9771 48.4852 53.424 48.4852 56.0748C48.4852 56.7375 48.3822 57.2982 48.1763 57.706C47.9188 58.2158 47.5585 58.5726 47.0951 58.7256C46.8377 58.7766 46.5803 58.7766 46.3229 58.8275L42.1527 58.8785C42.1527 58.5217 42.1012 58.0629 41.9983 57.757ZM24.0821 58.2158C24.0821 58.2668 24.0306 58.3687 24.0306 58.4197C23.9276 58.3687 23.8761 58.2668 23.8247 58.1648C23.8247 58.1138 23.8761 57.706 24.1336 57.2982C24.3395 56.9924 24.7514 56.4316 25.3692 56.3297L25.781 56.2787C25.781 56.2787 25.781 56.2787 25.8325 56.2787C24.9573 56.5845 24.288 57.3492 24.0821 58.2158ZM37.5192 5.50552C38.137 4.02719 38.7548 2.70178 39.4241 1.58029C39.5786 1.3254 39.7845 1.01954 39.9904 0.968564C40.2993 0.86661 40.6082 1.17247 40.7112 1.47833C40.8656 1.88615 40.7627 2.34494 40.6597 2.75276C39.5786 6.98386 36.9014 10.5523 34.5332 13.6619C34.4817 13.6109 34.3787 13.6109 34.3273 13.6109C34.4817 13.254 34.6362 12.8972 34.5847 12.4894C34.5332 11.9796 34.2243 11.4189 33.6065 11.3679L36.3866 7.44265C36.7985 6.83093 37.2618 6.16822 37.5192 5.50552ZM26.9651 38.4367C26.4503 37.723 26.0899 37.0093 25.9355 36.3466C26.1414 36.3466 26.3473 36.2957 26.5533 36.1937C26.8622 36.0408 27.1196 35.7349 27.1711 35.3781C27.2226 35.9898 27.377 36.5506 27.5315 37.0093C27.6344 37.4172 27.7889 37.876 28.0978 38.2328C28.2522 38.3857 28.4067 38.5387 28.5096 38.6406C28.7156 38.7935 28.9215 38.9465 29.076 39.0484C29.0245 39.2523 28.9215 39.3543 28.7156 39.4562C28.4582 39.5582 28.0463 39.5072 27.7374 39.3033C27.48 39.0484 27.2226 38.7426 26.9651 38.4367ZM21.302 37.0603C21.3535 37.0093 21.4049 36.9584 21.4564 36.8564C21.6624 37.0093 21.9198 37.0603 22.1772 37.1113C22.2287 37.9779 22.3316 38.8445 22.6405 39.5582C22.6405 39.6092 22.5891 39.7621 22.4346 39.8641C22.3316 39.966 22.2802 39.966 22.2802 40.017C22.1257 39.966 21.9713 39.8641 21.8168 39.6602C21.6109 39.4562 21.4049 39.3033 21.302 39.0484C21.0446 38.6406 20.9416 38.0799 20.9416 37.2642C21.0446 37.2642 21.1475 37.1623 21.302 37.0603ZM23.6702 36.6015C23.7217 36.6015 23.7217 36.6525 23.7732 36.6525C23.7732 37.5191 24.2365 38.3348 24.5454 38.9465C24.6484 39.1504 24.7514 39.3033 24.8543 39.4562C24.6999 40.068 24.5454 40.3229 24.2365 40.3229C24.1336 40.3229 23.9791 40.2209 23.8247 40.068C23.0009 39.3543 22.8465 38.1308 22.795 37.0093C23.1554 37.0093 23.4643 36.8054 23.6702 36.6015ZM24.6484 36.8564C24.9058 36.8564 25.1117 36.7035 25.3177 36.5506C25.5236 37.2642 25.884 38.0289 26.4503 38.7935C26.5533 38.9465 26.6562 39.0484 26.7592 39.2014C26.7077 39.6092 26.3473 39.7111 26.2444 39.7111C25.781 39.7111 25.4206 39.1504 25.1632 38.6916C24.9058 38.1818 24.5454 37.5191 24.4939 36.9074C24.5454 36.8564 24.5969 36.8564 24.6484 36.8564ZM28.2007 36.8054C28.0463 36.2957 27.8918 35.7859 27.8918 35.2252C28.0463 35.1742 28.1493 35.1232 28.3037 35.0212C28.4582 34.9193 28.6126 34.7664 28.7156 34.6644C28.8185 34.9703 28.973 35.2761 29.076 35.48C29.3334 35.9898 29.5393 36.4996 29.9512 36.9584C30.1571 37.2133 30.466 37.4172 30.7234 37.5191C30.7749 37.723 30.7234 37.9779 30.6205 38.1818C30.5175 38.3857 30.3116 38.5387 30.1571 38.5896C29.8482 38.6406 29.4878 38.4877 29.076 38.1308C28.973 38.0289 28.8185 37.9269 28.7156 37.825C28.4067 37.5191 28.3037 37.1623 28.2007 36.8054ZM20.0149 37.3662C20.0664 37.3662 20.1693 37.4172 20.2208 37.4172C20.2208 38.0289 20.3238 38.5896 20.4782 38.9975C20.2208 39.5582 19.9634 39.8131 19.8604 39.8131C19.706 39.8131 19.5515 39.7111 19.4486 39.5582C19.3456 39.3543 19.2941 39.0994 19.2941 38.7935C19.2941 38.3348 19.3456 37.672 19.5001 37.0603C19.6545 37.2133 19.809 37.3152 20.0149 37.3662ZM36.0777 20.2379C36.0777 20.5947 36.0777 20.9516 35.9747 21.3084C35.8718 21.6143 35.7173 21.9711 35.5629 22.277C35.3569 22.6338 35.151 23.0416 34.9965 23.4494L34.9451 23.5004C34.7391 23.8573 34.5847 24.2141 34.3787 24.5709C34.2758 24.5709 34.1213 24.52 34.0184 24.52C33.9669 24.52 33.9154 24.52 33.8639 24.52C33.7094 24.2141 33.555 23.9082 33.2976 23.7043C34.0698 22.6338 34.7906 21.5633 35.4599 20.4928C35.6143 20.2379 35.7688 19.983 35.8718 19.6771C35.8718 19.6262 35.9232 19.5752 35.9232 19.5242C35.9232 19.5752 35.9747 19.5752 35.9747 19.6262C36.0777 19.8301 36.0777 20.034 36.0777 20.2379ZM35.7688 25.0297C35.5114 24.9278 35.3054 24.8258 35.048 24.7239C35.2025 24.418 35.3569 24.1122 35.5114 23.8063C35.7173 23.3985 35.9747 22.9397 36.1807 22.5319C36.2836 22.3789 36.3351 22.175 36.4381 22.0221C36.5925 21.9711 36.747 22.0221 36.8499 22.0731C37.0044 22.175 37.1074 22.3789 37.1588 22.5828C37.2618 23.1436 37.0044 23.7043 36.6955 24.3161L36.2321 25.2336C36.0777 25.1827 35.9232 25.1317 35.7688 25.0297ZM30.9808 30.9431C30.9294 31.045 30.9294 31.198 30.9808 31.2999C31.0838 31.5038 31.0323 31.7587 30.8779 31.9116C30.7234 32.0646 30.4145 32.0136 30.2601 31.8607H30.2086C30.1571 31.8097 30.1056 31.8097 30.1056 31.8097H30.0541C30.0027 31.8097 29.8997 31.8097 29.8482 31.8097C29.7967 31.8097 29.7452 31.8607 29.6938 31.9116V31.9626C29.6423 32.0136 29.6423 32.0646 29.6423 32.1156V32.1665C29.6938 32.6253 29.6938 33.0331 29.4878 33.339C29.3849 33.4919 29.2304 33.5939 29.0245 33.6449C28.973 33.6449 28.87 33.6449 28.7671 33.5939C28.7156 33.5429 28.6641 33.5429 28.6126 33.4919H28.5611C28.5096 33.4919 28.4582 33.4919 28.4067 33.4919L28.3552 33.5429C28.3037 33.5939 28.3037 33.5939 28.2522 33.6449V33.6958C28.2522 33.7468 28.2007 33.7978 28.2007 33.8488V33.8997C28.2522 34.2056 28.0463 34.4605 27.7889 34.6134C27.5829 34.7664 27.2226 34.8683 26.9651 34.7154C26.8622 34.6644 26.7077 34.6644 26.6048 34.7154C26.5018 34.7664 26.4503 34.9193 26.4503 35.0722C26.5018 35.3271 26.3473 35.633 26.1414 35.7349C25.987 35.8369 25.8325 35.8369 25.6781 35.7859C25.6266 35.7349 25.5236 35.6839 25.4721 35.6839C25.4721 35.6839 25.4721 35.6839 25.4206 35.633C25.3177 35.531 25.1632 35.531 25.0603 35.582C24.9573 35.633 24.8543 35.7859 24.8543 35.8879C24.8543 36.0918 24.6999 36.2957 24.4939 36.2957C24.391 36.2957 24.3395 36.2957 24.185 36.2447C24.1336 36.2447 24.0306 36.1937 24.0306 36.1937C23.9276 36.1427 23.8247 36.0408 23.6702 35.9898C23.5672 35.9388 23.4643 35.8879 23.4128 35.9388C23.3098 35.9388 23.2583 36.0408 23.2069 36.1427C23.0524 36.4996 22.6405 36.6015 22.3316 36.6015C22.0227 36.6015 21.6109 36.4996 21.4564 36.1427C21.3535 35.9898 21.199 35.9388 21.0446 35.9898C20.8901 36.0408 20.7871 36.2447 20.8901 36.3976C20.9416 36.4996 20.8901 36.6525 20.7871 36.7035C20.6327 36.8564 20.4268 36.9584 20.2208 36.8564C19.7575 36.7035 19.5515 36.1427 19.5515 35.6839C19.5001 35.3781 19.5515 35.0212 19.603 34.6134C19.7575 34.7154 19.9634 34.7664 20.1179 34.7154C20.2208 34.7154 20.3753 34.6644 20.4782 34.6134C20.6842 34.8683 20.9931 35.0212 21.302 35.0722C21.5594 35.1232 21.8168 35.0722 22.0227 34.9703C22.3831 35.1232 22.795 35.1232 23.2069 34.9703C23.5672 34.8173 23.8761 34.5624 24.0306 34.2056C24.4425 34.2566 24.8543 34.1037 25.1632 33.7978C25.4721 33.5429 25.6266 33.237 25.7295 32.9312C25.987 32.9312 26.2444 32.8802 26.4503 32.7273C26.7077 32.5743 26.8622 32.3704 26.9137 32.1156C27.274 32.1665 27.6859 32.0646 28.0463 31.8097C28.3552 31.6058 28.6126 31.2999 28.6641 30.9431C28.7671 30.9431 28.87 30.9431 28.973 30.9431C29.3849 30.8921 29.7967 30.5862 30.0027 30.2294C30.2086 29.7706 30.2086 29.3118 30.1056 28.904C30.1571 28.904 30.2086 28.853 30.2601 28.853C30.6205 28.7001 30.9294 28.2923 30.9808 27.8845C31.0323 27.6296 30.9808 27.3747 30.9808 27.1708C30.9808 26.9159 30.9294 26.712 30.9808 26.5081C31.0323 26.3551 31.1353 26.1512 31.2383 25.9983C31.3412 25.8454 31.3927 25.6924 31.4957 25.5395C31.6501 25.1827 31.6501 24.7749 31.4957 24.52C31.7016 24.367 31.8561 24.2141 31.9075 23.9082C31.9075 23.9082 31.9075 23.9082 31.9075 23.8573C32.165 23.8573 32.3709 23.9082 32.5768 24.0612C32.6283 24.1122 32.6798 24.1122 32.7313 24.1631L32.7828 24.2141C33.0402 24.418 33.2461 24.7239 33.3491 25.0807V25.1317C33.3491 25.2336 33.4006 25.2846 33.4006 25.3866C33.452 25.6415 33.4006 25.9473 33.3491 26.2022L33.1946 27.4766C33.1431 27.7315 33.1431 28.0374 32.9887 28.2413C32.8857 28.3942 32.7313 28.4962 32.5768 28.4452C32.4224 28.3942 32.2679 28.4452 32.2164 28.5472C32.1135 28.6491 32.1135 28.802 32.165 28.955C32.2679 29.1079 32.6283 29.7706 32.3709 30.2294C32.165 30.6372 31.7016 30.8921 31.2897 30.8411C31.1868 30.7901 31.0323 30.8411 30.9808 30.9431ZM35.3054 19.4732C35.2025 19.7281 35.048 19.932 34.8936 20.1869C34.2243 21.2574 33.555 22.328 32.7828 23.3475C32.5253 23.2455 32.2679 23.1436 32.0105 23.1436C32.0105 23.0926 32.062 23.0416 32.062 22.9907C32.1135 22.9397 32.1135 22.8377 32.165 22.7867C32.2164 22.6848 32.3194 22.5319 32.3709 22.3789C32.4739 21.9711 32.3194 21.5633 32.165 21.2574C33.452 20.1869 34.1213 18.7596 34.7391 17.3832L34.9451 16.9244C35.254 17.1283 35.4084 17.5361 35.4599 17.8929C35.5629 18.4537 35.5114 18.9635 35.3054 19.4732ZM34.5332 16.2617C34.4817 16.3127 34.4302 16.3636 34.4302 16.4656V16.5166C34.3787 16.5675 34.3787 16.6695 34.3273 16.7205L34.1213 17.1283C33.5035 18.4027 32.9372 19.7281 31.8046 20.6457C31.6501 20.3398 31.4957 20.034 31.3412 19.7791C31.5986 19.3713 31.7016 18.8615 31.5986 18.3517C31.5472 18.1478 31.4957 17.9949 31.3927 17.791C32.4224 16.7715 33.2976 15.548 34.0184 14.2226C34.1213 14.2226 34.2243 14.2226 34.3787 14.3246C34.6362 14.5285 34.8421 14.9363 34.7906 15.3441C34.7391 15.7009 34.6362 16.0068 34.5332 16.2617ZM33.9154 12.5404C33.9154 12.8462 33.8124 13.2031 33.658 13.5089C32.9887 14.9363 32.062 16.2107 30.9808 17.2812C30.9294 17.2302 30.8779 17.2302 30.8779 17.1793C30.9808 16.8224 30.8779 16.3636 30.569 16.1088C30.363 15.9048 30.0541 15.8029 29.7452 15.8029L32.7828 12.4894C32.8342 12.4894 32.8857 12.4384 32.8857 12.3874L32.9372 12.3364C33.1946 12.0816 33.4006 11.9796 33.555 12.0306C33.7609 12.0306 33.9154 12.2855 33.9154 12.5404ZM30.1056 16.5675C30.2601 16.7205 30.2601 16.9754 30.1571 17.1283C30.1056 17.2302 30.1056 17.3322 30.1056 17.4342C30.1571 17.5361 30.2086 17.5871 30.3116 17.6381C30.6205 17.74 30.8779 18.0969 30.9808 18.4537C31.0838 18.8615 30.9808 19.2184 30.7234 19.4732C30.6205 19.5752 30.6205 19.7281 30.6719 19.8811C30.9808 20.3908 31.2897 20.9516 31.5472 21.5123C31.6501 21.7672 31.7531 22.0221 31.7016 22.175C31.7016 22.226 31.6501 22.328 31.5986 22.4299C31.5472 22.5319 31.4957 22.6338 31.4442 22.6848C31.3412 22.8887 31.3412 23.1436 31.2897 23.3475C31.2897 23.4494 31.2897 23.5514 31.2383 23.6534C31.1868 23.7553 31.1868 23.8573 30.8264 23.9592C30.7234 24.0102 30.6205 24.1122 30.6205 24.2651C30.6205 24.418 30.6719 24.52 30.8264 24.5709C30.9808 24.6219 30.9808 24.9278 30.8779 25.1827C30.8264 25.2846 30.7749 25.4376 30.6719 25.5395C30.569 25.7434 30.4145 25.9473 30.363 26.2532C30.2601 26.559 30.3116 26.8649 30.3116 27.1708C30.3116 27.3747 30.363 27.5786 30.3116 27.7315C30.3116 27.8845 30.1571 28.0884 30.0027 28.1393L29.6423 28.0884H29.5908C29.5393 28.0884 29.5393 28.0884 29.4878 28.1393C29.3849 28.1903 29.3334 28.3432 29.3334 28.4962C29.4363 29.0059 29.5393 29.4647 29.3334 29.8726C29.2304 30.0255 29.0245 30.1784 28.8185 30.2294C28.7156 30.2294 28.6126 30.2294 28.5611 30.1274C28.4582 30.0255 28.3037 29.9745 28.1493 30.0255C27.9948 30.0765 27.9433 30.2294 27.9433 30.3823C27.9948 30.7392 27.7889 30.9941 27.5315 31.147C27.3255 31.2999 26.9651 31.4019 26.6562 31.2489C26.5533 31.198 26.3988 31.198 26.2959 31.2489C26.1929 31.3509 26.1414 31.4528 26.1929 31.6058C26.2444 31.7587 26.0899 31.9116 25.987 32.0136C25.8325 32.1156 25.6781 32.1665 25.5236 32.0646C25.4206 31.9626 25.2662 31.9626 25.1632 32.0646C25.0603 32.1155 25.0088 32.2685 25.0088 32.4214C25.0603 32.6763 24.9573 32.9822 24.6999 33.1861C24.4425 33.39 24.1336 33.4919 23.8761 33.39C23.7732 33.339 23.6702 33.339 23.5672 33.441C23.4643 33.4919 23.4128 33.5939 23.4128 33.6958C23.4128 33.9507 23.2069 34.1546 22.898 34.2566C22.6405 34.3585 22.3316 34.3585 22.1257 34.2056C22.0742 34.1546 21.9713 34.1037 21.9198 34.1037H21.8683C21.7653 34.1037 21.6624 34.1546 21.6109 34.2566C21.5594 34.3585 21.4049 34.3076 21.3535 34.3076C21.1475 34.2566 20.8901 34.1037 20.8386 33.9507C20.7871 33.7978 20.6842 33.6958 20.5812 33.6958H20.5297C20.4268 33.6958 20.3238 33.7468 20.2723 33.8488C20.2208 33.8997 20.1693 33.9507 20.0664 33.9507C19.9634 33.9507 19.8604 33.8997 19.7575 33.7978C19.603 33.6449 19.603 33.288 19.603 32.8802C19.603 31.9626 19.603 30.9941 19.7575 30.0765C19.7575 29.9745 19.809 29.8726 19.8604 29.7706C19.9119 29.6686 20.0664 29.5667 20.2723 29.5157C21.8168 28.853 23.7732 28.0374 24.6999 26.3042C25.1632 25.3866 25.2662 24.418 25.3692 23.4494C25.4206 23.1436 25.4206 22.8377 25.4721 22.5319L25.5236 22.124C25.5236 22.0221 25.5751 21.8692 25.5751 21.7672C26.0384 19.8811 27.4285 18.3517 28.7156 16.9754L29.1274 16.5166C29.2304 16.6185 29.4363 16.6185 29.5393 16.5166C29.6938 16.4146 29.9512 16.4656 30.1056 16.5675ZM29.3334 13.1011C29.3849 13.1521 29.4363 13.1521 29.4878 13.2031L29.5393 13.254C29.6423 13.305 29.6938 13.407 29.7452 13.5089C29.9512 13.8658 30.0027 14.3246 29.9512 14.6814L28.2522 16.5675C27.0681 17.893 25.6781 19.3713 25.1117 21.2065L25.0603 21.1045C25.0088 21.0025 24.9573 20.9006 24.9058 20.7986L24.8543 20.6967C24.8028 20.5947 24.7514 20.4928 24.6484 20.3398L24.4425 19.932C25.1117 18.7596 28.0463 15.0892 28.0978 15.0892C28.5611 14.4775 28.973 13.8148 29.3334 13.1011ZM31.5472 37.0603C31.1353 37.1113 30.7234 36.9074 30.363 36.4996C30.0541 36.1427 29.7967 35.633 29.5908 35.1742C29.4878 34.9703 29.3849 34.7664 29.2819 34.5115L29.1789 34.2056C29.5393 34.1546 29.8997 33.8997 30.1056 33.5939C30.1571 33.4919 30.2086 33.39 30.2601 33.237C30.5175 33.6449 30.7749 34.0527 31.0323 34.3585C31.4957 34.9193 31.959 35.3271 32.4224 35.531C32.5253 35.8879 32.5253 36.2447 32.3194 36.5506C32.165 36.8564 31.8561 37.0093 31.5472 37.0603ZM41.5864 11.7757C41.5864 11.8267 41.5349 11.8267 41.5349 11.8267C41.4319 12.0306 41.2775 12.2345 41.1745 12.4384C41.0716 12.5913 40.9686 12.7443 40.8656 12.8972C40.4538 13.5089 40.0934 14.1716 39.7845 14.8343C39.1152 16.0068 38.4459 17.2302 37.5707 18.2498C37.4677 18.3517 37.3648 18.4537 37.2618 18.5557C37.0559 18.8105 36.7985 19.0654 36.5925 19.3203C36.4896 19.1164 36.3351 18.9635 36.1292 18.8615C36.1807 18.5047 36.1807 18.1478 36.1292 17.842C36.0777 17.6381 36.0262 17.4851 35.9747 17.2812C38.3944 14.6304 40.3508 11.6737 41.7923 8.36024C42.1527 8.97196 42.3587 9.94053 42.1527 10.5523C42.0498 11.011 41.7923 11.4698 41.5864 11.7757ZM30.6719 32.6253C30.8779 32.6253 31.0838 32.5234 31.2897 32.4214C31.4442 32.3195 31.5986 32.1155 31.6501 31.9116C32.4224 32.6253 33.1946 33.339 33.9669 34.0017C34.1213 34.2566 34.0184 34.8173 33.8639 34.9193C33.658 35.0722 33.2976 35.1232 32.9372 35.0212C32.4739 34.8683 32.0105 34.5115 31.5472 33.9507C31.2897 33.5939 30.9294 33.0841 30.6719 32.6253ZM32.9887 30.4843C33.1431 30.2294 33.1431 29.9235 33.1431 29.5667C33.2461 29.6177 33.3491 29.7196 33.452 29.8216L34.4817 30.7392C34.7391 30.9941 34.9965 31.2489 35.254 31.5038C35.3054 31.5548 35.3569 31.6058 35.3569 31.6568L35.4084 31.7077C35.6143 31.9626 35.7173 32.2175 35.7173 32.4724C35.7688 32.8292 35.6658 33.1861 35.4084 33.39C35.2025 33.5939 34.7391 33.6449 34.4817 33.4919C33.658 32.8292 32.8342 32.0646 32.062 31.2999C32.4739 31.198 32.8342 30.8411 32.9887 30.4843ZM36.2321 30.7901C36.1292 30.9431 35.9747 31.096 35.7688 31.096C35.5114 30.7901 35.2025 30.4843 34.9451 30.2294L33.9154 29.3118C33.7095 29.1079 33.5035 29.0059 33.2976 28.853C33.4006 28.7511 33.5035 28.6491 33.555 28.5472C33.7609 28.1903 33.8124 27.8335 33.8639 27.5276V27.3747C34.3273 27.5786 35.151 27.9354 35.4084 28.1903C35.7173 28.4962 35.9747 28.853 36.1292 29.2608C36.1292 29.2608 36.1292 29.3118 36.1807 29.3628V29.4138C36.2321 29.5667 36.2836 29.7706 36.3351 29.9235C36.3866 30.2804 36.3351 30.5862 36.2321 30.7901ZM36.6955 28.7511C36.4896 28.3432 36.2321 27.9864 35.9232 27.6805C35.5629 27.3747 34.7391 27.0178 34.1728 26.763L34.0184 26.712L34.0698 26.3042C34.1213 25.9983 34.1728 25.6415 34.1213 25.3356C34.1213 25.3356 34.1213 25.3356 34.1213 25.2846C34.4817 25.2846 34.9965 25.4376 35.5114 25.6924C35.7173 25.7944 35.9232 25.8963 36.1292 26.0493C36.1292 26.0493 36.1807 26.0493 36.1807 26.1003L36.2321 26.1512L36.2836 26.2022C36.4896 26.3551 36.6955 26.4571 36.8499 26.61C37.2618 26.9669 37.4677 27.4766 37.4677 27.8845C37.4677 28.0884 37.0559 28.5472 36.6955 28.7511ZM37.6222 26.3551C37.5192 26.2532 37.4163 26.1512 37.3133 26.0493C37.1588 25.8963 37.0044 25.7434 36.747 25.6415L37.2618 24.6729C37.4677 24.2651 37.7252 23.7043 37.8281 23.1436C39.1152 21.6653 40.1964 20.1359 41.1745 18.5047C41.329 19.7281 41.2775 21.3084 40.9171 22.226C40.1964 23.9082 38.8063 25.2336 37.6222 26.3551ZM37.7252 22.175C37.6222 21.9201 37.4677 21.7162 37.2618 21.5633C37.1074 21.4613 36.9014 21.3594 36.644 21.3594C36.6955 21.0535 36.747 20.7477 36.747 20.4928C36.8499 19.8811 37.3133 19.4223 37.7766 18.9635C37.8796 18.8615 37.9826 18.7596 38.0855 18.6066C39.0637 17.5361 39.733 16.2617 40.4023 15.0382C40.7627 14.4265 41.0716 13.7638 41.4834 13.1521C41.5864 12.9992 41.6894 12.8462 41.7409 12.6933C41.8438 12.5404 41.9468 12.3874 41.9983 12.2345C42.0498 12.2855 42.1012 12.3364 42.1527 12.3874C42.7705 13.407 42.2042 14.8343 41.7409 15.8029C40.6597 18.1478 39.3211 20.1869 37.7252 22.175ZM35.6658 16.6695C35.5629 16.5166 35.4084 16.4146 35.254 16.3127C35.3569 16.0068 35.4599 15.7009 35.4599 15.4461C35.5114 14.9363 35.3569 14.4265 35.0995 14.1206C37.4677 11.011 40.1449 7.49363 41.2775 3.21155C41.7409 3.26253 42.1012 3.56839 42.2557 4.12914C42.4101 4.79184 42.2042 5.50552 41.9468 6.16822C40.5567 10.0425 38.4459 13.6109 35.6658 16.6695ZM35.8203 7.08581L32.4224 11.9286C32.3709 11.9796 32.3194 12.0306 32.2679 12.0816L30.569 13.9167C30.5175 13.6109 30.4145 13.356 30.2601 13.1011C30.2086 13.0501 30.2086 12.9992 30.1571 12.9482C32.4224 10.2464 34.4817 7.28972 36.1807 4.18012C36.4381 3.7723 36.5925 3.41546 36.747 3.05862C36.8499 3.1096 37.0044 3.31351 37.0559 3.51742C37.4163 4.68989 36.5925 5.96432 35.8203 7.08581ZM35.6143 3.87426C33.9154 6.93288 31.9075 9.83857 29.6423 12.4894C29.6423 12.4894 29.5908 12.4894 29.5908 12.4384C30.0541 11.215 29.7452 10.6032 29.3334 10.3483C29.2304 10.2464 29.076 10.1954 28.973 10.1954C30.8264 7.85047 32.4224 5.35259 33.658 2.65081L33.7095 2.59983C33.9154 2.19201 34.1213 1.73322 34.4302 1.37638C34.7391 1.01954 35.2025 0.86661 35.5629 0.968564C36.0777 1.1215 36.2836 1.68224 36.2836 2.19201C36.2321 2.75276 35.9747 3.31351 35.6143 3.87426ZM28.7671 12.6933C28.4067 13.4579 27.9948 14.0697 27.5315 14.6304C27.4285 14.7833 24.9573 17.791 24.0306 19.2184L23.7217 18.6576C23.6702 18.5557 23.6187 18.4537 23.5672 18.3517L23.5158 18.2498C23.4643 18.0969 23.4128 17.9949 23.3098 17.842C23.3098 17.791 23.2583 17.74 23.2583 17.689V17.6381C23.7217 17.0263 24.4425 15.9558 25.0603 14.9873C25.781 13.9167 26.5533 12.7443 26.9651 12.1835C27.2226 11.8267 27.5315 11.4189 27.8918 11.164C27.9948 11.113 28.0978 11.062 28.2007 11.011C28.2522 11.011 28.3037 11.011 28.3552 10.9601C28.5096 10.9091 28.7671 10.8581 28.9215 11.011C29.3849 11.215 29.076 12.0306 28.7671 12.6933ZM20.0149 4.48598C20.0149 4.63891 19.809 4.79184 19.5515 4.94478C19.2941 4.99575 18.9852 5.09771 18.7278 5.19966C18.7793 5.04673 18.7793 4.8938 18.7793 4.74087C18.8308 4.435 18.8823 3.97621 18.8823 3.56839C20.0149 4.07817 20.0149 4.435 20.0149 4.48598ZM10.542 3.00765C13.0132 2.90569 15.6903 2.90569 18.1615 3.00765C18.213 3.56839 18.1615 4.12914 18.11 4.63891C18.007 5.19966 17.9041 5.76041 17.6981 6.27018C16.9774 7.69754 15.021 8.41122 13.425 7.85047C11.8805 7.28972 10.7479 5.76041 10.542 3.97621C10.439 3.61937 10.4905 3.31351 10.542 3.00765ZM14.4032 0.713679H14.5062C15.5873 0.713679 17.4407 0.968564 18.007 2.29397C16.72 2.24299 15.4329 2.19201 14.1458 2.19201C13.0132 2.19201 11.8805 2.19201 10.7994 2.24299C10.9023 2.03908 11.0053 1.88615 11.1598 1.73322C11.7776 1.07052 12.9102 0.713679 14.4032 0.713679Z" fill="#489FDF"/>
<path d="M14.1457 17.3322C14.4546 17.1793 14.6605 16.9244 14.7635 16.5676C15.1754 16.5676 15.5357 16.5166 15.9476 16.4146C16.1021 16.3637 16.2565 16.2107 16.205 16.0068C16.1535 15.8539 15.9991 15.701 15.7932 15.7519C14.9179 15.9558 13.9912 15.9049 13.1675 15.65C13.0131 15.599 12.8586 15.65 12.7556 15.8029C12.5497 16.2107 12.6012 16.7205 12.9101 17.0773C13.116 17.2812 13.4249 17.4342 13.7338 17.4342C13.8368 17.4342 13.9912 17.4342 14.1457 17.3322ZM14.0427 16.5676C13.9912 16.6695 13.9398 16.7205 13.8368 16.7715C13.6823 16.8224 13.4764 16.8224 13.322 16.6695C13.2705 16.6185 13.219 16.5166 13.219 16.4146C13.5279 16.4656 13.7853 16.5166 14.0427 16.5676Z" fill="#489FDF"/>
<path d="M27.6861 19.9825C27.5831 20.0335 27.5316 20.0845 27.4802 20.1354C27.4287 20.2374 27.4287 20.2884 27.4802 20.3903C27.892 21.7157 27.995 23.1431 27.6861 24.5704L27.5831 25.0292C27.1713 26.7624 26.2446 28.3427 25.009 29.4642C23.8763 30.4838 22.0229 31.4014 20.4784 30.6367C20.3755 30.5857 20.324 30.5857 20.221 30.6367C20.118 30.6877 20.0666 30.7387 20.0151 30.7896C19.9121 30.9426 20.0151 31.1465 20.1695 31.2484C20.6329 31.4523 21.1477 31.6053 21.714 31.6053C22.9496 31.6053 24.3397 30.9935 25.4723 29.974C26.7594 28.8015 27.7376 27.2722 28.2009 25.488L28.3039 25.0292C28.6643 23.398 28.6128 21.7157 28.098 20.1864C28.0465 20.0335 27.8405 19.9315 27.6861 19.9825Z" fill="#489FDF"/>
<path d="M16.1539 20.2379C16.2054 19.6771 15.948 18.9125 14.3005 18.4537C14.1461 18.4027 13.9401 18.5047 13.8886 18.6576C13.8372 18.8105 13.9401 19.0144 14.0946 19.0654C14.6094 19.2183 15.4846 19.5242 15.4331 20.085C15.3817 20.6457 14.5579 21.2574 14.4035 21.3084C14.3005 21.3084 14.249 21.3594 14.1461 21.4104C14.0946 21.4613 14.0431 21.5633 14.0431 21.6652C14.0431 21.8692 14.1975 21.9711 14.4035 21.9711C14.9183 21.9711 16.0509 21.1555 16.1539 20.2379Z" fill="#489FDF"/>
<path d="M19.9633 22.6847C20.3752 22.5827 20.993 22.1239 21.3019 21.5632C21.5078 21.1554 21.6623 20.4927 21.1989 19.6771C20.9415 19.2692 20.4267 19.0653 20.0148 19.2183C19.9119 19.2183 19.8604 19.3202 19.8089 19.3712C19.7574 19.4731 19.7574 19.5241 19.7574 19.6261C19.8089 19.728 19.8604 19.779 19.9119 19.83C20.0148 19.881 20.0663 19.881 20.1693 19.83C20.3237 19.779 20.5297 19.881 20.5811 20.0339C20.8386 20.4417 20.89 20.8495 20.6841 21.2573C20.5811 21.5122 20.3752 21.6652 20.2208 21.8181C20.2208 21.2573 19.9119 20.5946 19.3455 19.9829C19.2941 19.9319 19.1911 19.881 19.1396 19.881C19.0366 19.881 18.9852 19.881 18.8822 19.9829C18.8307 20.0339 18.7792 20.1358 18.7792 20.1868C18.7792 20.2888 18.7792 20.3398 18.8822 20.4417C19.5 21.1044 19.7059 21.7161 19.5515 22.1749C19.4485 22.4808 19.1911 22.6847 18.9852 22.8376C18.9852 22.4808 18.9337 22.1239 18.7792 21.7671C18.7792 21.7671 18.3674 20.9005 17.9555 20.6966C17.8525 20.6456 17.801 20.6456 17.6981 20.6966C17.5951 20.7476 17.5436 20.7985 17.5436 20.9005C17.4921 21.0025 17.4921 21.0534 17.5436 21.1554C17.5951 21.2573 17.6466 21.3083 17.7496 21.3083C17.8525 21.3593 18.1614 21.8181 18.2129 22.022C18.4188 22.4808 18.4188 22.8376 18.3159 23.1945C18.2644 23.2454 18.2644 23.2964 18.2644 23.3474C18.2129 23.4494 18.1614 23.5003 18.1099 23.5513C17.9555 23.7552 17.7496 23.8572 17.5951 23.9081C17.5951 23.6023 17.5951 23.1945 17.4407 22.8376C17.2347 22.3279 16.9258 22.022 16.514 21.8181C16.411 21.7671 16.3595 21.7671 16.2565 21.8181C16.1536 21.8691 16.1021 21.92 16.0506 22.022C15.9991 22.1239 15.9991 22.1749 16.0506 22.2769C16.1021 22.3788 16.1536 22.4298 16.2565 22.4808C16.5654 22.5827 16.7199 22.8886 16.8229 23.0925C16.9773 23.5003 16.9773 23.9591 16.9258 24.163C16.8743 24.214 16.8229 24.265 16.8229 24.316C16.6684 24.5199 16.4625 24.6728 16.2565 24.7748C16.0506 24.8257 15.7932 24.8767 15.4843 24.7238C15.3813 24.6728 15.3298 24.6728 15.2269 24.7238C15.1239 24.7748 15.0724 24.8257 15.0209 24.8767C14.918 25.0296 15.0209 25.2335 15.1754 25.3355C15.4328 25.4375 15.6902 25.5394 15.9476 25.5394C16.1536 25.5394 16.308 25.4884 16.4625 25.4375C16.8229 25.3355 17.1318 25.0806 17.3892 24.7238C17.7496 24.6728 18.3159 24.4179 18.6763 24.0101C18.7792 23.9081 18.8307 23.8062 18.9337 23.6533C19.0366 23.5513 19.6544 23.1945 19.9633 22.6847Z" fill="#489FDF"/>
</svg>
