<svg width="104" height="104" viewBox="0 0 104 104" fill="none" xmlns="http://www.w3.org/2000/svg">
<path d="M82.5882 73.4117L104 52L90.2353 38.2353L81.0588 47.4118L78 44.3529C83.0599 39.293 83.0599 31.0599 78 26C72.9401 20.9401 64.707 20.9401 59.6471 26L56.5882 22.9412L65.7647 13.7647L52 0L30.5882 21.4118L44.3529 35.1765L53.5294 26L56.5882 29.0588L43.5656 42.0814C36.3311 38.6346 27.3935 39.9006 21.4118 45.8823L19.8824 47.4118L36.7059 64.2353L33.384 67.5572C30.9725 66.4084 27.9938 66.8297 26 68.8235C23.47 71.3536 23.47 75.4699 26 78C28.5301 80.53 32.6464 80.53 35.1765 78C37.1703 76.0061 37.5916 73.0275 36.4428 70.616L39.7647 67.2941L56.5882 84.1176L58.1176 82.5882C64.0994 76.6065 65.3654 67.6689 61.9185 60.4344C64.2103 58.1426 72.0371 50.3158 74.9412 47.4118L78 50.4706L68.8235 59.647L82.5882 73.4117ZM59.6471 13.7647L56.5882 16.8235L48.9412 9.17647L52 6.11765L59.6471 13.7647ZM53.5294 19.8823L50.4706 22.9412L42.8235 15.2941L45.8824 12.2353L53.5294 19.8823ZM36.7059 21.4118L39.7647 18.3529L47.4118 26L44.3529 29.0588L36.7059 21.4118ZM29.0588 74.9412C28.2155 74.0978 28.2154 72.7258 29.0588 71.8823C29.9021 71.039 31.2743 71.039 32.1177 71.8823C32.9611 72.7258 32.961 74.0978 32.1177 74.9412C31.2742 75.7846 29.9022 75.7846 29.0588 74.9412ZM74.9412 29.0588C78.3144 32.4321 78.3144 37.9208 74.9412 41.2941L71.8823 44.3529L59.6471 32.1176L62.7059 29.0588C66.0791 25.6855 71.5679 25.6855 74.9412 29.0588ZM45.8824 48.9412L55.0588 58.1176C57.9692 61.028 59.4437 64.8381 59.4844 68.6609L35.3391 44.5156C39.1619 44.5562 42.972 46.0308 45.8824 48.9412ZM26.1089 47.5206C27.3436 46.5961 28.689 45.8855 30.0933 45.3874L58.6126 73.9067C58.1144 75.3109 57.4038 76.6562 56.4792 77.891L26.1089 47.5206ZM59.6471 56.5882C55.8917 52.8329 51.1701 48.1113 47.4118 44.3529C48.4857 43.279 55.1329 36.6317 56.5882 35.1765L68.8235 47.4118L59.6471 56.5882ZM74.9412 59.647L78 56.5882L85.647 64.2353L82.5882 67.2941L74.9412 59.647ZM81.0588 53.5294L84.1176 50.4706L91.7647 58.1176L88.7059 61.1765L81.0588 53.5294ZM97.8823 52L94.8235 55.0588L87.1765 47.4118L90.2353 44.3529L97.8823 52Z" fill="#5F5F5F"/>
</svg>
